<?xml version="1.0" encoding="UTF-8" standalone="no"?>
<!-- Created with Inkscape (http://www.inkscape.org/) -->

<svg
   width="210mm"
   height="297mm"
   viewBox="0 0 210 297"
   version="1.1"
   id="svg1"
   xml:space="preserve"
   inkscape:version="1.3.2 (091e20e, 2023-11-25, custom)"
   sodipodi:docname="Arma Nive.svg"
   xmlns:inkscape="http://www.inkscape.org/namespaces/inkscape"
   xmlns:sodipodi="http://sodipodi.sourceforge.net/DTD/sodipodi-0.dtd"
   xmlns="http://www.w3.org/2000/svg"
   xmlns:svg="http://www.w3.org/2000/svg"><sodipodi:namedview
     id="namedview1"
     pagecolor="#ffffff"
     bordercolor="#000000"
     borderopacity="0.25"
     inkscape:showpageshadow="2"
     inkscape:pageopacity="0.0"
     inkscape:pagecheckerboard="0"
     inkscape:deskcolor="#d1d1d1"
     inkscape:document-units="mm"
     inkscape:zoom="1.4485269"
     inkscape:cx="377.97019"
     inkscape:cy="543.65575"
     inkscape:window-width="1920"
     inkscape:window-height="1009"
     inkscape:window-x="-8"
     inkscape:window-y="-8"
     inkscape:window-maximized="1"
     inkscape:current-layer="layer2" /><defs
     id="defs1" /><g
     inkscape:groupmode="layer"
     id="layer2"
     inkscape:label="Capa 2"
     style="display:inline"><path
       style="display:inline;fill:#808080;fill-rule:evenodd;stroke-width:0.268999"
       d="m 91.41974,155.39529 -3.314571,0.3764 -1.786444,0.22832 -1.200646,0.3999 c -1.766707,-38.9684 8.925097,-49.27278 16.850091,-56.07565 l 1.05028,-2.009225 2.64852,-1.872231 2.69419,-0.365316 3.24216,0.136994 c 2.1066,0.483258 2.79538,1.767094 2.92251,3.698801 l -0.41098,2.237547 -1.7809,0.86762 -3.60748,0.6393 -3.01383,1.64391 -3.56181,2.87684 -3.470483,3.88146 c -5.712283,9.39819 -7.900875,20.28737 -7.260607,43.33533 z"
       id="path3"
       sodipodi:nodetypes="ccccccccccccccccc" /><path
       style="display:inline;fill:#000000;fill-rule:evenodd;stroke-width:0.268999"
       d="m 99.451566,195.15756 c -1.18933,1.76381 -1.665781,2.44099 -5.263183,3.0675 -1.817487,0.3292 -2.766181,0.31228 -3.907026,0.0323 -1.794626,-0.86959 -2.383989,-2.20275 -3.09979,-3.48727 l -1.16242,-10.07432 -1.033262,-14.59483 -0.968685,-6.78079 -1.356158,-4.06848 c -0.0148,-0.87092 0.273484,-1.53978 0.774949,-2.06652 1.303049,-0.70613 2.615954,-1.35312 4.003894,-1.5499 1.755564,0.003 3.890251,-0.49435 5.263183,-0.0323 l 4.552814,-2.93833 c 0.641817,0.14476 0.556975,0.81801 0.258316,1.64676 -1.157181,1.77273 -2.336147,2.87187 -3.64871,4.10076 -1.208007,2.61735 -1.570362,2.79683 0.678081,5.36005 1.18687,0.22603 1.537133,0.45206 3.648711,0.67808 0.653348,0.36794 0.74573,0.81602 0.193736,1.35615 l -3.196658,0.29061 c -1.475027,0.088 -1.359676,1.17948 -1.517605,1.67905 -0.385102,3.50879 -0.273401,6.50095 -0.06458,10.00974 0.47883,7.25806 0.797002,5.84063 1.194711,8.71816 0.714743,1.66219 2.239828,1.8907 4.068471,1.58215 0.327617,-0.31791 0.793046,-0.55313 1.549895,-0.6135 1.20995,1.35028 0.71945,3.42885 0.45205,5.10173 z"
       id="path1"
       sodipodi:nodetypes="ccccccccccccccccccccccccc" /><ellipse
       style="display:inline;fill:#808080;fill-rule:evenodd;stroke-width:0.268999"
       id="path2"
       cx="92.843231"
       cy="193.08406"
       rx="2.0092251"
       ry="2.0548894" /><ellipse
       style="fill:#808080;fill-rule:evenodd;stroke-width:0.268999"
       id="path2-2"
       cx="88.509163"
       cy="160.39255"
       rx="2.0092251"
       ry="2.0548894" /><path
       style="fill:#333333;fill-rule:evenodd;stroke-width:0.268999"
       d="m 102.29304,99.193251 -2.583158,-3.745579 c -3.585743,-1.727909 -5.092379,-2.481521 -7.491156,-5.360051 4.142255,-0.347353 7.470698,1.971357 11.107574,3.681 l 2.90606,2.453999 h 4.45594 l 2.26027,0.71037 1.54989,2.066525 c 12.95999,10.858375 -1.28156,0.267791 17.30715,18.082105 v 1.87279 l -2.19568,-1.227 -2.19568,-0.25832 -0.0646,-1.61447 -2.454,-0.0646 v -2.19569 l -2.00195,0.25832 v -1.93737 l -2.38942,0.12916 -0.0646,-2.06653 h -2.84147 l -0.19374,-1.74363 -2.77689,-0.25831 -0.0646,-1.61448 -2.19569,0.0646 0.38748,-1.87279 -2.71232,0.77495 -0.38747,-2.00195 z"
       id="path4"
       sodipodi:nodetypes="cccccccccccccccccccccccccccc" /></g></svg>
