<?xml version="1.0" encoding="UTF-8" standalone="no"?>
<!-- Created with Inkscape (http://www.inkscape.org/) -->

<svg
   width="210mm"
   height="297mm"
   viewBox="0 0 210 297"
   version="1.1"
   id="svg1"
   xml:space="preserve"
   inkscape:version="1.3.2 (091e20e, 2023-11-25, custom)"
   sodipodi:docname="Bala Laser.svg"
   xmlns:inkscape="http://www.inkscape.org/namespaces/inkscape"
   xmlns:sodipodi="http://sodipodi.sourceforge.net/DTD/sodipodi-0.dtd"
   xmlns="http://www.w3.org/2000/svg"
   xmlns:svg="http://www.w3.org/2000/svg"><sodipodi:namedview
     id="namedview1"
     pagecolor="#ffffff"
     bordercolor="#000000"
     borderopacity="0.25"
     inkscape:showpageshadow="2"
     inkscape:pageopacity="0.0"
     inkscape:pagecheckerboard="0"
     inkscape:deskcolor="#d1d1d1"
     inkscape:document-units="mm"
     inkscape:zoom="2.0485264"
     inkscape:cx="455.44933"
     inkscape:cy="567.96924"
     inkscape:window-width="1920"
     inkscape:window-height="1009"
     inkscape:window-x="-8"
     inkscape:window-y="-8"
     inkscape:window-maximized="1"
     inkscape:current-layer="layer1" /><defs
     id="defs1" /><g
     inkscape:label="Capa 1"
     inkscape:groupmode="layer"
     id="layer1"><path
       style="fill:#54d8fc;fill-rule:evenodd;stroke-width:0.268999"
       d="m 127.73714,180.69188 c 16.33246,-8.62391 38.32567,-18.41202 50.24242,-32.93527 -5.47547,-8.36039 -15.59877,-15.59091 -22.73179,-23.24842 0.0453,2.50657 0.20682,5.05961 -4.77884,5.55379 -13.04986,-4.44759 -26.83996,-3.12228 -40.81389,-3.22894 7.9754,3.69421 22.11363,6.90924 24.41084,13.30326 -30.9459,-0.21248 -62.071802,1.37402 -93.122832,7.10368 l 9.815999,1.16242 25.702419,2.71232 14.207365,1.54989 12.011679,1.16242 -10.590941,7.49116 c 15.420521,1.75027 31.082061,0.0961 46.625991,-0.12916 z"
       id="path1"
       sodipodi:nodetypes="cccccccccccccc" /><path
       style="fill:#00a0f0;fill-rule:evenodd;stroke-width:0.232887"
       d="m 133.07612,177.83807 c 13.34612,-7.91021 31.31796,-16.88827 41.05577,-30.20959 -4.4743,-7.6685 -12.74659,-14.30063 -18.57536,-21.32442 0.037,2.29913 0.169,4.64089 -3.90505,5.09417 -10.66374,-4.07951 -21.93237,-2.86388 -33.35122,-2.96172 6.51713,3.38848 18.07023,6.33744 19.94741,12.2023 -25.28756,-0.19489 -50.722195,1.26031 -76.095657,6.51579 l 8.021179,1.06622 21.002825,2.48785 11.609593,1.42163 9.81539,1.06622 -8.65443,6.8712 c 12.60094,1.60542 25.39882,0.0881 38.1006,-0.11847 z"
       id="path1-9"
       sodipodi:nodetypes="cccccccccccccc" /><path
       style="fill:#0064e0;fill-rule:evenodd;stroke-width:0.219355"
       d="m 134.43777,176.0048 c 12.69959,-7.37493 29.80083,-15.74545 39.06691,-28.16533 -4.25756,-7.14958 -12.12911,-13.33292 -17.67552,-19.88142 0.0352,2.14356 0.16082,4.32685 -3.71587,4.74945 -10.14717,-3.80345 -20.74075,-3.44503 -31.60644,-3.53625 4.30721,0.0596 15.17129,3.58359 18.85195,12.15153 -24.06256,-0.1817 -48.26508,1.17503 -72.409374,6.07487 l 7.63261,0.99408 19.98539,2.31949 11.047194,1.32543 9.3399,0.99407 -8.23518,6.40623 c 11.99051,1.49679 24.16842,0.0821 36.25489,-0.11045 z"
       id="path1-9-6"
       sodipodi:nodetypes="cccccccccccccc" /><path
       style="fill:#00c0f8;fill-rule:evenodd;stroke-width:0.268999"
       d="m 110.42999,167.38861 c 7.51942,-3.74145 14.53728,-4.17458 22.73178,-5.03716 -2.46736,6.33969 -14.26011,7.86105 -22.73178,5.03716 z"
       id="path2"
       sodipodi:nodetypes="ccc" /><path
       style="fill:#00c0f8;fill-rule:evenodd;stroke-width:0.268999"
       d="m 78.398832,154.08535 c 6.160601,-0.71857 12.978737,-0.14154 19.115366,0.38748 -7.869372,2.45349 -12.344201,2.0464 -19.115366,-0.38748 z"
       id="path3"
       sodipodi:nodetypes="ccc" /><path
       style="fill:#00c0f8;fill-rule:evenodd;stroke-width:0.268999"
       d="m 93.510304,137.6823 c -5.359665,-0.8381 -10.441823,-0.20096 -15.628103,0.64579 5.380765,1.2895 10.607626,1.25852 15.628103,-0.64579 z"
       id="path4"
       sodipodi:nodetypes="ccc" /><path
       style="fill:#00c0f8;fill-rule:evenodd;stroke-width:0.268999"
       d="m 81.369463,131.22441 c 5.593791,2.51671 12.448504,4.92879 19.761157,6.07041 6.29632,0.46885 14.92662,-0.24312 22.086,-2.19568 -9.12443,-3.83146 -25.499244,-6.5979 -41.847157,-3.87473 z"
       id="path5"
       sodipodi:nodetypes="cccc" /><path
       style="fill:#00c0f8;fill-rule:evenodd;stroke-width:0.268999;fill-opacity:1"
       d="m 129.93283,124.63735 c 5.66524,1.74254 11.31708,2.52467 17.30715,2.19569 -4.4981,-2.27697 -11.38645,-2.81079 -17.30715,-2.19569 z"
       id="path6"
       sodipodi:nodetypes="ccc" /></g></svg>
