<?xml version="1.0" encoding="UTF-8" standalone="no"?>
<!-- Created with Inkscape (http://www.inkscape.org/) -->

<svg
   width="210mm"
   height="297mm"
   viewBox="0 0 210 297"
   version="1.1"
   id="svg1"
   inkscape:version="1.3.2 (091e20e, 2023-11-25, custom)"
   sodipodi:docname="Bomba Enemigo.svg"
   xmlns:inkscape="http://www.inkscape.org/namespaces/inkscape"
   xmlns:sodipodi="http://sodipodi.sourceforge.net/DTD/sodipodi-0.dtd"
   xmlns="http://www.w3.org/2000/svg"
   xmlns:svg="http://www.w3.org/2000/svg">
  <sodipodi:namedview
     id="namedview1"
     pagecolor="#ffffff"
     bordercolor="#000000"
     borderopacity="0.25"
     inkscape:showpageshadow="2"
     inkscape:pageopacity="0.0"
     inkscape:pagecheckerboard="0"
     inkscape:deskcolor="#d1d1d1"
     inkscape:document-units="mm"
     inkscape:zoom="0.72426347"
     inkscape:cx="263.02583"
     inkscape:cy="627.53407"
     inkscape:window-width="1920"
     inkscape:window-height="1009"
     inkscape:window-x="-8"
     inkscape:window-y="-8"
     inkscape:window-maximized="1"
     inkscape:current-layer="layer1" />
  <defs
     id="defs1" />
  <g
     inkscape:label="Capa 1"
     inkscape:groupmode="layer"
     id="layer1">
    <path
       id="path6-2-9-6-7"
       style="fill:#ffcc00;fill-rule:evenodd;stroke-width:0.271895"
       inkscape:transform-center-x="-3.6422831"
       inkscape:transform-center-y="-0.70295439"
       d="m 89.181541,221.0667 c -0.03109,-0.01 -0.06613,-0.0365 -0.09941,-0.0552 -0.0034,0.0171 -0.0076,0.0334 -0.01201,0.0501 0.03664,0.002 0.0742,0.003 0.110972,0.005 z m -1.113159,4.77798 c -1.122394,-0.0971 -2.240124,-0.24337 -3.349881,-0.43946 -1.860274,-0.36098 -3.645257,-1.00219 -5.403507,-1.69157 -1.947881,-0.79427 -3.843669,-1.71644 -5.661526,-2.77323 -0.393096,-0.22852 -0.779216,-0.4688 -1.168718,-0.70333 -1.934732,-1.18147 -3.765948,-2.52038 -5.569853,-3.88859 -1.430774,-1.07579 -2.752713,-2.28081 -4.038884,-3.5213 -0.994038,-0.98802 -1.991583,-1.97469 -2.948222,-2.99889 -0.808086,-0.87108 -1.549099,-1.80022 -2.28045,-2.73508 -0.663054,-0.8464 -1.292832,-1.71761 -1.897178,-2.60624 -0.626006,-0.90854 -1.104564,-1.90326 -1.526193,-2.91848 -0.04614,-0.12181 -0.09164,-0.2439 -0.137815,-0.36576 l -19.785579,41.65853 53.751286,-16.9322 c 0.0059,-0.0281 0.01033,-0.0563 0.01672,-0.0844 z M 63.316513,203.96117 c -3.77e-4,-0.003 -8.39e-4,-0.005 -0.0011,-0.009 -0.0289,-0.0397 -0.05285,-0.0834 -0.08734,-0.11848 -0.0093,-0.01 0.002,0.0285 0.0094,0.0397 0.02305,0.0316 0.05073,0.0597 0.07884,0.0869 z m -6.837864,-2.71075 c -0.01083,-0.01 -0.02092,-0.0203 -0.03163,-0.03 0.0057,0.013 0.01254,0.0248 0.01779,0.0375 0.0037,-0.002 0.0092,-0.005 0.01364,-0.008 z" />
    <path
       id="path6-2-9-6-7-7"
       style="fill:#ffcc00;fill-rule:evenodd;stroke-width:0.271895"
       inkscape:transform-center-x="3.2730067"
       inkscape:transform-center-y="1.4368763"
       d="m 62.767471,203.7889 c -0.01693,-0.0278 -0.02631,-0.0706 -0.03932,-0.10636 -0.01376,0.0112 -0.02762,0.0205 -0.04188,0.0302 0.02672,0.0251 0.05414,0.0505 0.08097,0.0757 z m -3.971153,2.90668 c -0.788607,-0.80042 -1.541465,-1.63521 -2.255689,-2.50262 -1.176131,-1.47856 -2.111767,-3.12111 -2.995588,-4.7829 -0.959165,-1.86422 -1.795091,-3.79184 -2.483786,-5.77116 -0.148922,-0.42801 -0.284859,-0.86044 -0.427117,-1.29069 -0.69585,-2.14967 -1.210099,-4.35184 -1.684444,-6.55859 -0.382391,-1.74312 -0.597606,-3.51388 -0.762454,-5.28843 -0.108239,-1.39371 -0.220033,-2.78868 -0.276215,-4.18567 -0.04358,-1.18453 0.0018,-2.36971 0.05816,-3.55301 0.05037,-1.07189 0.142254,-2.14109 0.264837,-3.20703 0.119161,-1.09508 0.406646,-2.16013 0.750769,-3.20385 0.04467,-0.12237 0.09002,-0.24454 0.134678,-0.36694 L 6.8427193,184.80088 58.728553,206.74896 c 0.0229,-0.0176 0.04466,-0.0361 0.06789,-0.0534 z m -4.473936,-32.64023 c 0.0019,-0.002 0.0026,-0.004 0.0051,-0.008 0.0041,-0.049 0.01451,-0.0976 0.01122,-0.14651 -5.57e-4,-0.0137 -0.01707,0.0229 -0.01883,0.0363 -0.0032,0.0389 -4.82e-4,0.0781 0.003,0.11707 z M 50.904638,167.57 c -0.0017,-0.0145 -0.0026,-0.0289 -0.0044,-0.0432 -0.0041,0.0135 -0.0067,0.0267 -0.01111,0.04 0.0045,5.1e-4 0.01084,0.002 0.01528,0.003 z" />
    <path
       id="path6-2-9-6-7-3"
       style="fill:#ffcc00;fill-rule:evenodd;stroke-width:0.271895"
       inkscape:transform-center-x="0.21567534"
       inkscape:transform-center-y="4.275215"
       d="m 52.945542,174.69897 c 0.0079,-0.0316 0.03189,-0.0683 0.04828,-0.10255 -0.01742,-0.002 -0.03408,-0.005 -0.05108,-0.009 9.94e-4,0.0364 0.0019,0.0737 0.003,0.11047 z m -4.870331,-0.76223 c 0.01691,-1.12065 0.08353,-2.2402 0.20064,-3.35541 0.228671,-1.87169 0.743688,-3.68878 1.308925,-5.48279 0.656814,-1.98969 1.445612,-3.93683 2.374956,-5.81631 0.200964,-0.40642 0.414211,-0.80676 0.621467,-1.21004 1.04598,-2.00438 2.257242,-3.91731 3.499838,-5.80526 0.976123,-1.49673 2.089615,-2.89476 3.241241,-4.25983 0.919421,-1.05711 1.837228,-2.11762 2.795597,-3.14021 0.815488,-0.86422 1.69399,-1.66606 2.578942,-2.4587 0.801118,-0.71855 1.629522,-1.40587 2.477207,-2.06919 0.866089,-0.68623 1.829147,-1.23234 2.816842,-1.72345 0.118829,-0.0545 0.237999,-0.10832 0.35686,-0.16294 l -43.185988,-16.64777 20.827661,52.12155 c 0.02869,0.003 0.05715,0.005 0.08578,0.0112 z m 20.168071,-26.12771 c 0.0034,-5.3e-4 0.0051,-8.4e-4 0.0088,-0.002 0.03774,-0.0315 0.07994,-0.0585 0.112542,-0.095 0.0094,-0.01 -0.02835,0.004 -0.03913,0.0121 -0.03011,0.0251 -0.05613,0.0545 -0.08154,0.0843 z m 2.228026,-6.97905 c 0.0092,-0.0115 0.01879,-0.0222 0.02782,-0.0335 -0.0125,0.007 -0.02383,0.0143 -0.03645,0.0204 0.0028,0.003 0.0065,0.009 0.0085,0.0131 z" />
    <path
       id="path6-2-9-6-7-3-2"
       style="fill:#ffcc00;fill-rule:evenodd;stroke-width:0.271895"
       inkscape:transform-center-x="0.21679769"
       inkscape:transform-center-y="-2.5233155"
       d="m 67.552355,146.66242 c 0.02695,-0.0188 0.06875,-0.0316 0.103543,-0.0471 -0.01164,-0.0132 -0.02269,-0.0257 -0.03355,-0.0392 -0.02305,0.0284 -0.04669,0.0574 -0.06989,0.086 z m -3.219692,-3.71436 c 0.741324,-0.84395 1.51984,-1.65511 2.334053,-2.43046 1.391044,-1.28067 2.964998,-2.33547 4.562272,-3.34036 1.794321,-1.09525 3.661668,-2.07315 5.592238,-2.90903 0.417473,-0.18076 0.840361,-0.34897 1.260586,-0.52326 2.100736,-0.85613 4.2681,-1.53618 6.443131,-2.177 1.717479,-0.51384 3.475584,-0.86399 5.241345,-1.16449 1.38847,-0.21495 2.777906,-0.43353 4.173653,-0.5971 1.183795,-0.13465 2.375121,-0.1812 3.565395,-0.21659 1.07816,-0.0327 2.156828,-0.0242 3.234624,0.0151 1.1067,0.0336 2.1963,0.23656 3.26893,0.4973 0.12609,0.0349 0.25201,0.0705 0.37814,0.10527 L 82.265317,89.728446 64.27392,142.88498 c 0.01971,0.0209 0.03979,0.0412 0.05848,0.0634 z m 32.36742,-6.95716 c 0.0034,0.002 0.0042,0.002 0.0084,0.004 0.04924,2.7e-4 0.09894,0.007 0.147684,-1.8e-4 0.01369,-0.001 -0.02429,-0.0149 -0.03773,-0.016 -0.03924,-1.9e-4 -0.07831,0.005 -0.117072,0.012 z m 6.235937,-3.8905 c 0.0145,-0.002 0.0287,-0.004 0.043,-0.008 -0.0138,-0.003 -0.0274,-0.004 -0.041,-0.008 -3.2e-4,0.004 -5.7e-4,0.0112 -0.002,0.0153 z" />
    <path
       id="path6-2-9-6-7-3-29"
       style="fill:#ffcc00;fill-rule:evenodd;stroke-width:0.271895"
       inkscape:transform-center-x="7.2763315"
       inkscape:transform-center-y="-4.0736482"
       d="m 92.513682,137.30244 c 0.03277,-0.002 0.07512,0.009 0.113039,0.0139 -0.0034,-0.0172 -0.0059,-0.0338 -0.0076,-0.0508 -0.03454,0.0121 -0.07,0.0246 -0.104509,0.0374 z m -0.783236,-4.84234 c 1.07611,-0.33185 2.166606,-0.6163 3.268613,-0.85169 1.859549,-0.36469 3.755751,-0.44161 5.645511,-0.46389 2.10517,0.003 4.21064,0.14518 6.29508,0.4407 0.45074,0.0639 0.89948,0.14132 1.34916,0.21215 2.24,0.36705 4.44391,0.91879 6.63366,1.5079 1.73321,0.45854 3.41473,1.07764 5.07661,1.74302 1.29552,0.54137 2.59378,1.08017 3.86839,1.66909 1.07895,0.50295 2.11782,1.08486 3.14994,1.67573 0.93528,0.53456 1.84917,1.10465 2.74613,1.70041 0.92456,0.60604 1.74532,1.34728 2.52115,2.12891 0.0889,0.0954 0.17747,0.19142 0.26648,0.28689 l 2.50449,-46.006934 -43.34197,35.873364 c 0.0059,0.0281 0.0121,0.0558 0.01639,0.0843 z m 31.226754,10.96309 c 0.002,0.003 0.003,0.004 0.004,0.009 0.0418,0.0259 0.0807,0.0574 0.12584,0.0769 0.0125,0.005 -0.0128,-0.0255 -0.0238,-0.0333 -0.0333,-0.0206 -0.0696,-0.0361 -0.10599,-0.0508 z m 7.36056,-0.0591 c 0.0138,0.005 0.027,0.0112 0.0406,0.0158 -0.0101,-0.01 -0.021,-0.0181 -0.0307,-0.0281 -0.003,0.003 -0.006,0.009 -0.01,0.012 z" />
    <path
       id="path6-2-9"
       style="fill:#ffcc00;fill-rule:evenodd;stroke-width:0.271895"
       inkscape:transform-center-x="0.64619757"
       inkscape:transform-center-y="-3.6633993"
       d="m 136.4836,188.07714 c -0.0101,0.031 -0.0365,0.0659 -0.0551,0.0992 0.0172,0.003 0.0336,0.007 0.0504,0.0117 0.002,-0.0364 0.003,-0.0738 0.005,-0.11047 z m 4.80772,1.08661 c -0.0927,1.11698 -0.23491,2.22951 -0.42721,3.33434 -0.3548,1.85216 -0.99158,3.63064 -1.67692,5.38272 -0.78994,1.94121 -1.70869,3.83112 -2.76309,5.64411 -0.22801,0.39205 -0.46787,0.77719 -0.70193,1.16569 -1.17922,1.92978 -2.51716,3.75728 -3.88467,5.55774 -1.07518,1.428 -2.28075,2.7483 -3.52212,4.03315 -0.98885,0.99316 -1.97633,1.9898 -3.00171,2.9459 -0.87209,0.8077 -1.80286,1.54886 -2.73943,2.28047 -0.84793,0.66326 -1.72095,1.29358 -2.61159,1.89863 -0.91055,0.62669 -1.90837,1.10708 -2.92706,1.53094 -0.12226,0.0465 -0.24478,0.0923 -0.36707,0.13868 l 41.96169,19.50163 -17.25396,-53.39791 c -0.0283,-0.005 -0.0566,-0.01 -0.0849,-0.0163 z m -21.89011,24.71806 c -0.003,2.7e-4 -0.005,8.3e-4 -0.009,0.002 -0.0395,0.0291 -0.0837,0.053 -0.11875,0.0874 -0.01,0.009 0.0286,-0.002 0.0399,-0.01 0.0318,-0.0229 0.0596,-0.0507 0.0873,-0.0785 z m -2.69517,6.81404 c -0.0102,0.0112 -0.0204,0.0208 -0.0302,0.0315 0.0127,-0.005 0.0249,-0.0122 0.0378,-0.0179 -0.002,-0.003 -0.006,-0.009 -0.008,-0.0135 z" />
    <path
       id="path6-2-9-5"
       style="fill:#ffcc00;fill-rule:evenodd;stroke-width:0.271895"
       inkscape:transform-center-x="-5.4163332"
       inkscape:transform-center-y="-6.1835021"
       d="m 139.42172,161.55124 c 0.008,0.0316 0.003,0.0753 0.005,0.11323 0.0165,-0.005 0.0322,-0.0117 0.0492,-0.016 -0.0177,-0.032 -0.0357,-0.0648 -0.0535,-0.0969 z m 4.6739,-1.56096 c 0.50512,1.00182 0.96566,2.02548 1.37938,3.06848 0.6659,1.76529 1.05246,3.61365 1.38374,5.46459 0.34088,2.06658 0.54496,4.15608 0.59292,6.25008 0.0103,0.45282 0.007,0.90588 0.0103,1.35879 0.003,2.25836 -0.18406,4.51156 -0.40999,6.75696 -0.17115,1.77602 -0.50998,3.52754 -0.89792,5.26737 -0.32488,1.35999 -0.64679,2.72225 -1.02226,4.06953 -0.32219,1.14117 -0.72931,2.25592 -1.14637,3.3655 -0.37712,1.00534 -0.7929,1.99552 -1.23694,2.97327 -0.44974,1.00652 -1.05051,1.93329 -1.6987,2.82258 -0.0802,0.10298 -0.16079,0.20549 -0.24089,0.30846 l 46.03379,-5.06956 -42.66622,-36.66626 c -0.0272,0.01 -0.0536,0.0207 -0.081,0.03 z m -5.76266,32.43963 c -0.003,0.002 -0.004,0.003 -0.007,0.005 -0.0186,0.0454 -0.0437,0.0886 -0.0557,0.13611 -0.003,0.0133 0.023,-0.017 0.0291,-0.0288 0.0151,-0.0361 0.0243,-0.0743 0.0334,-0.11228 z m 1.26295,7.21396 c -0.003,0.0144 -0.007,0.0284 -0.009,0.0426 0.008,-0.0116 0.0149,-0.0234 0.0229,-0.0348 -0.003,-0.002 -0.01,-0.005 -0.0135,-0.008 z" />
    <path
       id="path6-2-9-5-4"
       style="fill:#ffcc00;fill-rule:evenodd;stroke-width:0.271895"
       inkscape:transform-center-x="0.96844522"
       inkscape:transform-center-y="4.4564197"
       d="m 117.82171,141.57629 c 0.027,0.0182 0.0537,0.0532 0.0807,0.08 0.008,-0.0153 0.0157,-0.0302 0.0252,-0.0448 -0.0348,-0.0117 -0.0703,-0.0238 -0.10523,-0.0355 z m 2.3833,-4.2935 c 1.05302,0.39851 2.088,0.8431 3.10166,1.33343 1.69029,0.85297 3.23121,1.95499 4.73316,3.09613 1.65555,1.29356 3.22587,2.69602 4.68421,4.20676 0.31533,0.32673 0.62056,0.663 0.93101,0.99431 1.53655,1.66245 2.93025,3.44823 4.28965,5.25475 1.08081,1.4238 2.02141,2.94232 2.91786,4.48525 0.68479,1.22064 1.37333,2.44094 2.0122,3.68622 0.53809,1.05758 0.99564,2.15281 1.44234,3.25092 0.4053,0.99441 0.77181,2.00368 1.10904,3.02279 0.35261,1.04413 0.53971,2.13107 0.6664,3.22229 0.0108,0.12973 0.0212,0.25953 0.0321,0.38928 l 30.47605,-34.69412 -56.35661,1.67531 c -0.0134,0.0255 -0.0253,0.0513 -0.0393,0.0766 z m 17.79835,27.77941 c -7.1e-4,0.003 -8.2e-4,0.005 -8.3e-4,0.009 0.0171,0.046 0.0279,0.0946 0.0514,0.13775 0.007,0.0119 0.006,-0.028 0.002,-0.0408 -0.0133,-0.0368 -0.0325,-0.0711 -0.0517,-0.10527 z m 5.83296,4.46644 c 0.008,0.0128 0.0143,0.0254 0.022,0.0375 -0.003,-0.0136 -0.005,-0.0272 -0.007,-0.0409 -0.003,8.5e-4 -0.0107,0.003 -0.0151,0.003 z" />
    <path
       id="path6-2-9-6"
       style="fill:#ffcc00;fill-rule:evenodd;stroke-width:0.271895"
       inkscape:transform-center-x="-1.5032247"
       inkscape:transform-center-y="3.2907334"
       d="m 120.30776,214.16526 c -0.028,0.0168 -0.071,0.026 -0.10704,0.0387 0.0109,0.0136 0.0208,0.0272 0.0303,0.0419 0.0252,-0.0264 0.0511,-0.0538 0.0765,-0.0802 z m 2.90708,3.9613 c -0.80753,0.78154 -1.64946,1.52737 -2.52406,2.23465 -1.49063,1.16453 -3.14521,2.0892 -4.81896,2.96225 -1.87751,0.94724 -3.81827,1.77167 -5.81049,2.44942 -0.43081,0.14656 -0.86599,0.28018 -1.29901,0.4201 -2.16346,0.68426 -4.37903,1.18764 -6.59905,1.65132 -1.75364,0.37395 -3.534448,0.58145 -5.318863,0.73884 -1.401395,0.10255 -2.804049,0.20853 -4.208518,0.25924 -1.19088,0.0389 -2.382078,-0.0112 -3.571336,-0.0711 -1.077286,-0.0541 -2.151723,-0.14947 -3.222775,-0.27537 -1.100352,-0.12262 -2.169882,-0.41256 -3.217793,-0.75877 -0.122827,-0.0448 -0.245458,-0.0904 -0.368335,-0.13534 l 18.75732,42.12668 22.25528,-51.53435 c -0.0178,-0.0226 -0.0361,-0.0445 -0.0533,-0.0677 z m -32.827109,4.32943 c -0.0025,-0.002 -0.0042,-0.002 -0.0076,-0.005 -0.04908,-0.004 -0.09807,-0.0147 -0.147231,-0.0117 -0.01378,4.8e-4 0.02295,0.0171 0.03639,0.0189 0.03916,0.003 0.07848,7.7e-4 0.117695,-0.002 z m -6.531884,3.37587 c -0.01462,0.002 -0.02907,0.002 -0.04352,0.004 0.01344,0.004 0.02698,0.007 0.04025,0.0112 8.41e-4,-0.004 0.0017,-0.0112 0.0034,-0.0149 z" />
    <ellipse
       style="fill:#241f1c;fill-rule:evenodd;stroke-width:0.225455"
       id="path1"
       cx="97.943893"
       cy="179.42371"
       rx="50.418617"
       ry="50.992569" />
    <ellipse
       style="fill:#ffffff;fill-rule:evenodd;stroke-width:0.24982"
       id="path2"
       cx="77.743355"
       cy="172.72237"
       rx="15.869226"
       ry="17.236994" />
    <ellipse
       style="fill:#ffffff;fill-rule:evenodd;stroke-width:0.24982"
       id="path2-7"
       cx="115.53722"
       cy="172.46353"
       rx="15.869226"
       ry="17.236994" />
    <ellipse
       style="fill:#00006c;fill-rule:evenodd;stroke-width:0.427028"
       id="path3"
       cx="81.282326"
       cy="172.39171"
       rx="11.426806"
       ry="11.765423" />
    <ellipse
       style="fill:#00006c;fill-rule:evenodd;stroke-width:0.427028"
       id="path3-5"
       cx="111.40574"
       cy="172.54269"
       rx="11.426806"
       ry="11.765423" />
    <ellipse
       style="fill:#ffffff;fill-rule:evenodd;stroke-width:0.267266"
       id="path4-0"
       cx="108.07724"
       cy="171.53236"
       rx="7.827909"
       ry="7.8635774" />
    <ellipse
       style="fill:#ffffff;fill-rule:evenodd;stroke-width:0.267266"
       id="path4"
       cx="84.548546"
       cy="171.53236"
       rx="7.827909"
       ry="7.8635774" />
  </g>
</svg>
