<?xml version="1.0" encoding="UTF-8" standalone="no"?>
<!-- Created with Inkscape (http://www.inkscape.org/) -->

<svg
   width="210mm"
   height="297mm"
   viewBox="0 0 210 297"
   version="1.1"
   id="svg1"
   xml:space="preserve"
   inkscape:version="1.3.2 (091e20e, 2023-11-25, custom)"
   sodipodi:docname="Corazon a medio coser.svg"
   xmlns:inkscape="http://www.inkscape.org/namespaces/inkscape"
   xmlns:sodipodi="http://sodipodi.sourceforge.net/DTD/sodipodi-0.dtd"
   xmlns="http://www.w3.org/2000/svg"
   xmlns:svg="http://www.w3.org/2000/svg"><sodipodi:namedview
     id="namedview1"
     pagecolor="#ffffff"
     bordercolor="#000000"
     borderopacity="0.25"
     inkscape:showpageshadow="2"
     inkscape:pageopacity="0.0"
     inkscape:pagecheckerboard="0"
     inkscape:deskcolor="#d1d1d1"
     inkscape:document-units="mm"
     inkscape:zoom="0.72426347"
     inkscape:cx="492.91455"
     inkscape:cy="518.45774"
     inkscape:window-width="1920"
     inkscape:window-height="1009"
     inkscape:window-x="-8"
     inkscape:window-y="-8"
     inkscape:window-maximized="1"
     inkscape:current-layer="layer1" /><defs
     id="defs1" /><g
     inkscape:label="Capa 1"
     inkscape:groupmode="layer"
     id="layer1"><g
       inkscape:label="Capa 1"
       id="layer1-7"
       transform="translate(12.511921,2.5642158)"><path
         style="fill:#000000;fill-rule:evenodd;stroke-width:0.284691"
         d="M 95.367907,88.896582 C 56.107949,31.790092 -26.057481,111.06685 94.977147,209.01143 217.42986,117.79961 132.00701,26.677536 95.367907,88.896582 Z"
         id="path1-7"
         sodipodi:nodetypes="ccc" /><path
         style="fill:#333333;fill-rule:evenodd;stroke-width:0.268999"
         d="M 95.615437,91.629276 C 58.912251,37.093139 -17.902223,112.80168 95.250117,206.33776 209.7282,119.2314 129.86845,32.210699 95.615437,91.629276 Z"
         id="path1"
         sodipodi:nodetypes="ccc" /></g><g
       inkscape:label="Capa 1"
       id="layer1-6"
       transform="translate(8.7620446,-2.2493125)"><path
         id="path1-8"
         style="fill:#d00000;fill-rule:evenodd;stroke-width:0.268999"
         d="M 69.910156,78.113416 C 37.090374,78.374337 12.36785,139.53794 98.999853,211.15129 105.0605,205.97683 96.275477,106.58804 97.566349,93.918136 89.285175,82.918966 79.268642,78.039014 69.910156,78.113416 Z m 27.656193,15.80472 c 0.05501,0.07306 0.108958,0.149636 0.163814,0.223242 -0.04467,-0.113354 -0.09537,-0.224176 -0.146761,-0.334863 -0.0049,0.04335 -0.01241,0.06601 -0.01705,0.111621 z" /></g></g></svg>
