<?xml version="1.0" encoding="UTF-8" standalone="no"?>
<!-- Created with Inkscape (http://www.inkscape.org/) -->

<svg
   width="210mm"
   height="297mm"
   viewBox="0 0 210 297"
   version="1.1"
   id="svg1"
   inkscape:version="1.3.2 (091e20e, 2023-11-25, custom)"
   sodipodi:docname="Ganar.svg"
   xmlns:inkscape="http://www.inkscape.org/namespaces/inkscape"
   xmlns:sodipodi="http://sodipodi.sourceforge.net/DTD/sodipodi-0.dtd"
   xmlns="http://www.w3.org/2000/svg"
   xmlns:svg="http://www.w3.org/2000/svg">
  <sodipodi:namedview
     id="namedview1"
     pagecolor="#ffffff"
     bordercolor="#000000"
     borderopacity="0.25"
     inkscape:showpageshadow="2"
     inkscape:pageopacity="0.0"
     inkscape:pagecheckerboard="0"
     inkscape:deskcolor="#d1d1d1"
     inkscape:document-units="mm"
     inkscape:zoom="0.72426347"
     inkscape:cx="396.26464"
     inkscape:cy="561.25984"
     inkscape:window-width="1920"
     inkscape:window-height="1009"
     inkscape:window-x="-8"
     inkscape:window-y="-8"
     inkscape:window-maximized="1"
     inkscape:current-layer="layer1" />
  <defs
     id="defs1" />
  <g
     inkscape:label="Capa 1"
     inkscape:groupmode="layer"
     id="layer1">
    <rect
       style="fill:#000000;fill-rule:evenodd;stroke-width:0.266446"
       id="rect1"
       width="209.69005"
       height="216.99631"
       x="0.36531374"
       y="45.298889" />
    <ellipse
       style="display:inline;fill:#4d4d4d;fill-opacity:1;fill-rule:evenodd;stroke-width:0.351694"
       id="path5"
       cx="41.814629"
       cy="-239.60611"
       rx="14.129706"
       ry="26.967558"
       transform="matrix(0.89071047,-0.45457107,-0.47538261,-0.87977916,0,0)" />
    <ellipse
       style="display:inline;fill:#fcfc80;fill-opacity:1;fill-rule:evenodd;stroke-width:0.399023"
       id="path6"
       cx="131.59354"
       cy="233.10844"
       rx="32.027134"
       ry="12.982816" />
    <ellipse
       style="display:inline;fill:#fcfc80;fill-opacity:1;fill-rule:evenodd;stroke-width:0.399023"
       id="path6-2"
       cx="65.141525"
       cy="233.10844"
       rx="32.027134"
       ry="12.982816" />
    <ellipse
       style="display:inline;fill:#fcfc80;fill-opacity:1;fill-rule:evenodd;stroke-width:0.399023"
       id="path6-2-6"
       cx="68.206474"
       cy="234.84007"
       rx="32.027134"
       ry="12.982816" />
    <ellipse
       style="display:inline;fill:#4d4d4d;fill-opacity:1;fill-rule:evenodd;stroke-width:0.351645"
       id="path4"
       cx="102.65896"
       cy="189.24071"
       rx="45.172108"
       ry="44.135754" />
    <ellipse
       style="display:inline;fill:#4d4d4d;fill-opacity:1;fill-rule:evenodd;stroke-width:0.351694"
       id="path5-9"
       cx="138.15262"
       cy="145.51469"
       rx="14.129706"
       ry="26.967558"
       transform="matrix(0.89071047,0.45457107,-0.47538261,0.87977916,0,0)" />
    <ellipse
       style="display:inline;fill:#e6e6e6;fill-opacity:1;fill-rule:evenodd;stroke-width:0.40054"
       id="path7"
       cx="101.58164"
       cy="202.74347"
       rx="30.63868"
       ry="29.65555" />
    <ellipse
       style="display:inline;fill:#ffffff;fill-opacity:1;fill-rule:evenodd;stroke-width:0.351645"
       id="path8"
       cx="113.6652"
       cy="160.82826"
       rx="2.9770372"
       ry="7.7152648" />
    <ellipse
       style="display:inline;fill:#ffffff;fill-opacity:1;fill-rule:evenodd;stroke-width:0.351645"
       id="path8-4"
       cx="86.871864"
       cy="160.82826"
       rx="2.9770372"
       ry="7.7152648" />
    <ellipse
       style="display:inline;fill:#000000;fill-opacity:1;fill-rule:evenodd;stroke-width:0.481817"
       id="path9"
       cx="86.951393"
       cy="160.79938"
       rx="2.1707566"
       ry="2.5315714" />
    <ellipse
       style="display:inline;fill:#000000;fill-opacity:1;fill-rule:evenodd;stroke-width:0.481817"
       id="path9-0"
       cx="113.72348"
       cy="160.79938"
       rx="2.1707566"
       ry="2.5315714" />
    <path
       sodipodi:type="star"
       style="display:inline;fill:#ffd42a;fill-opacity:1;fill-rule:evenodd;stroke-width:0.268999"
       id="path10"
       inkscape:flatsided="true"
       sodipodi:sides="3"
       sodipodi:cx="94.947495"
       sodipodi:cy="129.18472"
       sodipodi:r1="6.6416478"
       sodipodi:r2="3.3208237"
       sodipodi:arg1="1.5707963"
       sodipodi:arg2="2.6179939"
       inkscape:rounded="0"
       inkscape:randomized="0"
       d="m 94.947495,135.82637 -5.751836,-9.96247 11.503671,0 z"
       inkscape:transform-center-x="5.0252692e-06"
       inkscape:transform-center-y="2.340702"
       transform="matrix(1.3260368,0,0,1.4097098,-24.791157,-8.8541288)" />
    <path
       style="display:inline;fill:#000000;fill-rule:evenodd;stroke-width:0.1129"
       d="m 70.476209,144.20489 c 3.01454,-3.77774 7.432037,-5.31643 12.478852,-7.40702 10.785707,-6.21279 20.646169,-5.39208 33.234489,-3.23077 l 6.87609,3.04615 c 28.14642,27.00516 -48.229652,25.7645 -52.589431,7.59164 z"
       id="path3-9"
       sodipodi:nodetypes="ccccc" />
    <path
       style="display:inline;fill:#008080;fill-rule:evenodd;stroke-width:0.109836"
       d="m 71.080339,144.20125 c 2.933684,-3.67413 7.232688,-5.17062 12.144129,-7.20388 10.496407,-6.04239 20.092382,-5.24419 32.343042,-3.14215 l 6.69166,2.9626 c 27.39145,26.26448 -46.935993,25.05786 -51.178831,7.38343 z"
       id="path3"
       sodipodi:nodetypes="ccccc" />
    <path
       style="display:inline;fill:#000000;fill-rule:evenodd;stroke-width:0.112834"
       d="m 82.765232,137.47837 4.192173,4.5047 10.185629,3.28621 5.974016,0.21964 9.71642,-2.18802 0.98541,-2.91127 1.20841,-7.00522 2.19381,-18.19539 c 0.1685,-2.25549 -0.93624,-3.16456 -2.71002,-3.36614 -11.3714,1.59631 -23.50996,1.18366 -34.676158,3.48377 -0.463361,8.96414 1.155637,1.15297 2.93031,22.17172 z"
       id="path4-2"
       sodipodi:nodetypes="ccccccccccc" />
    <path
       style="display:inline;fill:#008080;fill-rule:evenodd;stroke-width:0.109836"
       d="m 83.100545,137.44626 4.025573,4.44524 c 0.98444,0.66874 3.228331,1.56561 9.780847,3.24283 l 5.736605,0.21674 9.33027,-2.15914 0.94625,-2.87283 1.16039,-6.91276 2.10662,-17.95522 c 0.16182,-2.22573 -0.89902,-3.1228 -2.60231,-3.32172 -10.9195,1.57524 -22.575664,1.16804 -33.298103,3.43779 -0.444947,8.84581 1.109714,1.13775 2.813858,21.87907 z"
       id="path4-1"
       sodipodi:nodetypes="ccccccccccc" />
    <path
       style="display:inline;fill:#000000;fill-rule:evenodd;stroke-width:0.118257"
       d="m 82.339634,132.63911 c 9.871178,7.71948 25.429546,3.81125 32.038476,1.66745 l -0.62793,7.07086 -0.94314,1.87085 c -10.81101,4.50847 -22.50487,4.31304 -30.098819,-4.17357 z"
       id="path5-7"
       sodipodi:nodetypes="cccccc" />
    <path
       style="display:inline;fill:#d0fc34;fill-rule:evenodd;stroke-width:0.109836"
       d="m 82.698719,133.57499 c 9.496798,6.92205 24.760151,3.40333 31.118421,1.48099 l -0.60411,6.34043 -0.90738,1.67758 c -10.40097,4.04274 -21.65133,3.8675 -28.957259,-3.74243 z"
       id="path5-1"
       sodipodi:nodetypes="cccccc" />
    <text
       xml:space="preserve"
       style="font-weight:bold;font-stretch:condensed;font-size:24.4917px;font-family:'Agency FB';-inkscape-font-specification:'Agency FB, Bold Condensed';fill:#009cf0;fill-rule:evenodd;stroke-width:0.424113"
       x="15.198882"
       y="78.012222"
       id="text1"
       transform="scale(0.78222936,1.2783974)"><tspan
         sodipodi:role="line"
         id="tspan1"
         style="stroke-width:0.424116;fill:#009cf0"
         x="15.198882"
         y="78.012222">¡¡¡E-E-Es el Señor F-F-Flint!!!!</tspan></text>
  </g>
</svg>
