<?xml version="1.0" encoding="UTF-8" standalone="no"?>
<!-- Created with Inkscape (http://www.inkscape.org/) -->

<svg
   width="210mm"
   height="297mm"
   viewBox="0 0 210 297"
   version="1.1"
   id="svg1"
   inkscape:version="1.3.2 (091e20e, 2023-11-25, custom)"
   sodipodi:docname="Goomba SSJG ataque.svg"
   xmlns:inkscape="http://www.inkscape.org/namespaces/inkscape"
   xmlns:sodipodi="http://sodipodi.sourceforge.net/DTD/sodipodi-0.dtd"
   xmlns="http://www.w3.org/2000/svg"
   xmlns:svg="http://www.w3.org/2000/svg">
  <sodipodi:namedview
     id="namedview1"
     pagecolor="#ffffff"
     bordercolor="#000000"
     borderopacity="0.25"
     inkscape:showpageshadow="2"
     inkscape:pageopacity="0.0"
     inkscape:pagecheckerboard="0"
     inkscape:deskcolor="#d1d1d1"
     inkscape:document-units="mm"
     inkscape:zoom="0.72426347"
     inkscape:cx="396.95499"
     inkscape:cy="561.25984"
     inkscape:window-width="1920"
     inkscape:window-height="1009"
     inkscape:window-x="-8"
     inkscape:window-y="-8"
     inkscape:window-maximized="1"
     inkscape:current-layer="layer1" />
  <defs
     id="defs1" />
  <g
     inkscape:label="Capa 1"
     inkscape:groupmode="layer"
     id="layer1">
    <path
       style="display:inline;fill:#000000;fill-rule:evenodd;stroke-width:0.277436"
       d="m 83.094676,167.47056 c -3.141125,4.65497 -2.56359,9.30993 -3.06864,13.9649 -6.911831,14.36539 53.993124,26.74501 36.823744,-15.4279 -10.93821,-2.01233 -21.784812,-4.75531 -33.755104,1.463 z"
       id="path6-1"
       sodipodi:nodetypes="cccc" />
    <path
       style="display:inline;fill:#d0fc34;fill-rule:evenodd;stroke-width:0.268999"
       d="m 83.510286,167.7673 c -3.0408,4.52053 -2.48171,9.04105 -2.97063,13.56158 -6.691061,13.95051 52.268554,25.97259 35.647574,-14.98232 -10.58884,-1.95421 -21.088992,-4.61797 -32.676944,1.42074 z"
       id="path6"
       sodipodi:nodetypes="cccc" />
    <path
       style="display:inline;fill:#000000;fill-rule:evenodd;stroke-width:0.286073"
       d="m 110.76509,190.16863 c 11.3931,9.58574 30.71176,8.53749 32.5245,-4.79255 -3.66037,-10.32259 -38.38618,-19.08578 -32.5245,4.79255 z"
       id="path2-5"
       sodipodi:nodetypes="ccc" />
    <path
       style="display:inline;fill:#800080;fill-rule:evenodd;stroke-width:0.268999"
       d="m 111.36407,189.82038 c 10.99407,8.78333 29.63612,7.82283 31.38537,-4.39137 -3.53217,-9.4585 -37.04175,-17.48814 -31.38537,4.39137 z"
       id="path2"
       sodipodi:nodetypes="ccc" />
    <path
       style="display:inline;fill:#000000;fill-rule:evenodd;stroke-width:0.283245"
       d="m 90.645825,189.81647 c -7.799542,10.49829 -25.185809,7.62096 -31.326642,1.51972 -1.510382,-2.02629 -1.154386,-4.05255 -0.937121,-6.07883 8.223701,-15.284 37.041373,-13.27385 32.263763,4.55911 z"
       id="path1-4"
       sodipodi:nodetypes="cccc" />
    <path
       style="display:inline;fill:#800080;fill-rule:evenodd;stroke-width:0.268999"
       d="m 90.311335,189.43291 c -7.524752,9.81457 -24.298463,7.12464 -30.222945,1.42074 -1.457169,-1.89432 -1.113715,-3.78863 -0.904105,-5.68295 7.933967,-14.28862 35.73634,-12.40937 31.12705,4.26221 z"
       id="path1"
       sodipodi:nodetypes="cccc" />
    <path
       style="display:inline;fill:#000000;fill-rule:evenodd;stroke-width:0.273637"
       d="m 83.263616,168.25259 c -12.139465,3.92251 -28.969934,3.35897 -31.502293,-11.17835 -0.689689,-7.54035 1.418597,-9.57492 6.431718,-14.59759 24.516095,-24.30722 9.109636,-30.28845 35.702597,-43.79278 31.402982,-5.133446 27.375492,25.48728 44.496982,40.50502 15.80013,13.856 13.82962,32.55096 -12.20713,31.03633 -6.93852,-4.29688 -47.762878,-3.10236 -42.921874,-1.97263 z"
       id="path3-7"
       sodipodi:nodetypes="ccccccc" />
    <path
       style="display:inline;fill:#006400;fill-rule:evenodd;stroke-width:0.268999"
       d="m 83.381126,167.7673 c -11.945091,3.85238 -28.506077,3.29891 -30.997888,-10.97842 -0.678647,-7.40551 1.395882,-9.40367 6.328735,-14.33652 24.123553,-23.87251 8.963776,-29.74676 35.130945,-43.009579 30.900172,-5.041639 26.937172,25.031459 43.784522,39.780629 15.54713,13.6082 13.60817,31.9688 -12.01168,30.48126 -6.82743,-4.22004 -46.998124,-3.04688 -42.234634,-1.93737 z"
       id="path3"
       sodipodi:nodetypes="ccccccc" />
    <path
       style="display:inline;fill:#000000;fill-rule:evenodd;stroke-width:0.273519"
       d="m 112.62496,120.72807 5.26033,0.89563 c 21.07134,23.59591 -10.55389,50.27872 -15.49895,9.48093 2.91423,-4.68691 5.88224,-7.30565 10.23862,-10.37656 z"
       id="path4-0"
       sodipodi:nodetypes="cccc" />
    <path
       style="display:inline;fill:#000000;fill-rule:evenodd;stroke-width:0.278157"
       d="m 87.642858,121.02836 -5.485162,0.88829 c -21.971938,23.40258 11.004962,49.86676 16.161382,9.40325 -3.03878,-4.64852 -6.13365,-7.2458 -10.67622,-10.29154 z"
       id="path4-2"
       sodipodi:nodetypes="cccc" />
    <path
       style="display:inline;fill:#ffffff;fill-rule:evenodd;stroke-width:0.268999"
       d="m 87.608198,121.43745 -5.260332,0.86627 c -21.071334,22.82259 10.553892,48.63091 15.498952,9.17021 -2.91423,-4.53331 -5.88224,-7.06622 -10.23862,-10.03648 z"
       id="path4"
       sodipodi:nodetypes="cccc" />
    <ellipse
       style="display:inline;fill:#000000;fill-opacity:1;fill-rule:evenodd;stroke-width:0.259848"
       id="path5-0-6-0"
       cx="92.657318"
       cy="132.27528"
       rx="4.2133002"
       ry="5.5694585" />
    <ellipse
       style="display:inline;fill:#ff0000;fill-opacity:1;fill-rule:evenodd;stroke-width:0.244999"
       id="path5-0-0"
       cx="92.657112"
       cy="132.27562"
       rx="3.9393153"
       ry="5.2954731" />
    <ellipse
       style="display:inline;fill:#000000;fill-opacity:1;fill-rule:evenodd;stroke-width:0.131589"
       id="path5-0-6-5-0"
       cx="92.893051"
       cy="132.10103"
       rx="2.0442505"
       ry="2.9437666" />
    <path
       style="display:inline;fill:#ffffff;fill-rule:evenodd;stroke-width:0.268999"
       d="m 112.98446,121.18426 4.5297,0.61714 c 21.07134,22.82258 -9.64195,49.19051 -14.58701,9.72982 2.91423,-4.53332 5.70093,-7.3767 10.05731,-10.34696 z"
       id="path4-1"
       sodipodi:nodetypes="cccc" />
    <ellipse
       style="display:inline;fill:#000000;fill-opacity:1;fill-rule:evenodd;stroke-width:0.259848"
       id="path5-0-6"
       cx="-108.27914"
       cy="132.26285"
       rx="4.2133002"
       ry="5.5694585"
       transform="scale(-1,1)" />
    <ellipse
       style="display:inline;fill:#ff0000;fill-opacity:1;fill-rule:evenodd;stroke-width:0.244999"
       id="path5-0"
       cx="-108.27936"
       cy="132.2632"
       rx="3.9393153"
       ry="5.2954731"
       transform="scale(-1,1)" />
    <ellipse
       style="display:inline;fill:#000000;fill-opacity:1;fill-rule:evenodd;stroke-width:0.131589"
       id="path5-0-6-5"
       cx="-108.04343"
       cy="132.08859"
       rx="2.0442505"
       ry="2.9437666"
       transform="scale(-1,1)" />
    <path
       style="display:inline;fill:#000000;fill-opacity:1;fill-rule:evenodd;stroke-width:0.268999"
       id="path8"
       d="m 78.171159,159.45153 c 0.590262,-0.35102 1.039249,-0.90323 1.627444,-1.25511 1.233623,-0.73799 2.486673,-1.44302 3.730003,-2.16454 1.05084,-0.47286 2.13913,-0.84541 3.265052,-1.08786 1.31285,-0.22058 2.65638,-0.15507 3.983,-0.1575 1.62047,-0.003 3.24084,-0.0214 4.86121,-0.0376 0.99061,-0.0169 1.98131,-0.0243 2.972,-0.0335 0.82098,0.0127 1.641982,-0.002 2.462972,-0.004 0.71843,-0.01 1.43492,-0.007 2.15181,0.0404 0.77799,0.13791 1.55514,0.24993 2.34415,0.30268 0.84336,0.0222 1.68351,0.0957 2.52595,0.13774 0.79141,0.0278 1.58355,0.0355 2.37542,0.0403 0.84283,-0.008 1.6874,0.0328 2.52671,0.10967 0.87954,0.11656 1.74482,0.31854 2.61741,0.47709 0.69194,0.1518 1.38644,0.31021 2.05525,0.546 0.51228,0.18898 1.00761,0.41525 1.50186,0.6464 0.50521,0.26269 1.0653,0.37106 1.60068,0.55092 0.51688,0.12579 0.99893,0.35195 1.49368,0.54058 0.5589,0.2437 1.11576,0.49122 1.65786,0.77069 0.41669,0.17768 0.79851,0.40965 1.14363,0.70155 0.24065,0.19625 0.46114,0.40761 0.65842,0.64786 0,0 -3.34703,2.01868 -3.34703,2.01868 v 0 c -0.19592,-0.21201 -0.40986,-0.4036 -0.62874,-0.59169 -0.32413,-0.2647 -0.68591,-0.46596 -1.05746,-0.65717 -0.53366,-0.2783 -1.08324,-0.52457 -1.64888,-0.73096 -0.48258,-0.2016 -0.97416,-0.37608 -1.47602,-0.52386 -0.55025,-0.17812 -1.10843,-0.33824 -1.63341,-0.58495 -0.48024,-0.22596 -0.96216,-0.45092 -1.46479,-0.62365 -0.64626,-0.22422 -1.30803,-0.39677 -1.97817,-0.53409 -0.85346,-0.18658 -1.71263,-0.36151 -2.58294,-0.44703 -0.83911,-0.058 -1.67855,-0.0905 -2.51987,-0.0795 -0.79366,-0.004 -1.58727,-0.0101 -2.37975,-0.0588 -0.83944,-0.0444 -1.67796,-0.10573 -2.51714,-0.15494 -0.80068,-0.0663 -1.59492,-0.16841 -2.39176,-0.26406 -0.705832,-0.0453 -1.412402,-0.0303 -2.119342,-0.0331 -0.81728,-0.002 -1.63455,-0.0166 -2.45182,-0.005 -0.95708,-0.0102 -1.91412,-0.0198 -2.87106,-0.0402 -1.59048,-0.0209 -3.18121,-0.0461 -4.77181,-0.0211 -1.36931,0.0321 -2.751832,0.0494 -4.096582,0.33878 -1.08291,0.25986 -2.14762,0.60316 -3.13565,1.1257 5.813602,-3.40209 2.91611,-1.7896 2.17551,-1.22879 -0.35443,0.26839 -0.643,0.6077 -0.99609,0.8769 z" />
    <path
       style="display:inline;fill:#000000;fill-rule:evenodd;stroke-width:0.268999"
       d="m 72.338132,108.29009 3.745576,-1.29157 c 3.33803,2.36814 5.147638,6.07705 7.361998,9.42852 l 5.166322,7.62032 3.48726,3.3581 4.13305,3.22895 c 3.37359,1.61134 4.840972,1.60777 7.749472,0.25831 l 6.71621,-5.42463 4.64969,-7.10368 4.13305,-6.4579 4.26221,-4.52052 3.87474,0.9041 c -2.96396,-5.00263 -4.99198,-4.16594 -9.25886,-2.74365 l -5.85262,10.36397 -3.87473,8.2661 c -9.383402,9.62631 -5.6029,-0.66201 -6.32874,-4.13305 l -3.745582,0.12916 c -1.31366,2.73827 4.591092,15.00485 -7.62031,3.3581 -6.510742,-14.3236 -12.212343,-24.575024 -18.598736,-15.24063 z"
       id="path7"
       sodipodi:nodetypes="ccccccccccccccccccc" />
    <path
       style="display:inline;fill:#000000;fill-rule:evenodd;stroke-width:0.107412"
       d="m 75.20821,98.336287 c 2.48209,-4.15289 6.119336,-5.844387 10.274726,-8.142588 8.880652,-6.829767 16.999474,-5.927546 27.364334,-3.551608 l 5.66159,3.348659 c 23.17496,29.68693 -39.71093,28.32307 -43.30065,8.345537 z"
       id="path3-9"
       sodipodi:nodetypes="ccccc" />
    <path
       style="display:inline;fill:#008080;fill-rule:evenodd;stroke-width:0.104498"
       d="m 75.705635,98.332279 c 2.415513,-4.038991 5.955191,-5.684095 9.999131,-7.91926 8.642442,-6.642448 16.543494,-5.764973 26.630334,-3.454199 l 5.50973,3.256817 c 22.55334,28.872703 -38.645763,27.546253 -42.139195,8.116642 z"
       id="path3-6"
       sodipodi:nodetypes="ccccc" />
    <path
       style="display:inline;fill:#000000;fill-rule:evenodd;stroke-width:0.107348"
       d="m 85.326646,90.941782 3.451712,4.952043 8.38656,3.612547 4.918832,0.241449 8.00022,-2.405303 0.81136,-3.200368 0.99497,-7.700892 1.80633,-20.002295 c 0.13873,-2.479483 -0.77088,-3.478828 -2.23135,-3.700425 -9.3629,1.754833 -19.357442,1.301203 -28.551364,3.829729 -0.38153,9.854331 0.95151,1.267466 2.41273,24.373515 z"
       id="path4-2-2"
       sodipodi:nodetypes="ccccccccccc" />
    <path
       style="display:inline;fill:#008080;fill-rule:evenodd;stroke-width:0.104498"
       d="m 85.602736,90.906476 3.314532,4.886681 c 0.81057,0.735159 2.65813,1.72108 8.05328,3.564862 l 4.723352,0.238262 7.68228,-2.373553 0.77912,-3.158124 0.95542,-7.599242 1.73454,-19.738281 c 0.13323,-2.446756 -0.74023,-3.432911 -2.14267,-3.651583 -8.99081,1.73167 -18.588152,1.284029 -27.416704,3.77918 -0.36636,9.72426 0.9137,1.250736 2.31685,24.051798 z"
       id="path4-08"
       sodipodi:nodetypes="ccccccccccc" />
    <path
       style="display:inline;fill:#000000;fill-rule:evenodd;stroke-width:0.112507"
       d="m 84.976216,85.621944 c 8.127652,8.486069 20.937974,4.189743 26.379574,1.833042 l -0.51702,7.773047 -0.77656,2.05663 c -8.90147,4.956187 -18.529872,4.741347 -24.782504,-4.58803 z"
       id="path5-7"
       sodipodi:nodetypes="cccccc" />
    <path
       style="display:inline;fill:#d0fc34;fill-rule:evenodd;stroke-width:0.104498"
       d="m 85.271876,86.650775 c 7.819402,7.609446 20.386804,3.741292 25.622024,1.628045 l -0.4974,6.970081 -0.74711,1.844175 c -8.56387,4.444204 -17.827092,4.251564 -23.842592,-4.11408 z"
       id="path5"
       sodipodi:nodetypes="cccccc" />
  </g>
</svg>
