<?xml version="1.0" encoding="UTF-8" standalone="no"?>
<!-- Created with Inkscape (http://www.inkscape.org/) -->

<svg
   width="210mm"
   height="297mm"
   viewBox="0 0 210 297"
   version="1.1"
   id="svg1"
   xml:space="preserve"
   inkscape:version="1.3.2 (091e20e, 2023-11-25, custom)"
   sodipodi:docname="Goomba SSJG.svg"
   xmlns:inkscape="http://www.inkscape.org/namespaces/inkscape"
   xmlns:sodipodi="http://sodipodi.sourceforge.net/DTD/sodipodi-0.dtd"
   xmlns="http://www.w3.org/2000/svg"
   xmlns:svg="http://www.w3.org/2000/svg"><sodipodi:namedview
     id="namedview1"
     pagecolor="#ffffff"
     bordercolor="#000000"
     borderopacity="0.25"
     inkscape:showpageshadow="2"
     inkscape:pageopacity="0.0"
     inkscape:pagecheckerboard="0"
     inkscape:deskcolor="#d1d1d1"
     inkscape:document-units="mm"
     inkscape:zoom="1.0242632"
     inkscape:cx="388.572"
     inkscape:cy="348.05507"
     inkscape:window-width="1920"
     inkscape:window-height="1009"
     inkscape:window-x="-8"
     inkscape:window-y="-8"
     inkscape:window-maximized="1"
     inkscape:current-layer="layer1" /><defs
     id="defs1" /><g
     inkscape:label="Capa 1"
     inkscape:groupmode="layer"
     id="layer1"
     style="display:inline"><path
       style="display:inline;fill:#000000;fill-rule:evenodd;stroke-width:0.286073"
       d="m 129.97963,161.53728 c 11.3931,9.58574 30.71176,8.53749 32.5245,-4.79255 -3.66037,-10.32259 -38.38618,-19.08578 -32.5245,4.79255 z"
       id="path2-5"
       sodipodi:nodetypes="ccc" /><path
       style="display:inline;fill:#800080;fill-rule:evenodd;stroke-width:0.268999"
       d="m 130.57861,161.18903 c 10.99407,8.78333 29.63612,7.82283 31.38537,-4.39137 -3.53217,-9.4585 -37.04175,-17.48814 -31.38537,4.39137 z"
       id="path2"
       sodipodi:nodetypes="ccc" /><path
       style="display:inline;fill:#000000;fill-rule:evenodd;stroke-width:0.283245"
       d="m 109.86037,161.18512 c -7.79954,10.49829 -25.185807,7.62096 -31.32664,1.51972 -1.510382,-2.02629 -1.154386,-4.05255 -0.937121,-6.07883 8.223701,-15.284 37.041371,-13.27385 32.263761,4.55911 z"
       id="path1-4"
       sodipodi:nodetypes="cccc" /><path
       style="display:inline;fill:#800080;fill-rule:evenodd;stroke-width:0.268999"
       d="m 109.52588,160.80156 c -7.52475,9.81457 -24.298461,7.12464 -30.222943,1.42074 -1.457169,-1.89432 -1.113715,-3.78863 -0.904105,-5.68295 7.933967,-14.28862 35.736338,-12.40937 31.127048,4.26221 z"
       id="path1"
       sodipodi:nodetypes="cccc" /><path
       style="display:inline;fill:#000000;fill-rule:evenodd;stroke-width:0.277436"
       d="m 103.03985,132.99419 c -3.141125,4.65497 -2.56359,9.30993 -3.06864,13.9649 -6.911831,14.36539 53.99312,26.74501 36.82374,-15.4279 -10.93821,-2.01233 -21.78481,-4.75531 -33.7551,1.463 z"
       id="path6-1"
       sodipodi:nodetypes="cccc" /><path
       style="display:inline;fill:#d0fc34;fill-rule:evenodd;stroke-width:0.268999"
       d="m 103.45546,133.29093 c -3.0408,4.52053 -2.48171,9.04105 -2.97063,13.56158 -6.691061,13.95051 52.26855,25.97259 35.64757,-14.98232 -10.58884,-1.95421 -21.08899,-4.61797 -32.67694,1.42074 z"
       id="path6"
       sodipodi:nodetypes="cccc" /><path
       style="display:inline;fill:#000000;fill-rule:evenodd;stroke-width:0.273637"
       d="m 103.20879,133.77622 c -12.139465,3.92251 -28.969934,3.35897 -31.502293,-11.17835 -0.689689,-7.54035 1.418597,-9.57492 6.431718,-14.59759 24.516095,-24.307221 9.109636,-30.288443 35.702595,-43.792778 31.40298,-5.133446 27.37549,25.48728 44.49698,40.505018 15.80013,13.856 13.82962,32.55096 -12.20713,31.03633 -6.93852,-4.29688 -47.762874,-3.10236 -42.92187,-1.97263 z"
       id="path3-7"
       sodipodi:nodetypes="ccccccc" /><path
       style="fill:#006400;fill-rule:evenodd;stroke-width:0.268999"
       d="m 103.3263,133.29093 c -11.945091,3.85238 -28.506077,3.29891 -30.997888,-10.97842 -0.678647,-7.40551 1.395882,-9.40367 6.328735,-14.33652 24.123553,-23.872504 8.963776,-29.746755 35.130943,-43.009577 30.90017,-5.041639 26.93717,25.031461 43.78452,39.780627 15.54713,13.6082 13.60817,31.9688 -12.01168,30.48126 -6.82743,-4.22004 -46.99812,-3.04688 -42.23463,-1.93737 z"
       id="path3"
       sodipodi:nodetypes="ccccccc" /><path
       style="display:inline;fill:#000000;fill-rule:evenodd;stroke-width:0.273519"
       d="m 132.57013,86.251706 5.26033,0.895627 c 21.07134,23.595907 -10.55389,50.278717 -15.49895,9.480934 2.91423,-4.686919 5.88224,-7.305655 10.23862,-10.376561 z"
       id="path4-0"
       sodipodi:nodetypes="cccc" /><path
       style="display:inline;fill:#000000;fill-rule:evenodd;stroke-width:0.278157"
       d="m 107.58803,86.551991 -5.48516,0.888288 c -21.971938,23.402581 11.00496,49.866761 16.16138,9.403253 -3.03878,-4.648518 -6.13365,-7.245796 -10.67622,-10.291541 z"
       id="path4-2"
       sodipodi:nodetypes="cccc" /><path
       style="display:inline;fill:#ffffff;fill-rule:evenodd;stroke-width:0.268999"
       d="m 107.55337,86.961083 -5.26033,0.866274 c -21.071334,22.822583 10.55389,48.630903 15.49895,9.170209 -2.91423,-4.533312 -5.88224,-7.066222 -10.23862,-10.036483 z"
       id="path4"
       sodipodi:nodetypes="cccc" /><ellipse
       style="display:inline;fill:#000000;fill-opacity:1;fill-rule:evenodd;stroke-width:0.259848"
       id="path5-0-6-0"
       cx="112.60249"
       cy="97.798912"
       rx="4.2133002"
       ry="5.5694585" /><ellipse
       style="display:inline;fill:#ff0000;fill-opacity:1;fill-rule:evenodd;stroke-width:0.244999"
       id="path5-0-0"
       cx="112.60229"
       cy="97.799255"
       rx="3.9393153"
       ry="5.2954731" /><ellipse
       style="display:inline;fill:#000000;fill-opacity:1;fill-rule:evenodd;stroke-width:0.131589"
       id="path5-0-6-5-0"
       cx="112.83823"
       cy="97.624664"
       rx="2.0442505"
       ry="2.9437666" /><path
       style="display:inline;fill:#ffffff;fill-rule:evenodd;stroke-width:0.268999"
       d="m 132.92963,86.707895 4.5297,0.617138 c 21.07134,22.822577 -9.64195,49.190507 -14.58701,9.729816 2.91423,-4.533312 5.70093,-7.376693 10.05731,-10.346954 z"
       id="path4-1"
       sodipodi:nodetypes="cccc" /><ellipse
       style="display:inline;fill:#000000;fill-opacity:1;fill-rule:evenodd;stroke-width:0.259848"
       id="path5-0-6"
       cx="-128.22432"
       cy="97.786476"
       rx="4.2133002"
       ry="5.5694585"
       transform="scale(-1,1)" /><ellipse
       style="display:inline;fill:#ff0000;fill-opacity:1;fill-rule:evenodd;stroke-width:0.244999"
       id="path5-0"
       cx="-128.22453"
       cy="97.786819"
       rx="3.9393153"
       ry="5.2954731"
       transform="scale(-1,1)" /><ellipse
       style="display:inline;fill:#000000;fill-opacity:1;fill-rule:evenodd;stroke-width:0.131589"
       id="path5-0-6-5"
       cx="-127.9886"
       cy="97.612228"
       rx="2.0442505"
       ry="2.9437666"
       transform="scale(-1,1)" /><path
       style="fill:#000000;fill-opacity:1;fill-rule:evenodd;stroke-width:0.268999"
       id="path8"
       d="m 98.116333,121.9249 c 0.590262,0.35102 1.039249,0.90323 1.627444,1.25511 1.233623,0.73799 2.486673,1.44302 3.730003,2.16454 1.05084,0.47286 2.13913,0.84541 3.26505,1.08786 1.31285,0.22058 2.65638,0.15507 3.983,0.1575 1.62047,0.003 3.24084,0.0214 4.86121,0.0376 0.99061,0.0169 1.98131,0.0243 2.972,0.0335 0.82098,-0.0127 1.64198,0.002 2.46297,0.004 0.71843,0.01 1.43492,0.007 2.15181,-0.0404 0.77799,-0.13791 1.55514,-0.24993 2.34415,-0.30268 0.84336,-0.0222 1.68351,-0.0957 2.52595,-0.13774 0.79141,-0.0278 1.58355,-0.0355 2.37542,-0.0403 0.84283,0.008 1.6874,-0.0328 2.52671,-0.10967 0.87954,-0.11656 1.74482,-0.31854 2.61741,-0.47709 0.69194,-0.1518 1.38644,-0.31021 2.05525,-0.546 0.51228,-0.18898 1.00761,-0.41525 1.50186,-0.6464 0.50521,-0.26269 1.0653,-0.37106 1.60068,-0.55092 0.51688,-0.12579 0.99893,-0.35195 1.49368,-0.54058 0.5589,-0.2437 1.11576,-0.49122 1.65786,-0.77069 0.41669,-0.17768 0.79851,-0.40965 1.14363,-0.70155 0.24065,-0.19625 0.46114,-0.40761 0.65842,-0.64786 0,0 -3.34703,-2.01868 -3.34703,-2.01868 v 0 c -0.19592,0.21201 -0.40986,0.4036 -0.62874,0.59169 -0.32413,0.2647 -0.68591,0.46596 -1.05746,0.65717 -0.53366,0.2783 -1.08324,0.52457 -1.64888,0.73096 -0.48258,0.2016 -0.97416,0.37608 -1.47602,0.52386 -0.55025,0.17812 -1.10843,0.33824 -1.63341,0.58495 -0.48024,0.22596 -0.96216,0.45092 -1.46479,0.62365 -0.64626,0.22422 -1.30803,0.39677 -1.97817,0.53409 -0.85346,0.18658 -1.71263,0.36151 -2.58294,0.44703 -0.83911,0.058 -1.67855,0.0905 -2.51987,0.0795 -0.79366,0.004 -1.58727,0.0101 -2.37975,0.0588 -0.83944,0.0444 -1.67796,0.10573 -2.51714,0.15494 -0.80068,0.0663 -1.59492,0.16841 -2.39176,0.26406 -0.70583,0.0453 -1.4124,0.0303 -2.11934,0.0331 -0.81728,0.002 -1.63455,0.0166 -2.45182,0.005 -0.95708,0.0102 -1.91412,0.0198 -2.87106,0.0402 -1.59048,0.0209 -3.18121,0.0461 -4.77181,0.0211 -1.36931,-0.0321 -2.75183,-0.0494 -4.09658,-0.33878 -1.08291,-0.25986 -2.14762,-0.60316 -3.13565,-1.1257 5.8136,3.40209 2.91611,1.7896 2.17551,1.22879 -0.35443,-0.26839 -0.643,-0.6077 -0.99609,-0.8769 z" /><path
       style="fill:#000000;fill-rule:evenodd;stroke-width:0.268999"
       d="m 92.283306,73.813727 3.745576,-1.291579 c 3.33803,2.368149 5.147638,6.077056 7.361998,9.428527 l 5.16632,7.620315 3.48726,3.358105 4.13305,3.228946 c 3.37359,1.611337 4.84097,1.607773 7.74947,0.258315 l 6.71621,-5.42463 4.64969,-7.103684 4.13305,-6.457895 4.26221,-4.520525 3.87474,0.904105 c -2.96396,-5.002634 -4.99198,-4.165946 -9.25886,-2.743654 l -5.85262,10.363969 -3.87473,8.266104 c -9.3834,9.626303 -5.6029,-0.662018 -6.32874,-4.133051 l -3.74558,0.129157 c -1.31366,2.738268 4.59109,15.004848 -7.62031,3.358105 C 104.3713,74.730754 98.669699,64.479328 92.283306,73.813727 Z"
       id="path7"
       sodipodi:nodetypes="ccccccccccccccccccc" /><path
       style="display:inline;fill:#000000;fill-rule:evenodd;stroke-width:0.107412"
       d="m 95.153384,63.859919 c 2.48209,-4.15289 6.119336,-5.844387 10.274726,-8.142588 8.88065,-6.829767 16.99947,-5.927546 27.36433,-3.551608 l 5.66159,3.348659 c 23.17496,29.686929 -39.710926,28.323069 -43.300646,8.345537 z"
       id="path3-9"
       sodipodi:nodetypes="ccccc" /><path
       style="display:inline;fill:#008080;fill-rule:evenodd;stroke-width:0.104498"
       d="m 95.650809,63.855911 c 2.415513,-4.038991 5.955191,-5.684095 9.999131,-7.91926 8.64244,-6.642448 16.54349,-5.764973 26.63033,-3.454199 l 5.50973,3.256817 c 22.55334,28.872702 -38.645759,27.546252 -42.139191,8.116642 z"
       id="path3-6"
       sodipodi:nodetypes="ccccc" /><path
       style="display:inline;fill:#000000;fill-rule:evenodd;stroke-width:0.107348"
       d="m 105.27182,56.465414 3.45171,4.952043 8.38656,3.612547 4.91883,0.241449 8.00022,-2.405303 0.81136,-3.200368 0.99497,-7.700892 1.80633,-20.002295 c 0.13873,-2.479483 -0.77088,-3.478828 -2.23135,-3.700425 -9.3629,1.754833 -19.35744,1.301203 -28.55136,3.829729 -0.38153,9.854331 0.95151,1.267466 2.41273,24.373515 z"
       id="path4-2-2"
       sodipodi:nodetypes="ccccccccccc" /><path
       style="display:inline;fill:#008080;fill-rule:evenodd;stroke-width:0.104498"
       d="m 105.54791,56.430108 3.31453,4.886681 c 0.81057,0.735159 2.65813,1.72108 8.05328,3.564862 l 4.72335,0.238262 7.68228,-2.373553 0.77912,-3.158124 0.95542,-7.599242 1.73454,-19.738281 c 0.13323,-2.446756 -0.74023,-3.432911 -2.14267,-3.651583 -8.99081,1.73167 -18.58815,1.284029 -27.4167,3.77918 -0.36636,9.72426 0.9137,1.250736 2.31685,24.051798 z"
       id="path4-08"
       sodipodi:nodetypes="ccccccccccc" /><path
       style="display:inline;fill:#000000;fill-rule:evenodd;stroke-width:0.112507"
       d="m 104.92139,51.145576 c 8.12765,8.486069 20.93797,4.189743 26.37957,1.833042 l -0.51702,7.773047 -0.77656,2.05663 c -8.90147,4.956188 -18.52987,4.74135 -24.7825,-4.58803 z"
       id="path5-7"
       sodipodi:nodetypes="cccccc" /><path
       style="display:inline;fill:#d0fc34;fill-rule:evenodd;stroke-width:0.104498"
       d="m 105.21705,52.174407 c 7.8194,7.609446 20.3868,3.741292 25.62202,1.628045 l -0.4974,6.970081 -0.74711,1.844175 c -8.56387,4.444209 -17.82709,4.251564 -23.84259,-4.11408 z"
       id="path5"
       sodipodi:nodetypes="cccccc" /></g></svg>
