<?xml version="1.0" encoding="UTF-8" standalone="no"?>
<!-- Created with Inkscape (http://www.inkscape.org/) -->

<svg
   width="210mm"
   height="297mm"
   viewBox="0 0 210 297"
   version="1.1"
   id="svg1"
   inkscape:version="1.3.2 (091e20e, 2023-11-25, custom)"
   sodipodi:docname="Ojo Diabolicote vuelo 3.svg"
   xmlns:inkscape="http://www.inkscape.org/namespaces/inkscape"
   xmlns:sodipodi="http://sodipodi.sourceforge.net/DTD/sodipodi-0.dtd"
   xmlns="http://www.w3.org/2000/svg"
   xmlns:svg="http://www.w3.org/2000/svg">
  <sodipodi:namedview
     id="namedview1"
     pagecolor="#ffffff"
     bordercolor="#000000"
     borderopacity="0.25"
     inkscape:showpageshadow="2"
     inkscape:pageopacity="0.0"
     inkscape:pagecheckerboard="0"
     inkscape:deskcolor="#d1d1d1"
     inkscape:document-units="mm"
     inkscape:zoom="0.72426347"
     inkscape:cx="396.95499"
     inkscape:cy="561.25984"
     inkscape:window-width="1920"
     inkscape:window-height="1009"
     inkscape:window-x="-8"
     inkscape:window-y="-8"
     inkscape:window-maximized="1"
     inkscape:current-layer="layer1" />
  <defs
     id="defs1" />
  <g
     inkscape:label="Capa 1"
     inkscape:groupmode="layer"
     id="layer1">
    <path
       style="fill:#000000;fill-opacity:1;fill-rule:evenodd;stroke-width:0.350105"
       d="m 64.496827,154.91235 c -7.109349,0.0936 -16.446615,0.40991 -33.363799,16.41015 1.79213,-9.32439 1.222207,-12.95136 -3.805187,-18.19534 l -7.525689,-2.66652 c -4.519656,0.2955 -9.12751,0.88733 -13.6404176,1.28351 C 11.631285,135.00118 1.3171635,122.41968 -8,110.80939 c 28.238215,16.62153 52.183672,-13.503995 59.223438,0.0642 0.754928,4.6946 0.653573,1.33081 -3.087381,3.31467 l 6.346403,7.34168 4.806167,4.15298 4.566256,2.36701 4.02978,1.55365 c 0.708618,8.452 -1.884037,16.99832 -3.387836,25.30877 z"
       id="path19-6-5"
       sodipodi:nodetypes="ccccccccccccc" />
    <path
       style="fill:#000000;fill-opacity:1;fill-rule:evenodd;stroke-width:0.350105"
       d="m 136.02628,148.50836 c 6.71085,2.34861 16.16303,5.25938 27.11678,25.80724 1.26478,-9.41045 2.25829,-12.31097 8.69186,-15.68489 l 7.98296,-0.13602 c 4.1913,1.71684 8.37204,3.74268 12.52496,5.55283 0.13623,-17.61319 13.91468,-26.26359 26.43919,-34.31003 -32.0571,6.78333 -45.1846,-29.39126 -56.17215,-18.76456 -2.20806,4.21114 -1.04271,1.05404 1.87361,4.12413 l -8.35094,4.94358 -5.87702,2.40983 -5.08182,0.79278 -4.31463,0.1921 c -3.35852,7.78838 -3.61696,16.71558 -4.8328,25.07301 z"
       id="path19-6"
       sodipodi:nodetypes="ccccccccccccc" />
    <path
       style="fill:#de8787;fill-opacity:1;fill-rule:evenodd;stroke-width:0.32629"
       d="m 138.27038,147.55044 c 6.32538,2.23942 14.07831,5.37474 24.56941,24.49145 1.09395,-8.69243 3.1504,-11.71421 9.15837,-14.77112 l 7.49523,-0.0463 c 3.95305,1.6299 7.89925,3.54555 11.81718,5.26138 -0.0475,-16.29154 12.80528,-24.15622 24.48652,-31.47472 -30.0364,5.95545 -42.72448,-27.63826 -52.93672,-17.91762 2.29648,1.78108 5.85766,2.81249 -0.23778,4.71694 l -5.75462,3.60652 -5.49493,2.17063 -4.76432,0.68273 -4.04983,0.13472 c -3.0763,7.17111 -3.23005,15.42654 -4.28856,23.14537 z"
       id="path19"
       sodipodi:nodetypes="ccccccccccccc" />
    <path
       style="fill:#000000;fill-opacity:1;fill-rule:evenodd;stroke-width:0.284152"
       d="m 216.07069,131.02909 c -1.43788,1.66196 -4.49953,3.22157 -6.74929,4.83234 l -11.63706,-2.4985 -11.25072,-5.03799 -10.71252,-8.06957 -5.86963,-3.0453 -3.32236,2.61455 -10.45503,5.99215 -15.25393,4.47278 -0.41802,-1.98639 -0.44188,-1.14257 14.0178,-2.8879 9.9777,-6.46814 c 3.42391,-1.62949 -0.44009,-2.7191 -1.3776,-4.0255 3.2964,-3.07593 3.80393,-2.52013 7.85927,-1.28816 3.01452,1.6262 6.51366,4.69376 9.94398,7.55664 11.65324,9.43165 19.7671,12.82208 35.68921,10.98157 z"
       id="path20-4"
       sodipodi:nodetypes="ccccccccccccccccc" />
    <path
       style="fill:#ff00ff;fill-opacity:1;fill-rule:evenodd;stroke-width:0.268999"
       d="m 215.70178,130.94781 c -1.3381,1.47587 -4.26273,2.79564 -6.39409,4.19345 l -11.43724,-2.74436 -11.1574,-5.06852 -10.74835,-7.84007 -5.83682,-3.02829 -3.13854,2.28143 -9.96173,5.12045 -14.69685,3.53835 -0.48301,-1.84537 -0.47418,-1.06914 13.55242,-2.12577 9.47837,-5.57702 c 3.27501,-1.37034 -0.53249,-2.52105 -1.49602,-3.75994 3.09566,-2.70734 3.61149,-2.17612 7.61097,-0.887 3,1.61257 6.5273,4.57101 9.97972,7.33837 11.71707,9.13037 19.75439,12.56202 35.20275,11.47343 z"
       id="path20"
       sodipodi:nodetypes="ccccccccccccccccc" />
    <path
       style="fill:#de8787;fill-opacity:1;fill-rule:evenodd;stroke-width:0.32629"
       d="m 63.180938,153.40387 c -6.709139,0.11264 -15.0566,0.62088 -31.080205,15.41127 1.725858,-8.58931 0.736585,-12.10805 -3.988054,-16.91617 l -7.091786,-2.42641 c -4.266117,0.2888 -8.616568,0.85071 -12.8766964,1.23215 C 13.367889,135.27327 3.681649,123.73095 -5.0674051,113.0789 21.51806,128.27317 44.226532,100.455 50.819207,112.91767 c -2.743539,0.9587 -6.447873,0.80462 -1.273977,4.54785 l 4.309729,5.24869 4.519952,3.80473 4.300194,2.16175 3.796958,1.41506 c 0.637257,7.77704 -1.841116,15.65315 -3.291125,23.30812 z"
       id="path19-9"
       sodipodi:nodetypes="ccccccccccccc" />
    <path
       style="fill:#000000;fill-opacity:1;fill-rule:evenodd;stroke-width:0.425434"
       d="M 31.648775,168.84706 48.032623,145.82803 32.573946,168.77552 Z"
       id="path21-5-9"
       sodipodi:nodetypes="cccc" />
    <path
       style="fill:#000000;fill-opacity:1;fill-rule:evenodd;stroke-width:0.284152"
       d="m -5.2647622,113.03793 c 0.8350077,2.03282 3.2421007,4.48473 4.8631625,6.72711 l 11.8276897,1.33017 12.268621,-1.20041 12.722002,-4.24582 6.533198,-1.02157 2.318958,3.53502 8.008033,9.00472 13.041006,9.08955 1.027683,-1.75051 0.782145,-0.94285 -12.372767,-7.19396 -7.404167,-9.30427 c -2.728345,-2.63336 1.281602,-2.43819 2.585754,-3.37884 -2.147684,-3.96421 -2.805561,-3.59857 -7.04219,-3.71958 -3.375088,0.58361 -7.667819,2.3798 -11.830263,4.0038 -14.046854,5.23823 -22.8176154,5.87367 -37.3288652,-0.93256 z"
       id="path20-4-0"
       sodipodi:nodetypes="ccccccccccccccccc" />
    <path
       style="fill:#ff00ff;fill-opacity:1;fill-rule:evenodd;stroke-width:0.268999"
       d="m -4.9569101,113.04915 c 0.7995644,1.82468 3.1529975,4.00565 4.7294862,6.00845 l 11.7163849,1.03354 12.189847,-1.25901 12.682999,-4.01684 6.496706,-1.01587 2.250556,3.16074 7.817399,8.02143 12.809849,8.02652 1.044548,-1.59613 0.789454,-0.86295 -12.173799,-6.32342 -7.213992,-8.30066 c -2.669574,-2.34031 1.306265,-2.22102 2.61361,-3.08939 -2.074515,-3.55094 -2.732451,-3.21124 -6.934258,-3.26032 -3.357024,0.57529 -7.641752,2.25916 -11.794794,3.78552 -14.011636,4.93227 -22.7229154,5.63111 -37.0239961,-0.31161 z"
       id="path20-8"
       sodipodi:nodetypes="ccccccccccccccccc" />
    <ellipse
       style="fill:#000000;fill-opacity:1;fill-rule:evenodd;stroke-width:0.232241"
       id="path22"
       cx="-104.57594"
       cy="146.13469"
       rx="41.586716"
       ry="42.134686"
       transform="scale(-1,1)" />
    <path
       id="path1"
       style="fill:#e6e6e6;fill-rule:evenodd;stroke-width:0.268827"
       d="m 104.6629,106.00003 a 40.500089,39.999896 0 0 1 40.49974,39.99974 40.500089,39.999896 0 0 1 -40.49974,40.00026 40.500089,39.999896 0 0 1 -40.500245,-40.00026 40.500089,39.999896 0 0 1 40.500245,-39.99974 z m -6.299879,29.68046 c -0.0482,-0.001 -0.0979,-0.001 -0.14917,0 -0.51936,0.0122 -0.99719,0.22963 -1.46581,0.43199 -0.51524,0.22406 -0.99941,0.50388 -1.45652,0.82937 -0.3971,0.29364 -0.75777,0.62201 -1.05342,1.01798 -0.29295,0.44033 -0.41476,0.95188 -0.50065,1.46599 -0.0805,0.46016 -0.0858,0.92138 -0.0289,1.38382 0.0605,0.44774 0.19852,0.87693 0.46141,1.24793 0.0601,0.0849 0.13376,0.15913 0.20078,0.23873 0.3973,0.42185 0.91166,0.69645 1.43175,0.93581 0.3791,0.15741 0.77955,0.29758 1.19587,0.29558 0.12576,-6e-4 0.25091,-0.0203 0.37626,-0.0305 0.6568,-0.097 1.22909,-0.36104 1.78737,-0.70844 0.65714,-0.45583 1.059269,-1.04877 1.386319,-1.76467 0.24506,-0.58404 0.32912,-1.21218 0.38865,-1.83753 0.005,-0.39582 0.0888,-0.80015 0.0526,-1.19676 -0.01,-0.10778 -0.0321,-0.21385 -0.048,-0.32089 -0.16801,-0.59003 -0.44882,-0.89744 -0.978069,-1.18128 -0.13537,-0.0721 -0.27699,-0.12573 -0.42219,-0.16793 -0.065,-0.34108 -0.45407,-0.62135 -1.17832,-0.63921 z m 9.627379,15.15957 c -0.0325,-6.5e-4 -0.0654,-5.9e-4 -0.0991,0 -0.24028,0.004 -0.48518,-0.0142 -0.72258,0.0341 -0.10282,0.021 -0.20305,0.0534 -0.30453,0.0801 -0.40573,0.15415 -0.77739,0.40416 -1.00387,0.78441 -0.0481,0.0809 -0.0843,0.16858 -0.12645,0.25268 -0.17978,0.42574 -0.19845,0.83123 -0.10736,1.27997 0.10451,0.40347 0.27166,0.71007 0.624,0.95803 0.0687,0.0483 0.14856,0.0782 0.22297,0.1173 0.61862,0.22111 1.01508,0.13464 1.55511,-0.22013 0.23613,-0.19294 0.44953,-0.41105 0.64774,-0.6423 0.21863,-0.244 0.37309,-0.53397 0.49033,-0.83764 0.0733,-0.22817 0.0797,-0.45654 0.0269,-0.66659 0.20294,-0.50979 -0.19761,-1.11953 -1.2031,-1.13994 z m -0.60904,2.01685 c 0.004,1.3e-4 0.003,4.2e-4 0.007,5.1e-4 -0.001,0.003 -0.003,0.004 -0.007,5.2e-4 -2.8e-4,-2.9e-4 -2.5e-4,-7.7e-4 -5.1e-4,-0.001 z m 0.0253,0.0103 c 0.0568,0.085 0.0406,0.10776 0.004,0.0202 -0.002,-0.006 -0.003,-0.0134 -0.004,-0.0202 z" />
    <path
       id="path2"
       style="fill:#000000;fill-rule:evenodd;stroke-width:0.362398"
       d="m 103.66269,122.00027 a 23.5,23.5 0 0 1 23.49986,23.49986 23.5,23.5 0 0 1 -23.49986,23.49986 23.5,23.5 0 0 1 -23.499859,-23.49986 23.5,23.5 0 0 1 23.499859,-23.49986 z m -5.383129,14.0839 c -0.0483,-0.001 -0.098,-0.001 -0.14935,0 -0.52,0.0122 -0.99841,0.22964 -1.46761,0.43201 -0.51587,0.22407 -1.00064,0.5039 -1.45831,0.82941 -0.39759,0.29365 -0.7587,0.62204 -1.05471,1.01803 -0.29331,0.44035 -0.41527,0.95192 -0.50127,1.46606 -0.0806,0.46018 -0.0859,0.92142 -0.0289,1.38389 0.0606,0.44776 0.19876,0.87697 0.46198,1.24799 0.0602,0.0849 0.13392,0.15914 0.20102,0.23874 0.39779,0.42187 0.91278,0.69648 1.43351,0.93586 0.37957,0.15741 0.78051,0.29759 1.19734,0.29559 0.12591,-6e-4 0.25122,-0.0203 0.37672,-0.0305 0.65761,-0.097 1.2306,-0.36106 1.78956,-0.70848 0.65795,-0.45585 1.060569,-1.04882 1.388029,-1.76475 0.24536,-0.58407 0.32952,-1.21224 0.38912,-1.83762 0.005,-0.39585 0.0889,-0.80019 0.0527,-1.19682 -0.01,-0.10779 -0.0321,-0.21386 -0.0481,-0.32091 -0.16822,-0.59005 -0.44937,-0.89748 -0.979269,-1.18133 -0.13554,-0.0721 -0.27733,-0.12574 -0.42271,-0.16794 -0.0651,-0.3411 -0.45463,-0.62138 -1.17977,-0.63924 z m -0.21291,3.1657 c -1.3e-4,0.0366 -0.003,0.0731 -0.008,0.10955 -5.4e-4,-0.005 -0.002,-0.009 -0.002,-0.0139 -2e-5,-0.0282 -0.004,-0.0567 -5.2e-4,-0.0847 0.001,-0.005 0.0104,-0.0159 0.0103,-0.0109 z m 9.852109,11.99461 c -0.0325,-6.5e-4 -0.0655,-5.9e-4 -0.0992,0 -0.24057,0.004 -0.48577,-0.0142 -0.72347,0.0341 -0.10294,0.021 -0.20329,0.0534 -0.3049,0.0801 -0.40623,0.15416 -0.77834,0.40418 -1.0051,0.78445 -0.0482,0.0809 -0.0844,0.16859 -0.12661,0.25269 -0.17999,0.42576 -0.19868,0.83127 -0.10749,1.28003 0.10464,0.40349 0.27199,0.71011 0.62477,0.95808 0.0688,0.0483 0.14874,0.0782 0.22324,0.11731 0.61938,0.22112 1.01633,0.13465 1.55702,-0.22014 0.23642,-0.19295 0.45008,-0.41107 0.64854,-0.64234 0.21889,-0.24401 0.37354,-0.53399 0.49093,-0.83768 0.0734,-0.22818 0.0798,-0.45656 0.0269,-0.66662 0.20319,-0.50981 -0.19785,-1.11958 -1.20458,-1.13999 z m -0.6103,2.01694 c 0.005,1.2e-4 0.004,4.1e-4 0.008,5.1e-4 -0.001,0.003 -0.003,0.004 -0.007,5.2e-4 -2.9e-4,-2.9e-4 -2.5e-4,-7.4e-4 -5.2e-4,-0.001 z m 0.0258,0.0103 c 0.0569,0.085 0.0406,0.10782 0.004,0.0202 -0.002,-0.006 -0.003,-0.0134 -0.004,-0.0202 z" />
    <path
       id="path3"
       style="fill:#aa0000;fill-rule:evenodd;stroke-width:0.417208"
       d="m 103.66269,123.00021 a 22.5,22.5 0 0 1 22.49991,22.49992 22.5,22.5 0 0 1 -22.49991,22.49992 22.5,22.5 0 0 1 -22.499919,-22.49992 22.5,22.5 0 0 1 22.499919,-22.49992 z m -5.383129,13.08396 c -0.0483,-0.001 -0.098,-0.001 -0.14935,0 -0.52,0.0122 -0.99841,0.22964 -1.46761,0.43201 -0.51587,0.22407 -1.00064,0.5039 -1.45831,0.82941 -0.39759,0.29365 -0.7587,0.62204 -1.05471,1.01803 -0.29331,0.44035 -0.41527,0.95192 -0.50127,1.46606 -0.0806,0.46018 -0.0859,0.92142 -0.0289,1.38389 0.0606,0.44776 0.19876,0.87697 0.46198,1.24799 0.0602,0.0849 0.13392,0.15914 0.20102,0.23874 0.39779,0.42187 0.91278,0.69648 1.43351,0.93586 0.37957,0.15741 0.78051,0.29759 1.19734,0.29559 0.12591,-6e-4 0.25122,-0.0203 0.37672,-0.0305 0.65761,-0.097 1.2306,-0.36106 1.78956,-0.70848 0.65795,-0.45585 1.060569,-1.04882 1.388029,-1.76475 0.24536,-0.58407 0.32952,-1.21224 0.38912,-1.83762 0.005,-0.39585 0.0889,-0.80019 0.0527,-1.19682 -0.01,-0.10779 -0.0321,-0.21386 -0.0481,-0.32091 -0.16822,-0.59005 -0.44937,-0.89748 -0.979269,-1.18133 -0.13554,-0.0721 -0.27733,-0.12574 -0.42271,-0.16794 -0.0651,-0.3411 -0.45463,-0.62138 -1.17977,-0.63924 z m -0.21291,3.1657 c -1.3e-4,0.0366 -0.003,0.0731 -0.008,0.10955 -5.4e-4,-0.005 -0.002,-0.009 -0.002,-0.0139 -2e-5,-0.0282 -0.004,-0.0567 -5.2e-4,-0.0847 0.001,-0.005 0.0104,-0.0159 0.0103,-0.0109 z m 9.852109,11.99461 c -0.0325,-6.5e-4 -0.0655,-5.9e-4 -0.0992,0 -0.24057,0.004 -0.48577,-0.0142 -0.72347,0.0341 -0.10294,0.021 -0.20329,0.0534 -0.3049,0.0801 -0.40623,0.15416 -0.77834,0.40418 -1.0051,0.78445 -0.0482,0.0809 -0.0844,0.16859 -0.12661,0.25269 -0.17999,0.42576 -0.19868,0.83127 -0.10749,1.28003 0.10464,0.40349 0.27199,0.71011 0.62477,0.95808 0.0688,0.0483 0.14874,0.0782 0.22324,0.11731 0.61938,0.22112 1.01633,0.13465 1.55702,-0.22014 0.23642,-0.19295 0.45008,-0.41107 0.64854,-0.64234 0.21889,-0.24401 0.37354,-0.53399 0.49093,-0.83768 0.0734,-0.22818 0.0798,-0.45656 0.0269,-0.66662 0.20319,-0.50981 -0.19785,-1.11958 -1.20458,-1.13999 z m -0.6103,2.01694 c 0.005,1.2e-4 0.004,4.1e-4 0.008,5.1e-4 -0.001,0.003 -0.003,0.004 -0.007,5.2e-4 -2.9e-4,-2.9e-4 -2.5e-4,-7.4e-4 -5.2e-4,-0.001 z m 0.0258,0.0103 c 0.0569,0.085 0.0406,0.10782 0.004,0.0202 -0.002,-0.006 -0.003,-0.0134 -0.004,-0.0202 z" />
    <path
       id="path4"
       style="fill:#000000;fill-rule:evenodd;stroke-width:0.272366"
       d="m 103.04619,134.53129 a 12.5,11 0 0 1 12.50001,10.99985 12.5,11 0 0 1 -12.50001,11.00036 12.5,11 0 0 1 -12.500009,-11.00036 12.5,11 0 0 1 12.500009,-10.99985 z m -4.766629,1.55288 c -0.0483,-0.001 -0.098,-0.001 -0.14935,0 -0.52,0.0122 -0.99841,0.22964 -1.46761,0.43201 -0.51587,0.22407 -1.00064,0.5039 -1.45831,0.82941 -0.39759,0.29365 -0.7587,0.62204 -1.05471,1.01803 -0.29331,0.44035 -0.41527,0.95192 -0.50127,1.46606 -0.0806,0.46018 -0.0859,0.92142 -0.0289,1.38389 0.0606,0.44776 0.19876,0.87697 0.46198,1.24799 0.0602,0.0849 0.13392,0.15914 0.20102,0.23874 0.39779,0.42187 0.91278,0.69648 1.43351,0.93586 0.37957,0.15741 0.78051,0.29759 1.19734,0.29559 0.12591,-6e-4 0.25122,-0.0203 0.37672,-0.0305 0.65761,-0.097 1.2306,-0.36106 1.78956,-0.70848 0.65795,-0.45585 1.060569,-1.04882 1.388029,-1.76475 0.24536,-0.58407 0.32952,-1.21224 0.38912,-1.83762 0.005,-0.39585 0.0889,-0.80019 0.0527,-1.19682 -0.01,-0.10779 -0.0321,-0.21386 -0.0481,-0.32091 -0.16822,-0.59005 -0.44937,-0.89748 -0.979269,-1.18133 -0.13554,-0.0721 -0.27733,-0.12574 -0.42271,-0.16794 -0.0651,-0.3411 -0.45463,-0.62138 -1.17977,-0.63924 z m -0.21291,3.1657 c -1.3e-4,0.0366 -0.003,0.0731 -0.008,0.10955 -5.4e-4,-0.005 -0.002,-0.009 -0.002,-0.0139 -2e-5,-0.0282 -0.004,-0.0567 -5.2e-4,-0.0847 0.001,-0.005 0.0104,-0.0159 0.0103,-0.0109 z m 9.852109,11.99461 c -0.0325,-6.5e-4 -0.0655,-5.9e-4 -0.0992,0 -0.24057,0.004 -0.48577,-0.0142 -0.72347,0.0341 -0.10294,0.021 -0.20329,0.0534 -0.3049,0.0801 -0.40623,0.15416 -0.77834,0.40418 -1.0051,0.78445 -0.0482,0.0809 -0.0844,0.16859 -0.12661,0.25269 -0.17999,0.42576 -0.19868,0.83127 -0.10749,1.28003 0.10464,0.40349 0.27199,0.71011 0.62477,0.95808 0.0688,0.0483 0.14874,0.0782 0.22324,0.11731 0.61938,0.22112 1.01633,0.13465 1.55702,-0.22014 0.23642,-0.19295 0.45008,-0.41107 0.64854,-0.64234 0.21889,-0.24401 0.37354,-0.53399 0.49093,-0.83768 0.0734,-0.22818 0.0798,-0.45656 0.0269,-0.66662 0.20319,-0.50981 -0.19785,-1.11958 -1.20458,-1.13999 z m -0.6103,2.01694 c 0.005,1.2e-4 0.004,4.1e-4 0.008,5.1e-4 -0.001,0.003 -0.003,0.004 -0.007,5.2e-4 -2.9e-4,-2.9e-4 -2.5e-4,-7.4e-4 -5.2e-4,-0.001 z m 0.0258,0.0103 c 0.0569,0.085 0.0406,0.10782 0.004,0.0202 -0.002,-0.006 -0.003,-0.0134 -0.004,-0.0202 z" />
    <path
       style="fill:#e6e6e6;fill-opacity:1;fill-rule:evenodd;stroke-width:0.0464264"
       d="m 97.623521,143.8036 c 1.68776,-0.44273 2.801959,-1.66628 3.100119,-3.40436 0.0986,-0.57463 0.1797,-1.63093 0.15249,-1.98562 -0.0507,-0.66062 -0.40447,-1.18443 -1.001789,-1.48326 -0.17747,-0.0888 -0.3485,-0.16142 -0.38007,-0.16142 -0.0316,0 -0.0697,-0.0491 -0.0848,-0.10907 -0.078,-0.31057 -0.6142,-0.54432 -1.23607,-0.53879 -0.42683,0.004 -0.75366,0.0944 -1.44629,0.40113 -1.14318,0.50619 -2.13365,1.24056 -2.58,1.91294 -0.43668,0.65781 -0.65186,2.12904 -0.44622,3.05102 0.16851,0.75552 0.62411,1.35078 1.36472,1.78306 0.99159,0.57877 1.76927,0.74124 2.5579,0.53437 z m 0.38784,-4.5003 c 0,-0.0377 0.0206,-0.0685 0.0457,-0.0685 0.0251,0 0.0457,0.0308 0.0457,0.0685 0,0.0377 -0.0206,0.0685 -0.0457,0.0685 -0.0251,0 -0.0457,-0.0308 -0.0457,-0.0685 z"
       id="path16" />
    <path
       style="fill:#e6e6e6;fill-opacity:1;fill-rule:evenodd;stroke-width:0.0464264"
       d="m 107.47915,154.74024 c 0.37286,-0.15331 0.58581,-0.31182 0.95206,-0.70869 0.20614,-0.22337 0.38092,-0.47213 0.49837,-0.70933 0.16882,-0.34093 0.18215,-0.39709 0.19972,-0.84119 0.0129,-0.32486 9e-5,-0.52071 -0.0402,-0.61718 -0.18921,-0.45282 -0.92423,-0.6877 -1.8053,-0.57687 -1.06354,0.13377 -1.74355,0.87348 -1.74176,1.89464 0.002,0.84522 0.39097,1.42124 1.08285,1.60145 0.3623,0.0944 0.54259,0.0853 0.85427,-0.0428 z"
       id="path17" />
    <path
       style="fill:#000000;fill-opacity:1;fill-rule:evenodd;stroke-width:0.268999"
       d="m 191.30216,162.48339 -7.33852,-16.53013 6.73238,16.26114 z"
       id="path21"
       sodipodi:nodetypes="cccc" />
    <path
       style="fill:#000000;fill-opacity:1;fill-rule:evenodd;stroke-width:0.425434"
       d="m 163.22928,172.14567 -8.21699,-27.03305 7.36254,26.67115 z"
       id="path21-5"
       sodipodi:nodetypes="cccc" />
    <path
       style="fill:#000000;fill-opacity:1;fill-rule:evenodd;stroke-width:0.268999"
       d="M 7.9284006,150.8396 20.140769,137.49952 8.5886326,150.77721 Z"
       id="path21-9"
       sodipodi:nodetypes="cccc" />
  </g>
</svg>
