<?xml version="1.0" encoding="UTF-8" standalone="no"?>
<!-- Created with Inkscape (http://www.inkscape.org/) -->

<svg
   width="210mm"
   height="297mm"
   viewBox="0 0 210 297"
   version="1.1"
   id="svg1"
   inkscape:version="1.3.2 (091e20e, 2023-11-25, custom)"
   sodipodi:docname="Ojo Diabolicote vuelo 2.svg"
   xmlns:inkscape="http://www.inkscape.org/namespaces/inkscape"
   xmlns:sodipodi="http://sodipodi.sourceforge.net/DTD/sodipodi-0.dtd"
   xmlns="http://www.w3.org/2000/svg"
   xmlns:svg="http://www.w3.org/2000/svg">
  <sodipodi:namedview
     id="namedview1"
     pagecolor="#ffffff"
     bordercolor="#000000"
     borderopacity="0.25"
     inkscape:showpageshadow="2"
     inkscape:pageopacity="0.0"
     inkscape:pagecheckerboard="0"
     inkscape:deskcolor="#d1d1d1"
     inkscape:document-units="mm"
     inkscape:zoom="0.72426347"
     inkscape:cx="396.26464"
     inkscape:cy="561.25984"
     inkscape:window-width="1920"
     inkscape:window-height="1009"
     inkscape:window-x="-8"
     inkscape:window-y="-8"
     inkscape:window-maximized="1"
     inkscape:current-layer="layer1" />
  <defs
     id="defs1" />
  <g
     inkscape:label="Capa 1"
     inkscape:groupmode="layer"
     id="layer1">
    <path
       style="fill:#000000;fill-opacity:1;fill-rule:evenodd;stroke-width:0.350105"
       d="m 55.244361,160.57748 c -7.007334,-1.20369 -16.245851,-2.59451 -35.795875,10.05442 3.461571,-8.84158 3.562242,-12.51167 -0.42518,-18.58411 l -6.91364,-3.99348 C 7.6118556,147.52111 2.9733139,147.2632 -1.536212,146.83022 6.8932906,131.36457 -0.9549789,117.11396 -8,104 c 24.735809,21.4898 53.770853,-3.76685 58.219774,10.85715 -0.11335,4.75355 0.400073,1.42764 -3.639798,2.69644 l 4.902012,8.37541 3.968748,4.95938 4.058363,3.15961 3.679116,2.26209 c -0.843708,8.43959 -4.950585,16.37023 -7.943854,24.2674 z"
       id="path19-6-5"
       sodipodi:nodetypes="ccccccccccccc" />
    <path
       style="fill:#000000;fill-opacity:1;fill-rule:evenodd;stroke-width:0.350105"
       d="m 126.31115,166.93097 c 6.19671,3.486 14.9942,8.0049 22.18578,30.15169 2.89097,-9.04425 4.37641,-11.72633 11.30086,-13.92317 l 7.88373,1.26213 c 3.82648,2.42335 7.58852,5.14909 11.36088,7.6576 3.2143,-17.31794 18.2932,-23.42548 32.03185,-29.15766 -32.74936,1.0727 -39.3484,-36.84017 -52.02502,-28.2987 -2.91047,3.7601 -1.21097,0.85545 1.12352,4.38823 l -9.08678,3.407 -6.20788,1.34493 -5.14215,-0.10814 -4.28174,-0.56539 c -4.66878,7.08102 -6.48442,15.82546 -9.14305,23.84148 z"
       id="path19-6"
       sodipodi:nodetypes="ccccccccccccc" />
    <path
       style="fill:#de8787;fill-opacity:1;fill-rule:evenodd;stroke-width:0.32629"
       d="m 128.68818,166.38025 c 5.83628,3.31109 12.92144,7.75391 19.90777,28.4107 2.59721,-8.36717 5.15042,-10.98275 11.60039,-12.94189 l 7.38783,1.26518 c 3.6071,2.29608 7.15748,4.87232 10.71497,7.24687 2.80223,-16.0488 16.83236,-21.54461 29.61344,-26.70753 -30.61502,0.61096 -37.23276,-34.68396 -48.98756,-26.899 1.94962,2.15523 5.27555,3.79352 -1.05901,4.60266 l -6.29664,2.54459 -5.78985,1.17624 -4.8103,-0.16097 -4.01098,-0.57559 c -4.28297,6.52263 -5.87805,14.62395 -8.2701,22.03873 z"
       id="path19"
       sodipodi:nodetypes="ccccccccccccc" />
    <path
       style="fill:#000000;fill-opacity:1;fill-rule:evenodd;stroke-width:0.284152"
       d="m 208.17882,163.7191 c -1.70636,1.38489 -4.99357,2.38506 -7.49035,3.57757 l -11.0208,-4.49507 -10.19631,-6.92786 -9.13625,-9.81861 -5.24662,-4.02485 -3.72839,1.99325 -11.34182,4.07145 -15.80106,1.73627 -0.0642,-2.02888 -0.23526,-1.20224 14.30682,-0.39198 10.95508,-4.62358 c 3.65611,-1.00561 0.0422,-2.75416 -0.6524,-4.20438 3.78352,-2.45206 4.18603,-1.81607 7.96343,0.1061 2.68368,2.12832 5.59245,5.76053 8.46925,9.17919 9.82427,11.3242 17.22018,16.08133 33.2188,17.05362 z"
       id="path20-4"
       sodipodi:nodetypes="ccccccccccccccccc" />
    <path
       style="fill:#ff00ff;fill-opacity:1;fill-rule:evenodd;stroke-width:0.268999"
       d="m 207.82981,163.57456 c -1.57558,1.21912 -4.68594,2.0071 -7.0289,3.01064 l -10.78106,-4.7022 -10.09909,-6.9416 -9.21166,-9.59891 -5.21729,-4.00236 -3.48915,1.69741 -10.70368,3.29945 -15.08915,0.91366 -0.15285,-1.9014 -0.27991,-1.13559 13.71533,0.27702 10.30761,-3.83352 c 3.46419,-0.77649 -0.0834,-2.57532 -0.81543,-3.96362 3.52141,-2.12425 3.93639,-1.51101 7.6488,0.45766 2.67177,2.11236 5.62734,5.64206 8.54261,8.97053 9.93981,11.03873 17.25315,15.82306 32.65382,17.45283 z"
       id="path20"
       sodipodi:nodetypes="ccccccccccccccccc" />
    <path
       style="fill:#de8787;fill-opacity:1;fill-rule:evenodd;stroke-width:0.32629"
       d="m 54.225448,158.85443 c -6.617294,-1.11205 -14.917572,-2.13372 -33.368476,9.48848 3.262434,-8.13089 2.931054,-11.771 -0.838125,-17.35969 L 13.488082,147.3049 C 9.2407836,146.81133 4.8607888,146.57091 0.60249166,146.16952 8.5512176,131.94861 1.1309125,118.83421 -5.5301621,106.76598 17.840709,126.55121 45.23895,103.33781 49.449762,116.79331 c -2.872319,0.44261 -6.486524,-0.38404 -2.081527,4.23948 l 3.280919,5.94627 3.750796,4.56481 3.834169,2.90929 3.475453,2.08339 c -0.790854,7.76292 -4.663213,15.05541 -7.484124,22.31788 z"
       id="path19-9"
       sodipodi:nodetypes="ccccccccccccc" />
    <path
       style="fill:#000000;fill-opacity:1;fill-rule:evenodd;stroke-width:0.425434"
       d="M 20.406767,168.29192 40.711628,148.64456 21.32948,168.3902 Z"
       id="path21-5-9"
       sodipodi:nodetypes="cccc" />
    <path
       style="fill:#000000;fill-opacity:1;fill-rule:evenodd;stroke-width:0.284152"
       d="m -5.7167479,106.68973 c 0.450521,2.15096 2.370414,5.00051 3.5556282,7.50079 l 11.3871453,3.4636 12.2819134,1.05577 13.282755,-1.856 6.609963,0.18627 1.635825,3.89846 6.232707,10.31344 11.165919,11.31415 1.329516,-1.53388 0.940889,-0.78451 -10.854362,-9.32852 -5.584359,-10.49791 c -2.202694,-3.08651 1.704518,-2.16376 3.158268,-2.85096 -1.389196,-4.28925 -2.102695,-4.04964 -6.246307,-4.94079 -3.424927,-0.0413 -7.973128,0.94241 -12.361844,1.78057 -14.766292,2.59032 -23.5059624,1.61656 -36.5336569,-7.72048 z"
       id="path20-4-0"
       sodipodi:nodetypes="ccccccccccccccccc" />
    <path
       style="fill:#ff00ff;fill-opacity:1;fill-rule:evenodd;stroke-width:0.268999"
       d="m -5.4160966,106.75687 c 0.4536079,1.93984 2.3701191,4.51322 3.5551719,6.76981 l 11.3317693,3.15165 12.2151394,0.98379 13.202673,-1.63797 6.573042,0.18523 1.636784,3.51799 6.22448,9.31187 11.132382,10.22679 1.317961,-1.37901 0.933512,-0.70461 -10.81739,-8.4363 -5.580287,-9.47645 c -2.198317,-2.78766 1.689188,-1.94574 3.132904,-2.56129 -1.392576,-3.86956 -2.101407,-3.65546 -6.22389,-4.46954 -3.405646,-0.0462 -7.925509,0.82854 -12.287183,1.5724 -14.675901,2.29591 -23.3686404,1.39533 -36.3470686,-7.05436 z"
       id="path20-8"
       sodipodi:nodetypes="ccccccccccccccccc" />
    <ellipse
       style="fill:#000000;fill-opacity:1;fill-rule:evenodd;stroke-width:0.232241"
       id="path22"
       cx="-95.446846"
       cy="156.59947"
       rx="41.586716"
       ry="42.134686"
       transform="scale(-1,1)" />
    <path
       id="path1"
       style="fill:#e6e6e6;fill-rule:evenodd;stroke-width:0.268827"
       d="m 95.533807,116.4648 a 40.500089,39.999896 0 0 1 40.499733,39.99974 40.500089,39.999896 0 0 1 -40.499733,40.00026 40.500089,39.999896 0 0 1 -40.50025,-40.00026 40.500089,39.999896 0 0 1 40.50025,-39.99974 z m -6.29988,29.68046 c -0.0482,-0.001 -0.0979,-0.001 -0.14917,0 -0.51936,0.0122 -0.99719,0.22963 -1.46581,0.43199 -0.51524,0.22406 -0.99941,0.50388 -1.45652,0.82937 -0.3971,0.29364 -0.75777,0.62201 -1.05342,1.01798 -0.29295,0.44033 -0.41476,0.95188 -0.50065,1.46599 -0.0805,0.46016 -0.0858,0.92138 -0.0289,1.38382 0.0605,0.44774 0.19852,0.87693 0.46141,1.24793 0.0601,0.0849 0.13376,0.15913 0.20078,0.23873 0.3973,0.42185 0.91166,0.69645 1.43175,0.93581 0.3791,0.15741 0.77955,0.29758 1.19587,0.29558 0.12576,-6e-4 0.25091,-0.0203 0.37626,-0.0305 0.6568,-0.097 1.22909,-0.36104 1.78737,-0.70844 0.65714,-0.45583 1.05927,-1.04877 1.38632,-1.76467 0.24506,-0.58404 0.32912,-1.21218 0.38865,-1.83753 0.005,-0.39582 0.0888,-0.80015 0.0526,-1.19676 -0.01,-0.10778 -0.0321,-0.21385 -0.048,-0.32089 -0.16801,-0.59003 -0.44882,-0.89744 -0.97807,-1.18128 -0.13537,-0.0721 -0.27699,-0.12573 -0.42219,-0.16793 -0.065,-0.34108 -0.45407,-0.62135 -1.17832,-0.63921 z m 9.627372,15.15957 c -0.0325,-6.5e-4 -0.0654,-5.9e-4 -0.0991,0 -0.24028,0.004 -0.48518,-0.0142 -0.72258,0.0341 -0.10282,0.021 -0.203042,0.0534 -0.304522,0.0801 -0.40573,0.15415 -0.77739,0.40416 -1.00387,0.78441 -0.0481,0.0809 -0.0843,0.16858 -0.12645,0.25268 -0.17978,0.42574 -0.19845,0.83123 -0.10736,1.27997 0.10451,0.40347 0.27166,0.71007 0.624,0.95803 0.0687,0.0483 0.14856,0.0782 0.22297,0.1173 0.618612,0.22111 1.015072,0.13464 1.555102,-0.22013 0.23613,-0.19294 0.44953,-0.41105 0.64774,-0.6423 0.21863,-0.244 0.37309,-0.53397 0.490331,-0.83764 0.0733,-0.22817 0.0797,-0.45654 0.0269,-0.66659 0.20294,-0.50979 -0.197611,-1.11953 -1.203101,-1.13994 z m -0.60904,2.01685 c 0.004,1.3e-4 0.003,4.2e-4 0.007,5.1e-4 -0.001,0.003 -0.003,0.004 -0.007,5.2e-4 -2.8e-4,-2.9e-4 -2.5e-4,-7.7e-4 -5.1e-4,-0.001 z m 0.0253,0.0103 c 0.0568,0.085 0.0406,0.10776 0.004,0.0202 -0.002,-0.006 -0.003,-0.0134 -0.004,-0.0202 z" />
    <path
       id="path2"
       style="fill:#000000;fill-rule:evenodd;stroke-width:0.362398"
       d="m 94.533597,132.46504 a 23.5,23.5 0 0 1 23.499853,23.49986 23.5,23.5 0 0 1 -23.499853,23.49986 23.5,23.5 0 0 1 -23.49986,-23.49986 23.5,23.5 0 0 1 23.49986,-23.49986 z m -5.38313,14.0839 c -0.0483,-10e-4 -0.098,-10e-4 -0.14935,0 -0.52,0.0122 -0.99841,0.22964 -1.46761,0.43201 -0.51587,0.22407 -1.00064,0.5039 -1.45831,0.82941 -0.39759,0.29365 -0.7587,0.62204 -1.05471,1.01803 -0.29331,0.44035 -0.41527,0.95192 -0.50127,1.46606 -0.0806,0.46018 -0.0859,0.92142 -0.0289,1.38389 0.0606,0.44776 0.19876,0.87697 0.46198,1.24799 0.0602,0.0849 0.13392,0.15914 0.20102,0.23874 0.39779,0.42187 0.91278,0.69648 1.43351,0.93586 0.37957,0.15741 0.78051,0.29759 1.19734,0.29559 0.12591,-6e-4 0.25122,-0.0203 0.37672,-0.0305 0.65761,-0.097 1.2306,-0.36106 1.78956,-0.70848 0.65795,-0.45585 1.06057,-1.04882 1.38803,-1.76475 0.24536,-0.58407 0.32952,-1.21224 0.38912,-1.83762 0.005,-0.39585 0.0889,-0.80019 0.0527,-1.19682 -0.01,-0.10779 -0.0321,-0.21386 -0.0481,-0.32091 -0.16822,-0.59005 -0.44937,-0.89748 -0.97927,-1.18133 -0.13554,-0.0721 -0.27733,-0.12574 -0.42271,-0.16794 -0.0651,-0.3411 -0.45463,-0.62138 -1.17977,-0.63924 z m -0.21291,3.1657 c -1.3e-4,0.0366 -0.003,0.0731 -0.008,0.10955 -5.4e-4,-0.005 -0.002,-0.009 -0.002,-0.0139 -2e-5,-0.0282 -0.004,-0.0567 -5.2e-4,-0.0847 0.001,-0.005 0.0104,-0.0159 0.0103,-0.0109 z m 9.852102,11.99461 c -0.0325,-6.5e-4 -0.0655,-5.9e-4 -0.0992,0 -0.24057,0.004 -0.48577,-0.0142 -0.72347,0.0341 -0.10294,0.021 -0.203282,0.0534 -0.304892,0.0801 -0.40623,0.15416 -0.77834,0.40418 -1.0051,0.78445 -0.0482,0.0809 -0.0844,0.16859 -0.12661,0.25269 -0.17999,0.42576 -0.19868,0.83127 -0.10749,1.28003 0.10464,0.40349 0.27199,0.71011 0.62477,0.95808 0.0688,0.0483 0.14874,0.0782 0.22324,0.11731 0.619372,0.22112 1.016322,0.13465 1.557012,-0.22014 0.23642,-0.19295 0.45008,-0.41107 0.64854,-0.64234 0.21889,-0.24401 0.37354,-0.53399 0.49093,-0.83768 0.0734,-0.22818 0.0798,-0.45656 0.0269,-0.66662 0.203191,-0.50981 -0.19785,-1.11958 -1.20458,-1.13999 z m -0.6103,2.01694 c 0.005,1.2e-4 0.004,4.1e-4 0.008,5.1e-4 -0.001,0.003 -0.003,0.004 -0.007,5.2e-4 -2.9e-4,-2.9e-4 -2.5e-4,-7.4e-4 -5.2e-4,-10e-4 z m 0.0258,0.0103 c 0.0569,0.085 0.0406,0.10782 0.004,0.0202 -0.002,-0.006 -0.003,-0.0134 -0.004,-0.0202 z" />
    <path
       id="path3"
       style="fill:#aa0000;fill-rule:evenodd;stroke-width:0.417208"
       d="M 94.533597,133.46498 A 22.5,22.5 0 0 1 117.0335,155.9649 22.5,22.5 0 0 1 94.533597,178.46482 22.5,22.5 0 0 1 72.033677,155.9649 22.5,22.5 0 0 1 94.533597,133.46498 Z m -5.38313,13.08396 c -0.0483,-10e-4 -0.098,-10e-4 -0.14935,0 -0.52,0.0122 -0.99841,0.22964 -1.46761,0.43201 -0.51587,0.22407 -1.00064,0.5039 -1.45831,0.82941 -0.39759,0.29365 -0.7587,0.62204 -1.05471,1.01803 -0.29331,0.44035 -0.41527,0.95192 -0.50127,1.46606 -0.0806,0.46018 -0.0859,0.92142 -0.0289,1.38389 0.0606,0.44776 0.19876,0.87697 0.46198,1.24799 0.0602,0.0849 0.13392,0.15914 0.20102,0.23874 0.39779,0.42187 0.91278,0.69648 1.43351,0.93586 0.37957,0.15741 0.78051,0.29759 1.19734,0.29559 0.12591,-6e-4 0.25122,-0.0203 0.37672,-0.0305 0.65761,-0.097 1.2306,-0.36106 1.78956,-0.70848 0.65795,-0.45585 1.06057,-1.04882 1.38803,-1.76475 0.24536,-0.58407 0.32952,-1.21224 0.38912,-1.83762 0.005,-0.39585 0.0889,-0.80019 0.0527,-1.19682 -0.01,-0.10779 -0.0321,-0.21386 -0.0481,-0.32091 -0.16822,-0.59005 -0.44937,-0.89748 -0.97927,-1.18133 -0.13554,-0.0721 -0.27733,-0.12574 -0.42271,-0.16794 -0.0651,-0.3411 -0.45463,-0.62138 -1.17977,-0.63924 z m -0.21291,3.1657 c -1.3e-4,0.0366 -0.003,0.0731 -0.008,0.10955 -5.4e-4,-0.005 -0.002,-0.009 -0.002,-0.0139 -2e-5,-0.0282 -0.004,-0.0567 -5.2e-4,-0.0847 0.001,-0.005 0.0104,-0.0159 0.0103,-0.0109 z m 9.852102,11.99461 c -0.0325,-6.5e-4 -0.0655,-5.9e-4 -0.0992,0 -0.24057,0.004 -0.48577,-0.0142 -0.72347,0.0341 -0.10294,0.021 -0.203282,0.0534 -0.304892,0.0801 -0.40623,0.15416 -0.77834,0.40418 -1.0051,0.78445 -0.0482,0.0809 -0.0844,0.16859 -0.12661,0.25269 -0.17999,0.42576 -0.19868,0.83127 -0.10749,1.28003 0.10464,0.40349 0.27199,0.71011 0.62477,0.95808 0.0688,0.0483 0.14874,0.0782 0.22324,0.11731 0.619372,0.22112 1.016322,0.13465 1.557012,-0.22014 0.23642,-0.19295 0.45008,-0.41107 0.64854,-0.64234 0.21889,-0.24401 0.37354,-0.53399 0.49093,-0.83768 0.0734,-0.22818 0.0798,-0.45656 0.0269,-0.66662 0.203191,-0.50981 -0.19785,-1.11958 -1.20458,-1.13999 z m -0.6103,2.01694 c 0.005,1.2e-4 0.004,4.1e-4 0.008,5.1e-4 -0.001,0.003 -0.003,0.004 -0.007,5.2e-4 -2.9e-4,-2.9e-4 -2.5e-4,-7.4e-4 -5.2e-4,-10e-4 z m 0.0258,0.0103 c 0.0569,0.085 0.0406,0.10782 0.004,0.0202 -0.002,-0.006 -0.003,-0.0134 -0.004,-0.0202 z" />
    <path
       id="path4"
       style="fill:#000000;fill-rule:evenodd;stroke-width:0.272366"
       d="m 93.917097,144.99606 a 12.5,11 0 0 1 12.500003,10.99985 12.5,11 0 0 1 -12.500003,11.00036 12.5,11 0 0 1 -12.50001,-11.00036 12.5,11 0 0 1 12.50001,-10.99985 z m -4.76663,1.55288 c -0.0483,-10e-4 -0.098,-10e-4 -0.14935,0 -0.52,0.0122 -0.99841,0.22964 -1.46761,0.43201 -0.51587,0.22407 -1.00064,0.5039 -1.45831,0.82941 -0.39759,0.29365 -0.7587,0.62204 -1.05471,1.01803 -0.29331,0.44035 -0.41527,0.95192 -0.50127,1.46606 -0.0806,0.46018 -0.0859,0.92142 -0.0289,1.38389 0.0606,0.44776 0.19876,0.87697 0.46198,1.24799 0.0602,0.0849 0.13392,0.15914 0.20102,0.23874 0.39779,0.42187 0.91278,0.69648 1.43351,0.93586 0.37957,0.15741 0.78051,0.29759 1.19734,0.29559 0.12591,-6e-4 0.25122,-0.0203 0.37672,-0.0305 0.65761,-0.097 1.2306,-0.36106 1.78956,-0.70848 0.65795,-0.45585 1.06057,-1.04882 1.38803,-1.76475 0.24536,-0.58407 0.32952,-1.21224 0.38912,-1.83762 0.005,-0.39585 0.0889,-0.80019 0.0527,-1.19682 -0.01,-0.10779 -0.0321,-0.21386 -0.0481,-0.32091 -0.16822,-0.59005 -0.44937,-0.89748 -0.97927,-1.18133 -0.13554,-0.0721 -0.27733,-0.12574 -0.42271,-0.16794 -0.0651,-0.3411 -0.45463,-0.62138 -1.17977,-0.63924 z m -0.21291,3.1657 c -1.3e-4,0.0366 -0.003,0.0731 -0.008,0.10955 -5.4e-4,-0.005 -0.002,-0.009 -0.002,-0.0139 -2e-5,-0.0282 -0.004,-0.0567 -5.2e-4,-0.0847 0.001,-0.005 0.0104,-0.0159 0.0103,-0.0109 z m 9.852102,11.99461 c -0.0325,-6.5e-4 -0.0655,-5.9e-4 -0.0992,0 -0.24057,0.004 -0.48577,-0.0142 -0.72347,0.0341 -0.10294,0.021 -0.203282,0.0534 -0.304892,0.0801 -0.40623,0.15416 -0.77834,0.40418 -1.0051,0.78445 -0.0482,0.0809 -0.0844,0.16859 -0.12661,0.25269 -0.17999,0.42576 -0.19868,0.83127 -0.10749,1.28003 0.10464,0.40349 0.27199,0.71011 0.62477,0.95808 0.0688,0.0483 0.14874,0.0782 0.22324,0.11731 0.619372,0.22112 1.016322,0.13465 1.557012,-0.22014 0.23642,-0.19295 0.45008,-0.41107 0.64854,-0.64234 0.21889,-0.24401 0.37354,-0.53399 0.49093,-0.83768 0.0734,-0.22818 0.0798,-0.45656 0.0269,-0.66662 0.203191,-0.50981 -0.19785,-1.11958 -1.20458,-1.13999 z m -0.6103,2.01694 c 0.005,1.2e-4 0.004,4.1e-4 0.008,5.1e-4 -0.001,0.003 -0.003,0.004 -0.007,5.2e-4 -2.9e-4,-2.9e-4 -2.5e-4,-7.4e-4 -5.2e-4,-10e-4 z m 0.0258,0.0103 c 0.0569,0.085 0.0406,0.10782 0.004,0.0202 -0.002,-0.006 -0.003,-0.0134 -0.004,-0.0202 z" />
    <path
       style="fill:#e6e6e6;fill-opacity:1;fill-rule:evenodd;stroke-width:0.0464264"
       d="m 88.494427,154.26837 c 1.68776,-0.44273 2.80196,-1.66628 3.10012,-3.40436 0.0986,-0.57463 0.1797,-1.63093 0.15249,-1.98562 -0.0507,-0.66062 -0.40447,-1.18443 -1.00179,-1.48326 -0.17747,-0.0888 -0.3485,-0.16142 -0.38007,-0.16142 -0.0316,0 -0.0697,-0.0491 -0.0848,-0.10907 -0.078,-0.31057 -0.6142,-0.54432 -1.23607,-0.53879 -0.42683,0.004 -0.75366,0.0944 -1.44629,0.40113 -1.14318,0.50619 -2.13365,1.24056 -2.58,1.91294 -0.43668,0.65781 -0.65186,2.12904 -0.44622,3.05102 0.16851,0.75552 0.62411,1.35078 1.36472,1.78306 0.99159,0.57877 1.76927,0.74124 2.5579,0.53437 z m 0.38784,-4.5003 c 0,-0.0377 0.0206,-0.0685 0.0457,-0.0685 0.0251,0 0.0457,0.0308 0.0457,0.0685 0,0.0377 -0.0206,0.0685 -0.0457,0.0685 -0.0251,0 -0.0457,-0.0308 -0.0457,-0.0685 z"
       id="path16" />
    <path
       style="fill:#e6e6e6;fill-opacity:1;fill-rule:evenodd;stroke-width:0.0464264"
       d="m 98.350049,165.20501 c 0.37286,-0.15331 0.58581,-0.31182 0.95206,-0.70869 0.20614,-0.22337 0.38092,-0.47213 0.49837,-0.70933 0.16882,-0.34093 0.18215,-0.39709 0.199721,-0.84119 0.0129,-0.32486 9e-5,-0.52071 -0.0402,-0.61718 -0.18921,-0.45282 -0.92423,-0.6877 -1.8053,-0.57687 -1.063532,0.13377 -1.743542,0.87348 -1.741752,1.89464 0.002,0.84522 0.39097,1.42124 1.08285,1.60145 0.362292,0.0944 0.542582,0.0853 0.854262,-0.0428 z"
       id="path17" />
    <path
       style="fill:#000000;fill-opacity:1;fill-rule:evenodd;stroke-width:0.268999"
       d="m 178.29129,190.35721 -4.33467,-17.55875 3.78491,17.1879 z"
       id="path21"
       sodipodi:nodetypes="cccc" />
    <path
       style="fill:#000000;fill-opacity:1;fill-rule:evenodd;stroke-width:0.425434"
       d="m 148.96129,194.96125 -3.36287,-28.05345 2.58488,27.5477 z"
       id="path21-5"
       sodipodi:nodetypes="cccc" />
    <path
       style="fill:#000000;fill-opacity:1;fill-rule:evenodd;stroke-width:0.268999"
       d="M 0.36572536,146.26282 14.804898,135.372 1.0262693,146.32181 Z"
       id="path21-9"
       sodipodi:nodetypes="cccc" />
  </g>
</svg>
