<?xml version="1.0" encoding="UTF-8" standalone="no"?>
<!-- Created with Inkscape (http://www.inkscape.org/) -->

<svg
   width="210mm"
   height="297mm"
   viewBox="0 0 210 297"
   version="1.1"
   id="svg1"
   inkscape:version="1.3.2 (091e20e, 2023-11-25, custom)"
   sodipodi:docname="Ojo Diabolicote vuelo 4.svg"
   xmlns:inkscape="http://www.inkscape.org/namespaces/inkscape"
   xmlns:sodipodi="http://sodipodi.sourceforge.net/DTD/sodipodi-0.dtd"
   xmlns="http://www.w3.org/2000/svg"
   xmlns:svg="http://www.w3.org/2000/svg">
  <sodipodi:namedview
     id="namedview1"
     pagecolor="#ffffff"
     bordercolor="#000000"
     borderopacity="0.25"
     inkscape:showpageshadow="2"
     inkscape:pageopacity="0.0"
     inkscape:pagecheckerboard="0"
     inkscape:deskcolor="#d1d1d1"
     inkscape:document-units="mm"
     inkscape:zoom="0.72426347"
     inkscape:cx="396.95499"
     inkscape:cy="561.25984"
     inkscape:window-width="1920"
     inkscape:window-height="1009"
     inkscape:window-x="-8"
     inkscape:window-y="-8"
     inkscape:window-maximized="1"
     inkscape:current-layer="layer1" />
  <defs
     id="defs1" />
  <g
     inkscape:label="Capa 1"
     inkscape:groupmode="layer"
     id="layer1">
    <path
       style="fill:#000000;fill-opacity:1;fill-rule:evenodd;stroke-width:0.350105"
       d="m 69.342219,158.38049 c -6.790519,2.10724 -15.654163,5.06028 -27.335335,25.20349 -0.927615,-9.44963 -2.503368,-12.76576 -8.812218,-16.36749 l -7.973008,-0.42126 c -4.249995,1.56594 -8.500468,3.44105 -12.715421,5.10161 0.493384,-17.6068 -12.96709173,-26.74413 -25.195985,-35.2331 31.794179,7.92479 46.206224,-27.75749 56.806956,-16.74484 2.056124,4.28737 1.004361,1.09063 -2.019822,4.05454 l 8.168918,5.23888 5.787113,2.61836 5.050245,0.97389 4.305008,0.34621 c 3.07799,7.90344 3.017191,16.83416 3.933549,25.22971 z"
       id="path19-6-5"
       sodipodi:nodetypes="ccccccccccccc" />
    <path
       style="fill:#000000;fill-opacity:1;fill-rule:evenodd;stroke-width:0.350105"
       d="m 137.21791,147.45354 c 6.95316,1.48493 16.69662,3.18238 30.15044,22.18748 0.0698,-9.4948 0.6902,-12.49734 6.64775,-16.65448 l 7.9023,-1.14009 c 4.37411,1.17543 8.77666,2.65874 13.12445,3.93157 -2.08259,-17.49016 10.497,-27.80661 21.90868,-37.36601 -30.94786,10.76576 -48.52574,-23.467992 -58.0878,-11.54239 -1.66025,4.45565 -0.90169,1.17694 2.37798,3.85539 l -7.66201,5.95573 -5.52682,3.13065 -4.94155,1.42634 -4.25611,0.73384 c -2.35113,8.14927 -1.48346,17.03796 -1.63731,25.48197 z"
       id="path19-6"
       sodipodi:nodetypes="ccccccccccccc" />
    <path
       style="fill:#de8787;fill-opacity:1;fill-rule:evenodd;stroke-width:0.32629"
       d="m 139.32354,146.22068 c 6.55701,1.42515 14.64301,3.55932 27.45767,21.20291 -0.009,-8.76099 1.65035,-12.01765 7.2256,-15.80672 l 7.42974,-0.98968 c 4.12682,1.11919 8.28282,2.52271 12.38561,3.73157 -2.09844,-16.1559 9.66178,-25.57632 20.32855,-34.3074 -29.04747,9.69003 -45.86447,-22.038702 -54.77147,-11.10958 2.50246,1.47775 6.16517,2.05255 0.35803,4.70934 l -5.25471,4.3024 -5.17788,2.84524 -4.64044,1.27718 -4.00064,0.64358 c -2.14887,7.50138 -1.26193,15.71047 -1.34011,23.50115 z"
       id="path19"
       sodipodi:nodetypes="ccccccccccccc" />
    <path
       style="fill:#000000;fill-opacity:1;fill-rule:evenodd;stroke-width:0.284152"
       d="m 214.4244,120.03473 c -1.21718,1.82978 -4.05808,3.76248 -6.08712,5.6437 l -11.85904,-1.01335 -11.79553,-3.58128 -11.64333,-6.6565 -6.20636,-2.282 -2.96671,3.01207 -9.61733,7.26089 -14.56934,6.35786 -0.66481,-1.91795 -0.58223,-1.07784 13.54262,-4.62994 9.08386,-7.67299 c 3.19149,-2.04764 -0.77896,-2.64204 -1.8735,-3.82 2.88286,-3.46651 3.45634,-2.97904 7.63452,-2.2675 3.19529,1.23369 7.05283,3.83625 10.81632,6.24442 12.74807,7.88929 21.22425,10.23109 36.7879,6.40043 z"
       id="path20-4"
       sodipodi:nodetypes="ccccccccccccccccc" />
    <path
       style="fill:#ff00ff;fill-opacity:1;fill-rule:evenodd;stroke-width:0.268999"
       d="m 214.04819,120.00054 c -1.14162,1.63261 -3.8768,3.31013 -5.81519,4.96518 l -11.69177,-1.28242 -11.70679,-3.62331 -11.64998,-6.42432 -6.17167,-2.26925 -2.8263,2.65846 -9.23771,6.33401 -14.13436,5.36072 -0.71152,-1.76987 -0.60502,-1.00092 13.17689,-3.81529 8.70072,-6.72608 c 3.0764,-1.7718 -0.84569,-2.43394 -1.95754,-3.54165 2.73013,-3.07558 3.30874,-2.61354 7.43871,-1.83826 3.17917,1.22199 7.0509,3.71275 10.82429,6.02338 12.77345,7.58237 21.1789,9.9747 36.36724,6.94962 z"
       id="path20"
       sodipodi:nodetypes="ccccccccccccccccc" />
    <path
       style="fill:#de8787;fill-opacity:1;fill-rule:evenodd;stroke-width:0.32629"
       d="m 67.652351,157.30745 c -6.401358,2.01193 -14.261423,4.86811 -25.429082,23.59763 -0.782562,-8.72596 -2.729712,-11.81931 -8.624565,-15.08901 l -7.488805,-0.31415 c -4.00878,1.48756 -8.020923,3.26094 -11.997671,4.83563 0.629818,-16.27942 -11.9336902,-24.59847 -23.3458997,-32.32981 29.8043467,7.02522 43.6850397,-26.09353 53.5433347,-16.01408 -2.358692,1.69785 -5.954464,2.60132 0.06898,4.72242 l 5.622025,3.8099 5.413839,2.36564 4.736872,0.85258 4.042428,0.27938 c 2.818024,7.27649 2.676616,15.53212 3.458541,23.28387 z"
       id="path19-9"
       sodipodi:nodetypes="ccccccccccccc" />
    <path
       style="fill:#000000;fill-opacity:1;fill-rule:evenodd;stroke-width:0.425434"
       d="m 41.79895,181.06395 9.177972,-26.72211 -8.311137,26.39096 z"
       id="path21-5-9"
       sodipodi:nodetypes="cccc" />
    <path
       style="fill:#000000;fill-opacity:1;fill-rule:evenodd;stroke-width:0.284152"
       d="m -9.4345417,138.02446 c 1.3775517,1.71229 4.3814908,3.38032 6.5722507,5.07049 l 11.7189235,-2.08097 11.4236005,-4.63264 10.994118,-7.68152 5.974715,-2.83356 3.226791,2.73162 10.234174,6.36202 15.084313,5.0151 0.488675,-1.97018 0.482429,-1.12605 -13.905615,-3.38707 -9.74014,-6.82062 c -3.363475,-1.75085 0.537007,-2.70165 1.520607,-3.97372 -3.184353,-3.19177 -3.711423,-2.65447 -7.808223,-1.56823 -3.07072,1.51739 -6.677253,4.45793 -10.207719,7.19638 -11.982879,9.0091 -20.2127455,12.10738 -36.0588997,9.69895 z"
       id="path20-4-0"
       sodipodi:nodetypes="ccccccccccccccccc" />
    <path
       style="fill:#ff00ff;fill-opacity:1;fill-rule:evenodd;stroke-width:0.268999"
       d="m -9.1361617,137.94786 c 1.2844999,1.52276 4.1600969,2.94622 6.2401293,4.4193 l 11.5280168,-2.33381 11.3314356,-4.66648 11.021698,-7.45089 5.941341,-2.81773 3.054988,2.39213 9.77234,5.47325 14.560992,4.06138 0.548657,-1.82694 0.512112,-1.0515 -13.467786,-2.60879 -9.272979,-5.91223 c -3.223958,-1.48653 0.622284,-2.50041 1.629458,-3.70408 -2.996915,-2.81625 -3.531403,-2.30381 -7.5744,-1.15848 -3.055759,1.50429 -6.686493,4.33486 -10.235651,6.97701 -12.035935,8.70572 -20.1907727,11.84791 -35.5903517,10.20786 z"
       id="path20-8"
       sodipodi:nodetypes="ccccccccccccccccc" />
    <ellipse
       style="fill:#000000;fill-opacity:1;fill-rule:evenodd;stroke-width:0.232241"
       id="path22"
       cx="-104.57594"
       cy="146.13469"
       rx="41.586716"
       ry="42.134686"
       transform="scale(-1,1)" />
    <path
       id="path1"
       style="fill:#e6e6e6;fill-rule:evenodd;stroke-width:0.268827"
       d="m 104.6629,106.00003 a 40.500089,39.999896 0 0 1 40.49974,39.99973 40.500089,39.999896 0 0 1 -40.49974,40.00026 40.500089,39.999896 0 0 1 -40.500245,-40.00026 40.500089,39.999896 0 0 1 40.500245,-39.99973 z m -6.299877,29.68045 c -0.0482,-10e-4 -0.0979,-10e-4 -0.14917,0 -0.51936,0.0122 -0.99719,0.22963 -1.46581,0.43199 -0.51524,0.22406 -0.99941,0.50388 -1.45652,0.82937 -0.3971,0.29364 -0.75777,0.62201 -1.05342,1.01798 -0.29295,0.44033 -0.41476,0.95188 -0.50065,1.46599 -0.0805,0.46016 -0.0858,0.92138 -0.0289,1.38382 0.0605,0.44774 0.19852,0.87693 0.46141,1.24793 0.0601,0.0849 0.13376,0.15913 0.20078,0.23873 0.3973,0.42185 0.91166,0.69645 1.43175,0.93581 0.3791,0.15741 0.77955,0.29758 1.19587,0.29558 0.12576,-6e-4 0.25091,-0.0203 0.37626,-0.0305 0.6568,-0.097 1.22909,-0.36104 1.78737,-0.70844 0.65714,-0.45583 1.059267,-1.04877 1.386317,-1.76467 0.24506,-0.58404 0.32912,-1.21218 0.38865,-1.83753 0.005,-0.39582 0.0888,-0.80015 0.0526,-1.19676 -0.01,-0.10778 -0.0321,-0.21385 -0.048,-0.32089 -0.16801,-0.59003 -0.44882,-0.89744 -0.978067,-1.18128 -0.13537,-0.0721 -0.27699,-0.12573 -0.42219,-0.16793 -0.065,-0.34108 -0.45407,-0.62135 -1.17832,-0.63921 z m 9.627377,15.15957 c -0.0325,-6.5e-4 -0.0654,-5.9e-4 -0.0991,0 -0.24028,0.004 -0.48518,-0.0142 -0.72258,0.0341 -0.10282,0.021 -0.20305,0.0534 -0.30453,0.0801 -0.40573,0.15415 -0.77739,0.40416 -1.00387,0.78441 -0.0481,0.0809 -0.0843,0.16858 -0.12645,0.25268 -0.17978,0.42574 -0.19845,0.83123 -0.10736,1.27997 0.10451,0.40347 0.27166,0.71007 0.624,0.95803 0.0687,0.0483 0.14856,0.0782 0.22297,0.1173 0.61862,0.22111 1.01508,0.13464 1.55511,-0.22013 0.23613,-0.19294 0.44953,-0.41105 0.64774,-0.6423 0.21863,-0.244 0.37309,-0.53397 0.49033,-0.83764 0.0733,-0.22817 0.0797,-0.45654 0.0269,-0.66659 0.20294,-0.50979 -0.19761,-1.11953 -1.2031,-1.13994 z m -0.60904,2.01685 c 0.004,1.3e-4 0.003,4.2e-4 0.007,5.1e-4 -0.001,0.003 -0.003,0.004 -0.007,5.2e-4 -2.8e-4,-2.9e-4 -2.5e-4,-7.7e-4 -5.1e-4,-0.001 z m 0.0253,0.0103 c 0.0568,0.085 0.0406,0.10776 0.004,0.0202 -0.002,-0.006 -0.003,-0.0134 -0.004,-0.0202 z" />
    <path
       id="path2"
       style="fill:#000000;fill-rule:evenodd;stroke-width:0.362398"
       d="m 103.66269,122.00026 a 23.5,23.5 0 0 1 23.49986,23.49986 23.5,23.5 0 0 1 -23.49986,23.49986 23.5,23.5 0 0 1 -23.499857,-23.49986 23.5,23.5 0 0 1 23.499857,-23.49986 z m -5.383127,14.0839 c -0.0483,-0.001 -0.098,-0.001 -0.14935,0 -0.52,0.0122 -0.99841,0.22964 -1.46761,0.43201 -0.51587,0.22407 -1.00064,0.5039 -1.45831,0.82941 -0.39759,0.29365 -0.7587,0.62204 -1.05471,1.01803 -0.29331,0.44035 -0.41527,0.95192 -0.50127,1.46606 -0.0806,0.46018 -0.0859,0.92142 -0.0289,1.38389 0.0606,0.44776 0.19876,0.87697 0.46198,1.24799 0.0602,0.0849 0.13392,0.15914 0.20102,0.23874 0.39779,0.42187 0.91278,0.69648 1.43351,0.93586 0.37957,0.15741 0.78051,0.29759 1.19734,0.29559 0.12591,-6e-4 0.25122,-0.0203 0.37672,-0.0305 0.65761,-0.097 1.2306,-0.36106 1.78956,-0.70848 0.65795,-0.45585 1.060567,-1.04882 1.388027,-1.76475 0.24536,-0.58407 0.32952,-1.21224 0.38912,-1.83762 0.005,-0.39585 0.0889,-0.80019 0.0527,-1.19682 -0.01,-0.10779 -0.0321,-0.21386 -0.0481,-0.32091 -0.16822,-0.59005 -0.44937,-0.89748 -0.979267,-1.18133 -0.13554,-0.0721 -0.27733,-0.12574 -0.42271,-0.16794 -0.0651,-0.3411 -0.45463,-0.62138 -1.17977,-0.63924 z m -0.21291,3.1657 c -1.3e-4,0.0366 -0.003,0.0731 -0.008,0.10955 -5.4e-4,-0.005 -0.002,-0.009 -0.002,-0.0139 -2e-5,-0.0282 -0.004,-0.0567 -5.2e-4,-0.0847 10e-4,-0.005 0.0104,-0.0159 0.0103,-0.0109 z m 9.852107,11.99461 c -0.0325,-6.5e-4 -0.0655,-5.9e-4 -0.0992,0 -0.24057,0.004 -0.48577,-0.0142 -0.72347,0.0341 -0.10294,0.021 -0.20329,0.0534 -0.3049,0.0801 -0.40623,0.15416 -0.77834,0.40418 -1.0051,0.78445 -0.0482,0.0809 -0.0844,0.16859 -0.12661,0.25269 -0.17999,0.42576 -0.19868,0.83127 -0.10749,1.28003 0.10464,0.40349 0.27199,0.71011 0.62477,0.95808 0.0688,0.0483 0.14874,0.0782 0.22324,0.11731 0.61938,0.22112 1.01633,0.13465 1.55702,-0.22014 0.23642,-0.19295 0.45008,-0.41107 0.64854,-0.64234 0.21889,-0.24401 0.37354,-0.53399 0.49093,-0.83768 0.0734,-0.22818 0.0798,-0.45656 0.0269,-0.66662 0.20319,-0.50981 -0.19785,-1.11958 -1.20458,-1.13999 z m -0.6103,2.01694 c 0.005,1.2e-4 0.004,4.1e-4 0.008,5.1e-4 -0.001,0.003 -0.003,0.004 -0.007,5.2e-4 -2.9e-4,-2.9e-4 -2.5e-4,-7.4e-4 -5.2e-4,-0.001 z m 0.0258,0.0103 c 0.0569,0.085 0.0406,0.10782 0.004,0.0202 -0.002,-0.006 -0.003,-0.0134 -0.004,-0.0202 z" />
    <path
       id="path3"
       style="fill:#aa0000;fill-rule:evenodd;stroke-width:0.417208"
       d="m 103.66269,123.0002 a 22.5,22.5 0 0 1 22.49991,22.49992 22.5,22.5 0 0 1 -22.49991,22.49992 22.5,22.5 0 0 1 -22.499917,-22.49992 22.5,22.5 0 0 1 22.499917,-22.49992 z m -5.383127,13.08396 c -0.0483,-0.001 -0.098,-0.001 -0.14935,0 -0.52,0.0122 -0.99841,0.22964 -1.46761,0.43201 -0.51587,0.22407 -1.00064,0.5039 -1.45831,0.82941 -0.39759,0.29365 -0.7587,0.62204 -1.05471,1.01803 -0.29331,0.44035 -0.41527,0.95192 -0.50127,1.46606 -0.0806,0.46018 -0.0859,0.92142 -0.0289,1.38389 0.0606,0.44776 0.19876,0.87697 0.46198,1.24799 0.0602,0.0849 0.13392,0.15914 0.20102,0.23874 0.39779,0.42187 0.91278,0.69648 1.43351,0.93586 0.37957,0.15741 0.78051,0.29759 1.19734,0.29559 0.12591,-6e-4 0.25122,-0.0203 0.37672,-0.0305 0.65761,-0.097 1.2306,-0.36106 1.78956,-0.70848 0.65795,-0.45585 1.060567,-1.04882 1.388027,-1.76475 0.24536,-0.58407 0.32952,-1.21224 0.38912,-1.83762 0.005,-0.39585 0.0889,-0.80019 0.0527,-1.19682 -0.01,-0.10779 -0.0321,-0.21386 -0.0481,-0.32091 -0.16822,-0.59005 -0.44937,-0.89748 -0.979267,-1.18133 -0.13554,-0.0721 -0.27733,-0.12574 -0.42271,-0.16794 -0.0651,-0.3411 -0.45463,-0.62138 -1.17977,-0.63924 z m -0.21291,3.1657 c -1.3e-4,0.0366 -0.003,0.0731 -0.008,0.10955 -5.4e-4,-0.005 -0.002,-0.009 -0.002,-0.0139 -2e-5,-0.0282 -0.004,-0.0567 -5.2e-4,-0.0847 10e-4,-0.005 0.0104,-0.0159 0.0103,-0.0109 z m 9.852107,11.99461 c -0.0325,-6.5e-4 -0.0655,-5.9e-4 -0.0992,0 -0.24057,0.004 -0.48577,-0.0142 -0.72347,0.0341 -0.10294,0.021 -0.20329,0.0534 -0.3049,0.0801 -0.40623,0.15416 -0.77834,0.40418 -1.0051,0.78445 -0.0482,0.0809 -0.0844,0.16859 -0.12661,0.25269 -0.17999,0.42576 -0.19868,0.83127 -0.10749,1.28003 0.10464,0.40349 0.27199,0.71011 0.62477,0.95808 0.0688,0.0483 0.14874,0.0782 0.22324,0.11731 0.61938,0.22112 1.01633,0.13465 1.55702,-0.22014 0.23642,-0.19295 0.45008,-0.41107 0.64854,-0.64234 0.21889,-0.24401 0.37354,-0.53399 0.49093,-0.83768 0.0734,-0.22818 0.0798,-0.45656 0.0269,-0.66662 0.20319,-0.50981 -0.19785,-1.11958 -1.20458,-1.13999 z m -0.6103,2.01694 c 0.005,1.2e-4 0.004,4.1e-4 0.008,5.1e-4 -0.001,0.003 -0.003,0.004 -0.007,5.2e-4 -2.9e-4,-2.9e-4 -2.5e-4,-7.4e-4 -5.2e-4,-0.001 z m 0.0258,0.0103 c 0.0569,0.085 0.0406,0.10782 0.004,0.0202 -0.002,-0.006 -0.003,-0.0134 -0.004,-0.0202 z" />
    <path
       id="path4"
       style="fill:#000000;fill-rule:evenodd;stroke-width:0.272366"
       d="m 103.04619,134.53128 a 12.5,11 0 0 1 12.50001,10.99985 12.5,11 0 0 1 -12.50001,11.00036 12.5,11 0 0 1 -12.500007,-11.00036 12.5,11 0 0 1 12.500007,-10.99985 z m -4.766627,1.55288 c -0.0483,-0.001 -0.098,-0.001 -0.14935,0 -0.52,0.0122 -0.99841,0.22964 -1.46761,0.43201 -0.51587,0.22407 -1.00064,0.5039 -1.45831,0.82941 -0.39759,0.29365 -0.7587,0.62204 -1.05471,1.01803 -0.29331,0.44035 -0.41527,0.95192 -0.50127,1.46606 -0.0806,0.46018 -0.0859,0.92142 -0.0289,1.38389 0.0606,0.44776 0.19876,0.87697 0.46198,1.24799 0.0602,0.0849 0.13392,0.15914 0.20102,0.23874 0.39779,0.42187 0.91278,0.69648 1.43351,0.93586 0.37957,0.15741 0.78051,0.29759 1.19734,0.29559 0.12591,-6e-4 0.25122,-0.0203 0.37672,-0.0305 0.65761,-0.097 1.2306,-0.36106 1.78956,-0.70848 0.65795,-0.45585 1.060567,-1.04882 1.388027,-1.76475 0.24536,-0.58407 0.32952,-1.21224 0.38912,-1.83762 0.005,-0.39585 0.0889,-0.80019 0.0527,-1.19682 -0.01,-0.10779 -0.0321,-0.21386 -0.0481,-0.32091 -0.16822,-0.59005 -0.44937,-0.89748 -0.979267,-1.18133 -0.13554,-0.0721 -0.27733,-0.12574 -0.42271,-0.16794 -0.0651,-0.3411 -0.45463,-0.62138 -1.17977,-0.63924 z m -0.21291,3.1657 c -1.3e-4,0.0366 -0.003,0.0731 -0.008,0.10955 -5.4e-4,-0.005 -0.002,-0.009 -0.002,-0.0139 -2e-5,-0.0282 -0.004,-0.0567 -5.2e-4,-0.0847 10e-4,-0.005 0.0104,-0.0159 0.0103,-0.0109 z m 9.852107,11.99461 c -0.0325,-6.5e-4 -0.0655,-5.9e-4 -0.0992,0 -0.24057,0.004 -0.48577,-0.0142 -0.72347,0.0341 -0.10294,0.021 -0.20329,0.0534 -0.3049,0.0801 -0.40623,0.15416 -0.77834,0.40418 -1.0051,0.78445 -0.0482,0.0809 -0.0844,0.16859 -0.12661,0.25269 -0.17999,0.42576 -0.19868,0.83127 -0.10749,1.28003 0.10464,0.40349 0.27199,0.71011 0.62477,0.95808 0.0688,0.0483 0.14874,0.0782 0.22324,0.11731 0.61938,0.22112 1.01633,0.13465 1.55702,-0.22014 0.23642,-0.19295 0.45008,-0.41107 0.64854,-0.64234 0.21889,-0.24401 0.37354,-0.53399 0.49093,-0.83768 0.0734,-0.22818 0.0798,-0.45656 0.0269,-0.66662 0.20319,-0.50981 -0.19785,-1.11958 -1.20458,-1.13999 z m -0.6103,2.01694 c 0.005,1.2e-4 0.004,4.1e-4 0.008,5.1e-4 -0.001,0.003 -0.003,0.004 -0.007,5.2e-4 -2.9e-4,-2.9e-4 -2.5e-4,-7.4e-4 -5.2e-4,-0.001 z m 0.0258,0.0103 c 0.0569,0.085 0.0406,0.10782 0.004,0.0202 -0.002,-0.006 -0.003,-0.0134 -0.004,-0.0202 z" />
    <path
       style="fill:#e6e6e6;fill-opacity:1;fill-rule:evenodd;stroke-width:0.0464264"
       d="m 97.623523,143.80359 c 1.68776,-0.44273 2.801957,-1.66628 3.100117,-3.40436 0.0986,-0.57463 0.1797,-1.63093 0.15249,-1.98562 -0.0507,-0.66062 -0.40447,-1.18443 -1.001787,-1.48326 -0.17747,-0.0888 -0.3485,-0.16142 -0.38007,-0.16142 -0.0316,0 -0.0697,-0.0491 -0.0848,-0.10907 -0.078,-0.31057 -0.6142,-0.54432 -1.23607,-0.53879 -0.42683,0.004 -0.75366,0.0944 -1.44629,0.40113 -1.14318,0.50619 -2.13365,1.24056 -2.58,1.91294 -0.43668,0.65781 -0.65186,2.12904 -0.44622,3.05102 0.16851,0.75552 0.62411,1.35078 1.36472,1.78306 0.99159,0.57877 1.76927,0.74124 2.5579,0.53437 z m 0.38784,-4.5003 c 0,-0.0377 0.0206,-0.0685 0.0457,-0.0685 0.0251,0 0.0457,0.0308 0.0457,0.0685 0,0.0377 -0.0206,0.0685 -0.0457,0.0685 -0.0251,0 -0.0457,-0.0308 -0.0457,-0.0685 z"
       id="path16" />
    <path
       style="fill:#e6e6e6;fill-opacity:1;fill-rule:evenodd;stroke-width:0.0464264"
       d="m 107.47915,154.74023 c 0.37286,-0.15331 0.58581,-0.31182 0.95206,-0.70869 0.20614,-0.22337 0.38092,-0.47213 0.49837,-0.70933 0.16882,-0.34093 0.18215,-0.39709 0.19972,-0.84119 0.0129,-0.32486 9e-5,-0.52071 -0.0402,-0.61718 -0.18921,-0.45282 -0.92423,-0.6877 -1.8053,-0.57687 -1.06354,0.13377 -1.74355,0.87348 -1.74176,1.89464 0.002,0.84522 0.39097,1.42124 1.08285,1.60145 0.3623,0.0944 0.54259,0.0853 0.85427,-0.0428 z"
       id="path17" />
    <path
       style="fill:#000000;fill-opacity:1;fill-rule:evenodd;stroke-width:0.268999"
       d="m 193.81351,154.35738 -9.36148,-15.47456 8.72629,15.28403 z"
       id="path21"
       sodipodi:nodetypes="cccc" />
    <path
       style="fill:#000000;fill-opacity:1;fill-rule:evenodd;stroke-width:0.425434"
       d="m 167.18066,167.47751 -11.55541,-25.78328 10.6622,25.53184 z"
       id="path21-5"
       sodipodi:nodetypes="cccc" />
    <path
       style="fill:#000000;fill-opacity:1;fill-rule:evenodd;stroke-width:0.268999"
       d="m 13.943583,170.52814 7.924671,-16.25729 -7.309287,16.0101 z"
       id="path21-9"
       sodipodi:nodetypes="cccc" />
  </g>
</svg>
