<?xml version="1.0" encoding="UTF-8" standalone="no"?>
<!-- Created with Inkscape (http://www.inkscape.org/) -->

<svg
   width="210mm"
   height="297mm"
   viewBox="0 0 210 297"
   version="1.1"
   id="svg1"
   inkscape:version="1.3.2 (091e20e, 2023-11-25, custom)"
   sodipodi:docname="Ojo Diabolicote vuelo 1.svg"
   xmlns:inkscape="http://www.inkscape.org/namespaces/inkscape"
   xmlns:sodipodi="http://sodipodi.sourceforge.net/DTD/sodipodi-0.dtd"
   xmlns="http://www.w3.org/2000/svg"
   xmlns:svg="http://www.w3.org/2000/svg">
  <sodipodi:namedview
     id="namedview1"
     pagecolor="#ffffff"
     bordercolor="#000000"
     borderopacity="0.25"
     inkscape:showpageshadow="2"
     inkscape:pageopacity="0.0"
     inkscape:pagecheckerboard="0"
     inkscape:deskcolor="#d1d1d1"
     inkscape:document-units="mm"
     inkscape:zoom="0.72426347"
     inkscape:cx="396.95499"
     inkscape:cy="561.25984"
     inkscape:window-width="1920"
     inkscape:window-height="1009"
     inkscape:window-x="-8"
     inkscape:window-y="-8"
     inkscape:window-maximized="1"
     inkscape:current-layer="layer1" />
  <defs
     id="defs1" />
  <g
     inkscape:label="Capa 1"
     inkscape:groupmode="layer"
     id="layer1">
    <path
       style="fill:#000000;fill-opacity:1;fill-rule:evenodd;stroke-width:0.350105"
       d="m 58.642848,153.63054 c -6.8241,-1.99581 -15.84343,-4.43225 -36.7097,5.90204 4.44834,-8.38858 4.96735,-12.02318 1.69926,-18.51114 l -6.41252,-4.75667 c -4.40753,-1.04321 -8.9862997,-1.82899 -13.4169097,-2.77397 10.1400297,-14.40218 3.97,-29.45562 -1.5318,-43.288131 22.1206897,24.173271 53.8493297,2.39655 56.5996097,17.432841 -0.6553,4.70953 0.23447,1.46398 -3.92384,2.26327 l 3.91378,8.88029 3.37661,5.38005 3.67111,3.60228 3.39681,2.66732 c -1.8017,8.28809 -6.78713,15.69802 -10.66241,23.20182 z"
       id="path19-6-5"
       sodipodi:nodetypes="ccccccccccccc" />
    <path
       style="fill:#000000;fill-opacity:1;fill-rule:evenodd;stroke-width:0.350105"
       d="m 129.13246,168.88258 c 6.04136,3.74878 14.63678,8.64114 20.87109,31.07621 3.27652,-8.91182 4.87572,-11.52767 11.88809,-13.42526 l 7.82229,1.59937 c 3.71893,2.58537 7.3605,5.47008 11.02171,8.1382 3.95469,-17.16401 19.28186,-22.61867 33.25389,-27.75584 -32.76522,-0.33403 -37.73079,-38.49522 -50.76237,-30.50576 -3.06918,3.63171 -1.24657,0.80269 0.93413,4.43242 l -9.22465,3.01381 -6.25989,1.07723 -5.13277,-0.32877 -4.25352,-0.74866 c -4.96843,6.87409 -7.15774,15.53254 -10.158,23.42705 z"
       id="path19-6"
       sodipodi:nodetypes="ccccccccccccc" />
    <path
       style="fill:#de8787;fill-opacity:1;fill-rule:evenodd;stroke-width:0.32629"
       d="m 131.53095,168.4344 c 5.68877,3.55856 12.5767,8.30141 18.66991,29.23904 2.95397,-8.24797 5.6171,-10.75155 12.14522,-12.43202 l 7.32671,1.58113 c 3.50522,2.44879 6.94175,5.17506 10.39403,7.70012 3.48853,-15.91372 17.74163,-20.80224 30.73255,-25.41178 -30.61303,-0.70373 -35.70966,-36.25018 -47.78779,-28.97696 1.85531,2.23693 5.10785,4.01647 -1.2556,4.55296 l -6.40006,2.27197 -5.83501,0.92663 -4.79895,-0.3673 -3.98258,-0.74723 c -4.559,6.33277 -6.50035,14.35816 -9.20847,21.66343 z"
       id="path19"
       sodipodi:nodetypes="ccccccccccccc" />
    <path
       style="fill:#000000;fill-opacity:1;fill-rule:evenodd;stroke-width:0.284152"
       d="m 211.06255,169.18778 c -1.76423,1.31037 -5.09134,2.16851 -7.63701,3.25275 l -10.8177,-4.96398 -9.88954,-7.35915 -8.70637,-10.20172 -5.06902,-4.24635 -3.81051,1.83137 -11.50613,3.58086 -15.86103,1.05642 0.023,-2.02976 -0.18344,-1.21123 14.31046,0.22249 11.14345,-4.14908 c 3.6959,-0.84775 0.16038,-2.74981 -0.47133,-4.22851 3.88528,-2.28739 4.26012,-1.63471 7.95154,0.44783 2.58985,2.24155 5.34002,5.99527 8.06743,9.53426 9.32913,11.73546 16.51403,16.80567 32.45617,18.4638 z"
       id="path20-4"
       sodipodi:nodetypes="ccccccccccccccccc" />
    <path
       style="fill:#ff00ff;fill-opacity:1;fill-rule:evenodd;stroke-width:0.268999"
       d="m 210.72007,169.02839 c -1.62646,1.15037 -4.76778,1.80411 -7.15166,2.70615 l -10.56928,-5.16063 -9.79182,-7.3687 -8.79114,-9.98546 -5.04069,-4.22262 -3.55879,1.54607 -10.83544,2.83697 -15.11446,0.26512 -0.0711,-1.90621 -0.2309,-1.14655 13.69079,0.86548 10.46266,-3.38754 c 3.49433,-0.62708 0.0272,-2.57653 -0.64454,-3.99497 3.60935,-1.97114 3.99762,-1.34065 7.62211,0.78556 2.57863,2.2251 5.37997,5.87841 8.14968,9.32895 9.45682,11.45521 16.55806,16.54905 31.87458,18.83838 z"
       id="path20"
       sodipodi:nodetypes="ccccccccccccccccc" />
    <path
       style="fill:#de8787;fill-opacity:1;fill-rule:evenodd;stroke-width:0.32629"
       d="m 57.827308,151.80244 c -6.44707,-1.86025 -14.57644,-3.82284 -34.23356,5.61692 4.16937,-7.70528 4.25573,-11.35942 1.14923,-17.34188 l -6.06813,-4.39985 c -4.16318,-0.97524 -8.48709,-1.71413 -12.6717197,-2.59905 9.5202897,-13.22046 3.64571,-27.09626 -1.59404,-39.846041 20.9592797,22.324011 50.8285497,2.390314 53.4756797,16.238561 -2.90407,0.1118 -6.40027,-1.12206 -2.55192,3.97413 l 2.58061,6.28196 3.20513,4.96317 3.47696,3.328 3.21488,2.46654 c -1.67194,7.62188 -6.35153,14.4246 -9.98312,21.31754 z"
       id="path19-9"
       sodipodi:nodetypes="ccccccccccccc" />
    <path
       style="fill:#000000;fill-opacity:1;fill-rule:evenodd;stroke-width:0.425434"
       d="m 23.152308,157.3173 22.41515,-17.20079 -21.50969,17.40377 z"
       id="path21-5-9"
       sodipodi:nodetypes="cccc" />
    <path
       style="fill:#000000;fill-opacity:1;fill-rule:evenodd;stroke-width:0.284152"
       d="m 4.2324283,93.135479 c 0.20201,2.188334 1.78403,5.238444 2.67605,7.857681 l 10.9172697,4.74097 12.08108,2.45104 13.4078,-0.32744 6.54548,0.93968 1.18006,4.05973 5.01452,10.95756 9.80123,12.51494 1.49594,-1.37207 1.0243,-0.67196 -9.7184,-10.50672 -4.34935,-11.06681 c -1.83592,-3.3178 1.9404,-1.95502 3.4631,-2.47176 -0.89043,-4.4198 -1.62662,-4.26321 -5.6414,-5.6216 -3.39782,-0.43203 -8.02859,0.026 -12.4843,0.35764 -14.96547,0.88758 -23.53683,-1.07758 -35.4133797,-11.840881 z"
       id="path20-4-0"
       sodipodi:nodetypes="ccccccccccccccccc" />
    <path
       style="fill:#ff00ff;fill-opacity:1;fill-rule:evenodd;stroke-width:0.268999"
       d="m 4.5234483,93.236509 c 0.22918,1.97894 1.83937,4.754294 2.75905,7.131421 l 10.8978697,4.42474 12.02296,2.3719 13.30335,-0.11997 6.50892,0.93443 1.22445,3.68185 5.12069,9.96161 9.89205,11.43086 1.46678,-1.21953 1.00785,-0.59343 -9.78353,-9.61611 -4.46192,-10.05157 c -1.86569,-3.0204 1.90028,-1.74017 3.40483,-2.18687 -0.9417,-4.00325 -1.67034,-3.87147 -5.67293,-5.15087 -3.37811,-0.43466 -7.96828,-0.0817 -12.38636,0.15935 -14.84206,0.60542 -23.37515,-1.28168 -35.3040597,-11.157811 z"
       id="path20-8"
       sodipodi:nodetypes="ccccccccccccccccc" />
    <ellipse
       style="fill:#000000;fill-opacity:1;fill-rule:evenodd;stroke-width:0.232241"
       id="path22"
       cx="-97.595863"
       cy="153.79623"
       rx="41.586716"
       ry="42.134686"
       transform="scale(-1,1)" />
    <path
       id="path1"
       style="fill:#e6e6e6;fill-rule:evenodd;stroke-width:0.268827"
       d="m 97.682828,113.66156 a 40.500089,39.999896 0 0 1 40.499742,39.99974 40.500089,39.999896 0 0 1 -40.499742,40.00026 40.500089,39.999896 0 0 1 -40.50025,-40.00026 40.500089,39.999896 0 0 1 40.50025,-39.99974 z m -6.29988,29.68046 c -0.0482,-0.001 -0.0979,-0.001 -0.14917,0 -0.51936,0.0122 -0.99719,0.22963 -1.46581,0.43199 -0.51524,0.22406 -0.99941,0.50388 -1.45652,0.82937 -0.3971,0.29364 -0.75777,0.62201 -1.05342,1.01798 -0.29295,0.44033 -0.41476,0.95188 -0.50065,1.46599 -0.0805,0.46016 -0.0858,0.92138 -0.0289,1.38382 0.0605,0.44774 0.19852,0.87693 0.46141,1.24793 0.0601,0.0849 0.13376,0.15913 0.20078,0.23873 0.3973,0.42185 0.91166,0.69645 1.43175,0.93581 0.3791,0.15741 0.77955,0.29758 1.19587,0.29558 0.12576,-6e-4 0.25091,-0.0203 0.37626,-0.0305 0.6568,-0.097 1.22909,-0.36104 1.78737,-0.70844 0.65714,-0.45583 1.05927,-1.04877 1.38632,-1.76467 0.24506,-0.58404 0.32912,-1.21218 0.38865,-1.83753 0.005,-0.39582 0.0888,-0.80015 0.0526,-1.19676 -0.01,-0.10778 -0.0321,-0.21385 -0.048,-0.32089 -0.16801,-0.59003 -0.44882,-0.89744 -0.97807,-1.18128 -0.13537,-0.0721 -0.27699,-0.12573 -0.42219,-0.16793 -0.065,-0.34108 -0.45407,-0.62135 -1.17832,-0.63921 z m 9.627372,15.15957 c -0.0325,-6.5e-4 -0.0654,-5.9e-4 -0.0991,0 -0.24028,0.004 -0.48518,-0.0142 -0.72258,0.0341 -0.10282,0.021 -0.203042,0.0534 -0.304522,0.0801 -0.40573,0.15415 -0.77739,0.40416 -1.00387,0.78441 -0.0481,0.0809 -0.0843,0.16858 -0.12645,0.25268 -0.17978,0.42574 -0.19845,0.83123 -0.10736,1.27997 0.10451,0.40347 0.27166,0.71007 0.624,0.95803 0.0687,0.0483 0.14856,0.0782 0.22297,0.1173 0.618612,0.22111 1.015072,0.13464 1.555102,-0.22013 0.23613,-0.19294 0.44953,-0.41105 0.64774,-0.6423 0.21863,-0.244 0.37309,-0.53397 0.49033,-0.83764 0.0733,-0.22817 0.0797,-0.45654 0.0269,-0.66659 0.20294,-0.50979 -0.19761,-1.11953 -1.2031,-1.13994 z m -0.60904,2.01685 c 0.004,1.3e-4 0.003,4.2e-4 0.007,5.1e-4 -0.001,0.003 -0.003,0.004 -0.007,5.2e-4 -2.8e-4,-2.9e-4 -2.5e-4,-7.7e-4 -5.1e-4,-0.001 z m 0.0253,0.0103 c 0.0568,0.085 0.0406,0.10776 0.004,0.0202 -0.002,-0.006 -0.003,-0.0134 -0.004,-0.0202 z" />
    <path
       id="path2"
       style="fill:#000000;fill-rule:evenodd;stroke-width:0.362398"
       d="m 96.682618,129.6618 a 23.5,23.5 0 0 1 23.499852,23.49986 23.5,23.5 0 0 1 -23.499852,23.49986 23.5,23.5 0 0 1 -23.49986,-23.49986 23.5,23.5 0 0 1 23.49986,-23.49986 z m -5.38313,14.0839 c -0.0483,-0.001 -0.098,-0.001 -0.14935,0 -0.52,0.0122 -0.99841,0.22964 -1.46761,0.43201 -0.51587,0.22407 -1.00064,0.5039 -1.45831,0.82941 -0.39759,0.29365 -0.7587,0.62204 -1.05471,1.01803 -0.29331,0.44035 -0.41527,0.95192 -0.50127,1.46606 -0.0806,0.46018 -0.0859,0.92142 -0.0289,1.38389 0.0606,0.44776 0.19876,0.87697 0.46198,1.24799 0.0602,0.0849 0.13392,0.15914 0.20102,0.23874 0.39779,0.42187 0.91278,0.69648 1.43351,0.93586 0.37957,0.15741 0.78051,0.29759 1.19734,0.29559 0.12591,-6e-4 0.25122,-0.0203 0.37672,-0.0305 0.65761,-0.097 1.2306,-0.36106 1.78956,-0.70848 0.65795,-0.45585 1.06057,-1.04882 1.38803,-1.76475 0.24536,-0.58407 0.32952,-1.21224 0.38912,-1.83762 0.005,-0.39585 0.0889,-0.80019 0.0527,-1.19682 -0.01,-0.10779 -0.0321,-0.21386 -0.0481,-0.32091 -0.16822,-0.59005 -0.44937,-0.89748 -0.97927,-1.18133 -0.13554,-0.0721 -0.27733,-0.12574 -0.42271,-0.16794 -0.0651,-0.3411 -0.45463,-0.62138 -1.17977,-0.63924 z m -0.21291,3.1657 c -1.3e-4,0.0366 -0.003,0.0731 -0.008,0.10955 -5.4e-4,-0.005 -0.002,-0.009 -0.002,-0.0139 -2e-5,-0.0282 -0.004,-0.0567 -5.2e-4,-0.0847 10e-4,-0.005 0.0104,-0.0159 0.0103,-0.0109 z m 9.852102,11.99461 c -0.0325,-6.5e-4 -0.0655,-5.9e-4 -0.0992,0 -0.24057,0.004 -0.48577,-0.0142 -0.72347,0.0341 -0.10294,0.021 -0.203282,0.0534 -0.304892,0.0801 -0.40623,0.15416 -0.77834,0.40418 -1.0051,0.78445 -0.0482,0.0809 -0.0844,0.16859 -0.12661,0.25269 -0.17999,0.42576 -0.19868,0.83127 -0.10749,1.28003 0.10464,0.40349 0.27199,0.71011 0.62477,0.95808 0.0688,0.0483 0.14874,0.0782 0.22324,0.11731 0.619372,0.22112 1.016322,0.13465 1.557012,-0.22014 0.23642,-0.19295 0.45008,-0.41107 0.64854,-0.64234 0.21889,-0.24401 0.37354,-0.53399 0.49093,-0.83768 0.0734,-0.22818 0.0798,-0.45656 0.0269,-0.66662 0.20319,-0.50981 -0.19785,-1.11958 -1.20458,-1.13999 z m -0.6103,2.01694 c 0.005,1.2e-4 0.004,4.1e-4 0.008,5.1e-4 -0.001,0.003 -0.003,0.004 -0.007,5.2e-4 -2.9e-4,-2.9e-4 -2.5e-4,-7.4e-4 -5.2e-4,-0.001 z m 0.0258,0.0103 c 0.0569,0.085 0.0406,0.10782 0.004,0.0202 -0.002,-0.006 -0.003,-0.0134 -0.004,-0.0202 z" />
    <path
       id="path3"
       style="fill:#aa0000;fill-rule:evenodd;stroke-width:0.417208"
       d="m 96.682618,130.66174 a 22.5,22.5 0 0 1 22.499912,22.49992 22.5,22.5 0 0 1 -22.499912,22.49992 22.5,22.5 0 0 1 -22.49992,-22.49992 22.5,22.5 0 0 1 22.49992,-22.49992 z m -5.38313,13.08396 c -0.0483,-0.001 -0.098,-0.001 -0.14935,0 -0.52,0.0122 -0.99841,0.22964 -1.46761,0.43201 -0.51587,0.22407 -1.00064,0.5039 -1.45831,0.82941 -0.39759,0.29365 -0.7587,0.62204 -1.05471,1.01803 -0.29331,0.44035 -0.41527,0.95192 -0.50127,1.46606 -0.0806,0.46018 -0.0859,0.92142 -0.0289,1.38389 0.0606,0.44776 0.19876,0.87697 0.46198,1.24799 0.0602,0.0849 0.13392,0.15914 0.20102,0.23874 0.39779,0.42187 0.91278,0.69648 1.43351,0.93586 0.37957,0.15741 0.78051,0.29759 1.19734,0.29559 0.12591,-6e-4 0.25122,-0.0203 0.37672,-0.0305 0.65761,-0.097 1.2306,-0.36106 1.78956,-0.70848 0.65795,-0.45585 1.06057,-1.04882 1.38803,-1.76475 0.24536,-0.58407 0.32952,-1.21224 0.38912,-1.83762 0.005,-0.39585 0.0889,-0.80019 0.0527,-1.19682 -0.01,-0.10779 -0.0321,-0.21386 -0.0481,-0.32091 -0.16822,-0.59005 -0.44937,-0.89748 -0.97927,-1.18133 -0.13554,-0.0721 -0.27733,-0.12574 -0.42271,-0.16794 -0.0651,-0.3411 -0.45463,-0.62138 -1.17977,-0.63924 z m -0.21291,3.1657 c -1.3e-4,0.0366 -0.003,0.0731 -0.008,0.10955 -5.4e-4,-0.005 -0.002,-0.009 -0.002,-0.0139 -2e-5,-0.0282 -0.004,-0.0567 -5.2e-4,-0.0847 10e-4,-0.005 0.0104,-0.0159 0.0103,-0.0109 z m 9.852102,11.99461 c -0.0325,-6.5e-4 -0.0655,-5.9e-4 -0.0992,0 -0.24057,0.004 -0.48577,-0.0142 -0.72347,0.0341 -0.10294,0.021 -0.203282,0.0534 -0.304892,0.0801 -0.40623,0.15416 -0.77834,0.40418 -1.0051,0.78445 -0.0482,0.0809 -0.0844,0.16859 -0.12661,0.25269 -0.17999,0.42576 -0.19868,0.83127 -0.10749,1.28003 0.10464,0.40349 0.27199,0.71011 0.62477,0.95808 0.0688,0.0483 0.14874,0.0782 0.22324,0.11731 0.619372,0.22112 1.016322,0.13465 1.557012,-0.22014 0.23642,-0.19295 0.45008,-0.41107 0.64854,-0.64234 0.21889,-0.24401 0.37354,-0.53399 0.49093,-0.83768 0.0734,-0.22818 0.0798,-0.45656 0.0269,-0.66662 0.20319,-0.50981 -0.19785,-1.11958 -1.20458,-1.13999 z m -0.6103,2.01694 c 0.005,1.2e-4 0.004,4.1e-4 0.008,5.1e-4 -0.001,0.003 -0.003,0.004 -0.007,5.2e-4 -2.9e-4,-2.9e-4 -2.5e-4,-7.4e-4 -5.2e-4,-0.001 z m 0.0258,0.0103 c 0.0569,0.085 0.0406,0.10782 0.004,0.0202 -0.002,-0.006 -0.003,-0.0134 -0.004,-0.0202 z" />
    <path
       id="path4"
       style="fill:#000000;fill-rule:evenodd;stroke-width:0.272366"
       d="m 96.066118,142.19282 a 12.5,11 0 0 1 12.500012,10.99985 12.5,11 0 0 1 -12.500012,11.00036 12.5,11 0 0 1 -12.50001,-11.00036 12.5,11 0 0 1 12.50001,-10.99985 z m -4.76663,1.55288 c -0.0483,-0.001 -0.098,-0.001 -0.14935,0 -0.52,0.0122 -0.99841,0.22964 -1.46761,0.43201 -0.51587,0.22407 -1.00064,0.5039 -1.45831,0.82941 -0.39759,0.29365 -0.7587,0.62204 -1.05471,1.01803 -0.29331,0.44035 -0.41527,0.95192 -0.50127,1.46606 -0.0806,0.46018 -0.0859,0.92142 -0.0289,1.38389 0.0606,0.44776 0.19876,0.87697 0.46198,1.24799 0.0602,0.0849 0.13392,0.15914 0.20102,0.23874 0.39779,0.42187 0.91278,0.69648 1.43351,0.93586 0.37957,0.15741 0.78051,0.29759 1.19734,0.29559 0.12591,-6e-4 0.25122,-0.0203 0.37672,-0.0305 0.65761,-0.097 1.2306,-0.36106 1.78956,-0.70848 0.65795,-0.45585 1.06057,-1.04882 1.38803,-1.76475 0.24536,-0.58407 0.32952,-1.21224 0.38912,-1.83762 0.005,-0.39585 0.0889,-0.80019 0.0527,-1.19682 -0.01,-0.10779 -0.0321,-0.21386 -0.0481,-0.32091 -0.16822,-0.59005 -0.44937,-0.89748 -0.97927,-1.18133 -0.13554,-0.0721 -0.27733,-0.12574 -0.42271,-0.16794 -0.0651,-0.3411 -0.45463,-0.62138 -1.17977,-0.63924 z m -0.21291,3.1657 c -1.3e-4,0.0366 -0.003,0.0731 -0.008,0.10955 -5.4e-4,-0.005 -0.002,-0.009 -0.002,-0.0139 -2e-5,-0.0282 -0.004,-0.0567 -5.2e-4,-0.0847 10e-4,-0.005 0.0104,-0.0159 0.0103,-0.0109 z m 9.852102,11.99461 c -0.0325,-6.5e-4 -0.0655,-5.9e-4 -0.0992,0 -0.24057,0.004 -0.48577,-0.0142 -0.72347,0.0341 -0.10294,0.021 -0.203282,0.0534 -0.304892,0.0801 -0.40623,0.15416 -0.77834,0.40418 -1.0051,0.78445 -0.0482,0.0809 -0.0844,0.16859 -0.12661,0.25269 -0.17999,0.42576 -0.19868,0.83127 -0.10749,1.28003 0.10464,0.40349 0.27199,0.71011 0.62477,0.95808 0.0688,0.0483 0.14874,0.0782 0.22324,0.11731 0.619372,0.22112 1.016322,0.13465 1.557012,-0.22014 0.23642,-0.19295 0.45008,-0.41107 0.64854,-0.64234 0.21889,-0.24401 0.37354,-0.53399 0.49093,-0.83768 0.0734,-0.22818 0.0798,-0.45656 0.0269,-0.66662 0.20319,-0.50981 -0.19785,-1.11958 -1.20458,-1.13999 z m -0.6103,2.01694 c 0.005,1.2e-4 0.004,4.1e-4 0.008,5.1e-4 -0.001,0.003 -0.003,0.004 -0.007,5.2e-4 -2.9e-4,-2.9e-4 -2.5e-4,-7.4e-4 -5.2e-4,-0.001 z m 0.0258,0.0103 c 0.0569,0.085 0.0406,0.10782 0.004,0.0202 -0.002,-0.006 -0.003,-0.0134 -0.004,-0.0202 z" />
    <path
       style="fill:#e6e6e6;fill-opacity:1;fill-rule:evenodd;stroke-width:0.0464264"
       d="m 90.643448,151.46513 c 1.68776,-0.44273 2.80196,-1.66628 3.10012,-3.40436 0.0986,-0.57463 0.1797,-1.63093 0.15249,-1.98562 -0.0507,-0.66062 -0.40447,-1.18443 -1.00179,-1.48326 -0.17747,-0.0888 -0.3485,-0.16142 -0.38007,-0.16142 -0.0316,0 -0.0697,-0.0491 -0.0848,-0.10907 -0.078,-0.31057 -0.6142,-0.54432 -1.23607,-0.53879 -0.42683,0.004 -0.75366,0.0944 -1.44629,0.40113 -1.14318,0.50619 -2.13365,1.24056 -2.58,1.91294 -0.43668,0.65781 -0.65186,2.12904 -0.44622,3.05102 0.16851,0.75552 0.62411,1.35078 1.36472,1.78306 0.99159,0.57877 1.76927,0.74124 2.5579,0.53437 z m 0.38784,-4.5003 c 0,-0.0377 0.0206,-0.0685 0.0457,-0.0685 0.0251,0 0.0457,0.0308 0.0457,0.0685 0,0.0377 -0.0206,0.0685 -0.0457,0.0685 -0.0251,0 -0.0457,-0.0308 -0.0457,-0.0685 z"
       id="path16" />
    <path
       style="fill:#e6e6e6;fill-opacity:1;fill-rule:evenodd;stroke-width:0.0464264"
       d="m 100.49907,162.40177 c 0.37286,-0.15331 0.58581,-0.31182 0.95206,-0.70869 0.20614,-0.22337 0.38092,-0.47213 0.49837,-0.70933 0.16882,-0.34093 0.18215,-0.39709 0.19972,-0.84119 0.0129,-0.32486 9e-5,-0.52071 -0.0402,-0.61718 -0.18921,-0.45282 -0.92423,-0.6877 -1.8053,-0.57687 -1.063532,0.13377 -1.743542,0.87348 -1.741752,1.89464 0.002,0.84522 0.39097,1.42124 1.08285,1.60145 0.362292,0.0944 0.542582,0.0853 0.854262,-0.0428 z"
       id="path17" />
    <path
       style="fill:#000000;fill-opacity:1;fill-rule:evenodd;stroke-width:0.268999"
       d="m 180.05915,194.51844 -3.57698,-17.72863 3.04364,17.33452 z"
       id="path21"
       sodipodi:nodetypes="cccc" />
    <path
       style="fill:#000000;fill-opacity:1;fill-rule:evenodd;stroke-width:0.425434"
       d="m 150.55855,197.85927 -2.15559,-28.17195 1.40003,27.63327 z"
       id="path21-5"
       sodipodi:nodetypes="cccc" />
    <path
       style="fill:#000000;fill-opacity:1;fill-rule:evenodd;stroke-width:0.268999"
       d="M 5.7572583,133.14424 21.345378,123.97308 6.4067483,133.27826 Z"
       id="path21-9"
       sodipodi:nodetypes="cccc" />
  </g>
</svg>
