<?xml version="1.0" encoding="UTF-8" standalone="no"?>
<!-- Created with Inkscape (http://www.inkscape.org/) -->

<svg
   width="210mm"
   height="297mm"
   viewBox="0 0 210 297"
   version="1.1"
   id="svg1"
   xml:space="preserve"
   inkscape:version="1.3.2 (091e20e, 2023-11-25, custom)"
   sodipodi:docname="Ojo Diabolicote 1.svg"
   xmlns:inkscape="http://www.inkscape.org/namespaces/inkscape"
   xmlns:sodipodi="http://sodipodi.sourceforge.net/DTD/sodipodi-0.dtd"
   xmlns="http://www.w3.org/2000/svg"
   xmlns:svg="http://www.w3.org/2000/svg"><sodipodi:namedview
     id="namedview1"
     pagecolor="#ffffff"
     bordercolor="#000000"
     borderopacity="0.25"
     inkscape:showpageshadow="2"
     inkscape:pageopacity="0.0"
     inkscape:pagecheckerboard="0"
     inkscape:deskcolor="#d1d1d1"
     inkscape:document-units="mm"
     inkscape:zoom="0.72426347"
     inkscape:cx="194.68054"
     inkscape:cy="525.3613"
     inkscape:window-width="1920"
     inkscape:window-height="1009"
     inkscape:window-x="-8"
     inkscape:window-y="-8"
     inkscape:window-maximized="1"
     inkscape:current-layer="layer1" /><defs
     id="defs1" /><g
     inkscape:label="Capa 1"
     inkscape:groupmode="layer"
     id="layer1"><path
       style="fill:#000000;fill-opacity:1;fill-rule:evenodd;stroke-width:0.350105"
       d="m 71.403795,151.50351 c -7.03846,-1.00582 -16.31249,-2.13584 -35.49844,11.05878 3.21114,-8.93558 3.20838,-12.60705 -0.94851,-18.56475 l -7.0234,-3.79714 c -4.51104,-0.40629 -9.15501,-0.53343 -13.67494,-0.83921 7.9905,-15.69697 -0.25609,-29.72085 -7.6677301,-42.631134 25.3313501,20.784474 53.6434101,-5.28005 58.5025101,9.212804 0.0206,4.75486 0.44013,1.41581 -3.5624,2.7979 l 5.136,8.234 4.10688,4.84562 4.14576,3.04404 3.74137,2.15754 c -0.60563,8.46001 -4.48747,16.5032 -7.2571,24.48155 z"
       id="path19-6-5"
       sodipodi:nodetypes="ccccccccccccc" /><path
       style="fill:#000000;fill-opacity:1;fill-rule:evenodd;stroke-width:0.350105"
       d="m 144.06416,142.3304 c 7.03845,-1.00582 16.76912,-2.77513 35.95508,10.41949 -3.21114,-8.93558 -3.66503,-11.96776 0.49187,-17.92546 l 7.02339,-3.79714 c 4.51104,-0.40629 9.15501,-0.53343 13.67495,-0.83921 -7.99051,-15.69697 0.25608,-29.72085 7.66772,-42.631131 -25.33134,20.784471 -53.64341,-5.28005 -58.50251,9.212798 -0.0206,4.754863 -0.44013,1.415815 3.5624,2.797904 l -5.13599,8.233999 -4.10689,4.84562 -4.14575,3.04404 -3.74138,2.15754 c 0.60563,8.46001 4.48748,16.5032 7.25711,24.48155 z"
       id="path19-6"
       sodipodi:nodetypes="ccccccccccccc" /><path
       style="fill:#de8787;fill-opacity:1;fill-rule:evenodd;stroke-width:0.32629"
       d="m 145.61497,140.44662 c 6.64601,-0.92521 14.97176,-1.71265 33.08796,10.42469 -3.0321,-8.21957 -2.59832,-11.8489 1.3268,-17.3292 l 6.63179,-3.49288 c 4.25951,-0.37374 8.64455,-0.49068 12.91246,-0.77196 -7.54497,-14.43918 0.24181,-27.33935 7.24019,-39.215136 -23.91893,19.119026 -50.65239,-4.856963 -55.24055,8.474583 2.8587,0.52335 6.49475,-0.20116 1.96127,4.296433 l -3.44713,5.85149 -3.87789,4.45734 -3.9146,2.80013 -3.53277,1.98466 c 0.57187,7.78212 4.23727,15.1808 6.85247,22.51985 z"
       id="path19"
       sodipodi:nodetypes="ccccccccccccc" /><path
       style="fill:#000000;fill-opacity:1;fill-rule:evenodd;stroke-width:0.284152"
       d="m 207.0653,89.952064 c -0.51093,2.137409 -2.51034,4.931766 -3.76551,7.397649 l -11.4802,3.141467 -12.30678,0.70937 -13.22519,-2.229435 h -6.6126 l -1.74499,3.850825 -6.52076,10.13377 -11.4802,10.99514 -1.28578,-1.57073 -0.91842,-0.8107 11.11284,-9.01906 5.87786,-10.33644 c 2.28877,-3.023223 -1.64288,-2.21092 -3.07669,-2.938791 1.50946,-4.248413 2.21593,-3.988791 6.38299,-4.76287 3.42473,0.05522 7.94342,1.16664 12.30678,2.12809 14.68747,3.00525 23.4511,2.278068 36.73665,-6.688285 z"
       id="path20-4"
       sodipodi:nodetypes="ccccccccccccccccc" /><path
       style="fill:#ff00ff;fill-opacity:1;fill-rule:evenodd;stroke-width:0.268999"
       d="m 206.70042,90.049814 c -0.50808,1.926294 -2.49631,4.444649 -3.74447,6.666974 l -11.41605,2.831182 -12.23801,0.6393 -13.15129,-2.009228 h -6.57564 l -1.73524,3.470478 -6.48432,9.13284 -11.41605,9.90914 -1.2786,-1.41559 -0.91328,-0.73063 11.05073,-8.12823 5.84502,-9.3155 c 2.27597,-2.724615 -1.6337,-1.992543 -3.0595,-2.648522 1.50103,-3.828792 2.20354,-3.594813 6.34733,-4.292435 3.40558,0.04977 7.89902,1.051409 12.238,1.917895 14.6054,2.708418 23.32006,2.053061 36.53137,-6.027674 z"
       id="path20"
       sodipodi:nodetypes="ccccccccccccccccc" /><path
       style="fill:#de8787;fill-opacity:1;fill-rule:evenodd;stroke-width:0.32629"
       d="m 70.336755,149.80985 c -6.646,-0.92521 -14.97176,-1.71265 -33.08795,10.42469 3.0321,-8.21957 2.59831,-11.8489 -1.32681,-17.3292 l -6.63179,-3.49288 c -4.25951,-0.37374 -8.64454,-0.49068 -12.91246,-0.77196 7.54498,-14.43918 -0.24181,-27.33935 -7.2401901,-39.215139 23.9189301,19.119029 50.6523901,-4.85696 55.2405601,8.474579 -2.85871,0.52335 -6.49476,-0.20116 -1.96127,4.29644 l 3.44712,5.85149 3.87789,4.45734 3.91461,2.80013 3.53276,1.98466 c -0.57186,7.78212 -4.23726,15.1808 -6.85247,22.51985 z"
       id="path19-9"
       sodipodi:nodetypes="ccccccccccccc" /><path
       style="fill:#000000;fill-opacity:1;fill-rule:evenodd;stroke-width:0.425434"
       d="m 36.797345,160.19625 19.74334,-20.21154 -18.81823,20.28379 z"
       id="path21-5-9"
       sodipodi:nodetypes="cccc" /><path
       style="fill:#000000;fill-opacity:1;fill-rule:evenodd;stroke-width:0.284152"
       d="m 8.9488949,99.354393 c 0.51093,2.137407 2.5103301,4.931757 3.7655001,7.397647 l 11.4802,3.14146 12.30678,0.70938 13.2252,-2.22944 h 6.61259 l 1.74499,3.85083 6.52076,10.13377 11.4802,10.99513 1.28578,-1.57073 0.91842,-0.8107 -11.11284,-9.01905 -5.87786,-10.33644 c -2.28876,-3.02323 1.64289,-2.21092 3.0767,-2.9388 -1.50947,-4.24841 -2.21593,-3.98879 -6.383,-4.76287 -3.42473,0.0552 -7.94342,1.16664 -12.30678,2.12809 -14.68747,3.00525 -23.4511,2.27807 -36.7366401,-6.688277 z"
       id="path20-4-0"
       sodipodi:nodetypes="ccccccccccccccccc" /><path
       style="fill:#ff00ff;fill-opacity:1;fill-rule:evenodd;stroke-width:0.268999"
       d="m 9.2513149,99.413041 c 0.50807,1.926289 2.4963101,4.444649 3.7444601,6.666969 l 11.41605,2.83119 12.23801,0.6393 13.15129,-2.00923 h 6.57565 l 1.73524,3.47048 6.48432,9.13284 11.41605,9.90914 1.27859,-1.41559 0.91329,-0.73063 -11.05074,-8.12823 -5.84502,-9.3155 c -2.27597,-2.72462 1.63371,-1.99255 3.05951,-2.64852 -1.50103,-3.8288 -2.20355,-3.59482 -6.34733,-4.29244 -3.40559,0.0498 -7.89903,1.05141 -12.23801,1.9179 -14.6054,2.70841 -23.32006,2.05306 -36.5313601,-6.027679 z"
       id="path20-8"
       sodipodi:nodetypes="ccccccccccccccccc" /><ellipse
       style="fill:#000000;fill-opacity:1;fill-rule:evenodd;stroke-width:0.232241"
       id="path22"
       cx="-109.88122"
       cy="147.13469"
       rx="41.586716"
       ry="42.134686"
       transform="scale(-1,1)" /><path
       id="path1"
       style="fill:#e6e6e6;fill-rule:evenodd;stroke-width:0.268827"
       d="M 109.96819,107 A 40.500089,39.999896 0 0 1 150.46794,146.99974 40.500089,39.999896 0 0 1 109.96819,187 40.500089,39.999896 0 0 1 69.467945,146.99974 40.500089,39.999896 0 0 1 109.96819,107 Z m -6.29988,29.68046 c -0.0482,-0.001 -0.0979,-0.001 -0.14917,0 -0.51936,0.0122 -0.99719,0.22963 -1.46581,0.43199 -0.51524,0.22406 -0.99941,0.50388 -1.45652,0.82937 -0.3971,0.29364 -0.757765,0.62201 -1.053415,1.01798 -0.29295,0.44033 -0.41476,0.95188 -0.50065,1.46599 -0.0805,0.46016 -0.0858,0.92138 -0.0289,1.38382 0.0605,0.44774 0.19852,0.87693 0.46141,1.24793 0.0601,0.0849 0.13376,0.15913 0.20078,0.23873 0.397295,0.42185 0.911655,0.69645 1.431745,0.93581 0.3791,0.15741 0.77955,0.29758 1.19587,0.29558 0.12576,-6e-4 0.25091,-0.0203 0.37626,-0.0305 0.6568,-0.097 1.22909,-0.36104 1.78737,-0.70844 0.65714,-0.45583 1.05927,-1.04877 1.38632,-1.76467 0.24506,-0.58404 0.32912,-1.21218 0.38865,-1.83753 0.005,-0.39582 0.0888,-0.80015 0.0526,-1.19676 -0.01,-0.10778 -0.0321,-0.21385 -0.048,-0.32089 -0.16801,-0.59003 -0.44882,-0.89744 -0.97807,-1.18128 -0.13537,-0.0721 -0.27699,-0.12573 -0.42219,-0.16793 -0.065,-0.34108 -0.45407,-0.62135 -1.17832,-0.63921 z m 9.62738,15.15957 c -0.0325,-6.5e-4 -0.0654,-5.9e-4 -0.0991,0 -0.24028,0.004 -0.48518,-0.0142 -0.72258,0.0341 -0.10282,0.021 -0.20304,0.0534 -0.30452,0.0801 -0.40573,0.15415 -0.77739,0.40416 -1.00387,0.78441 -0.0481,0.0809 -0.0843,0.16858 -0.12645,0.25268 -0.17978,0.42574 -0.19845,0.83123 -0.10736,1.27997 0.10451,0.40347 0.27166,0.71007 0.624,0.95803 0.0687,0.0483 0.14856,0.0782 0.22297,0.1173 0.61861,0.22111 1.01507,0.13464 1.5551,-0.22013 0.23613,-0.19294 0.44953,-0.41105 0.64774,-0.6423 0.21863,-0.244 0.37309,-0.53397 0.49033,-0.83764 0.0733,-0.22817 0.0797,-0.45654 0.0269,-0.66659 0.20294,-0.50979 -0.19761,-1.11953 -1.2031,-1.13994 z m -0.60904,2.01685 c 0.004,1.3e-4 0.003,4.2e-4 0.007,5.1e-4 -0.001,0.003 -0.003,0.004 -0.007,5.2e-4 -2.8e-4,-2.9e-4 -2.5e-4,-7.7e-4 -5.1e-4,-0.001 z m 0.0253,0.0103 c 0.0568,0.085 0.0406,0.10776 0.004,0.0202 -0.002,-0.006 -0.003,-0.0134 -0.004,-0.0202 z" /><path
       id="path2"
       style="fill:#000000;fill-rule:evenodd;stroke-width:0.362398"
       d="m 108.96798,123.00024 a 23.5,23.5 0 0 1 23.49986,23.49986 23.5,23.5 0 0 1 -23.49986,23.49986 23.5,23.5 0 0 1 -23.499855,-23.49986 23.5,23.5 0 0 1 23.499855,-23.49986 z m -5.38313,14.0839 c -0.0483,-0.001 -0.098,-0.001 -0.14935,0 -0.52,0.0122 -0.99841,0.22964 -1.46761,0.43201 -0.51587,0.22407 -1.00064,0.5039 -1.45831,0.82941 -0.39759,0.29365 -0.758695,0.62204 -1.054705,1.01803 -0.29331,0.44035 -0.41527,0.95192 -0.50127,1.46606 -0.0806,0.46018 -0.0859,0.92142 -0.0289,1.38389 0.0606,0.44776 0.19876,0.87697 0.46198,1.24799 0.0602,0.0849 0.13392,0.15914 0.20102,0.23874 0.39779,0.42187 0.912775,0.69648 1.433505,0.93586 0.37957,0.15741 0.78051,0.29759 1.19734,0.29559 0.12591,-6e-4 0.25122,-0.0203 0.37672,-0.0305 0.65761,-0.097 1.2306,-0.36106 1.78956,-0.70848 0.65795,-0.45585 1.06057,-1.04882 1.38803,-1.76475 0.24536,-0.58407 0.32952,-1.21224 0.38912,-1.83762 0.005,-0.39585 0.0889,-0.80019 0.0527,-1.19682 -0.01,-0.10779 -0.0321,-0.21386 -0.0481,-0.32091 -0.16822,-0.59005 -0.44937,-0.89748 -0.97927,-1.18133 -0.13554,-0.0721 -0.27733,-0.12574 -0.42271,-0.16794 -0.0651,-0.3411 -0.45463,-0.62138 -1.17977,-0.63924 z m -0.21291,3.1657 c -1.3e-4,0.0366 -0.003,0.0731 -0.008,0.10955 -5.4e-4,-0.005 -0.002,-0.009 -0.002,-0.0139 -2e-5,-0.0282 -0.004,-0.0567 -5.2e-4,-0.0847 0.001,-0.005 0.0104,-0.0159 0.0103,-0.0109 z m 9.85211,11.99461 c -0.0325,-6.5e-4 -0.0655,-5.9e-4 -0.0992,0 -0.24057,0.004 -0.48577,-0.0142 -0.72347,0.0341 -0.10294,0.021 -0.20328,0.0534 -0.30489,0.0801 -0.40623,0.15416 -0.77834,0.40418 -1.0051,0.78445 -0.0482,0.0809 -0.0844,0.16859 -0.12661,0.25269 -0.18,0.42576 -0.19869,0.83127 -0.10749,1.28003 0.10464,0.40349 0.27199,0.71011 0.62477,0.95808 0.0688,0.0483 0.14874,0.0782 0.22324,0.11731 0.61937,0.22112 1.01632,0.13465 1.55701,-0.22014 0.23642,-0.19295 0.45008,-0.41107 0.64854,-0.64234 0.21889,-0.24401 0.37354,-0.53399 0.49093,-0.83768 0.0734,-0.22818 0.0798,-0.45656 0.0269,-0.66662 0.20319,-0.50981 -0.19785,-1.11958 -1.20458,-1.13999 z m -0.6103,2.01694 c 0.005,1.2e-4 0.004,4.1e-4 0.008,5.1e-4 -0.001,0.003 -0.003,0.004 -0.007,5.2e-4 -2.9e-4,-2.9e-4 -2.5e-4,-7.4e-4 -5.2e-4,-0.001 z m 0.0258,0.0103 c 0.0569,0.085 0.0406,0.10782 0.004,0.0202 -0.002,-0.006 -0.003,-0.0134 -0.004,-0.0202 z" /><path
       id="path3"
       style="fill:#aa0000;fill-rule:evenodd;stroke-width:0.417208"
       d="M 108.96798,124.00018 A 22.5,22.5 0 0 1 131.4679,146.5001 22.5,22.5 0 0 1 108.96798,169.00002 22.5,22.5 0 0 1 86.468065,146.5001 22.5,22.5 0 0 1 108.96798,124.00018 Z m -5.38313,13.08396 c -0.0483,-0.001 -0.098,-0.001 -0.14935,0 -0.52,0.0122 -0.99841,0.22964 -1.46761,0.43201 -0.51587,0.22407 -1.00064,0.5039 -1.45831,0.82941 -0.39759,0.29365 -0.758695,0.62204 -1.054705,1.01803 -0.29331,0.44035 -0.41527,0.95192 -0.50127,1.46606 -0.0806,0.46018 -0.0859,0.92142 -0.0289,1.38389 0.0606,0.44776 0.19876,0.87697 0.46198,1.24799 0.0602,0.0849 0.13392,0.15914 0.20102,0.23874 0.39779,0.42187 0.912775,0.69648 1.433505,0.93586 0.37957,0.15741 0.78051,0.29759 1.19734,0.29559 0.12591,-6e-4 0.25122,-0.0203 0.37672,-0.0305 0.65761,-0.097 1.2306,-0.36106 1.78956,-0.70848 0.65795,-0.45585 1.06057,-1.04882 1.38803,-1.76475 0.24536,-0.58407 0.32952,-1.21224 0.38912,-1.83762 0.005,-0.39585 0.0889,-0.80019 0.0527,-1.19682 -0.01,-0.10779 -0.0321,-0.21386 -0.0481,-0.32091 -0.16822,-0.59005 -0.44937,-0.89748 -0.97927,-1.18133 -0.13554,-0.0721 -0.27733,-0.12574 -0.42271,-0.16794 -0.0651,-0.3411 -0.45463,-0.62138 -1.17977,-0.63924 z m -0.21291,3.1657 c -1.3e-4,0.0366 -0.003,0.0731 -0.008,0.10955 -5.4e-4,-0.005 -0.002,-0.009 -0.002,-0.0139 -2e-5,-0.0282 -0.004,-0.0567 -5.2e-4,-0.0847 0.001,-0.005 0.0104,-0.0159 0.0103,-0.0109 z m 9.85211,11.99461 c -0.0325,-6.5e-4 -0.0655,-5.9e-4 -0.0992,0 -0.24057,0.004 -0.48577,-0.0142 -0.72347,0.0341 -0.10294,0.021 -0.20328,0.0534 -0.30489,0.0801 -0.40623,0.15416 -0.77834,0.40418 -1.0051,0.78445 -0.0482,0.0809 -0.0844,0.16859 -0.12661,0.25269 -0.18,0.42576 -0.19869,0.83127 -0.10749,1.28003 0.10464,0.40349 0.27199,0.71011 0.62477,0.95808 0.0688,0.0483 0.14874,0.0782 0.22324,0.11731 0.61937,0.22112 1.01632,0.13465 1.55701,-0.22014 0.23642,-0.19295 0.45008,-0.41107 0.64854,-0.64234 0.21889,-0.24401 0.37354,-0.53399 0.49093,-0.83768 0.0734,-0.22818 0.0798,-0.45656 0.0269,-0.66662 0.20319,-0.50981 -0.19785,-1.11958 -1.20458,-1.13999 z m -0.6103,2.01694 c 0.005,1.2e-4 0.004,4.1e-4 0.008,5.1e-4 -0.001,0.003 -0.003,0.004 -0.007,5.2e-4 -2.9e-4,-2.9e-4 -2.5e-4,-7.4e-4 -5.2e-4,-0.001 z m 0.0258,0.0103 c 0.0569,0.085 0.0406,0.10782 0.004,0.0202 -0.002,-0.006 -0.003,-0.0134 -0.004,-0.0202 z" /><path
       id="path4"
       style="fill:#000000;fill-rule:evenodd;stroke-width:0.272366"
       d="m 108.35148,135.53126 a 12.5,11 0 0 1 12.50002,10.99985 12.5,11 0 0 1 -12.50002,11.00036 12.5,11 0 0 1 -12.500005,-11.00036 12.5,11 0 0 1 12.500005,-10.99985 z m -4.76663,1.55288 c -0.0483,-0.001 -0.098,-0.001 -0.14935,0 -0.52,0.0122 -0.99841,0.22964 -1.46761,0.43201 -0.51587,0.22407 -1.00064,0.5039 -1.45831,0.82941 -0.39759,0.29365 -0.758695,0.62204 -1.054705,1.01803 -0.29331,0.44035 -0.41527,0.95192 -0.50127,1.46606 -0.0806,0.46018 -0.0859,0.92142 -0.0289,1.38389 0.0606,0.44776 0.19876,0.87697 0.46198,1.24799 0.0602,0.0849 0.13392,0.15914 0.20102,0.23874 0.39779,0.42187 0.912775,0.69648 1.433505,0.93586 0.37957,0.15741 0.78051,0.29759 1.19734,0.29559 0.12591,-6e-4 0.25122,-0.0203 0.37672,-0.0305 0.65761,-0.097 1.2306,-0.36106 1.78956,-0.70848 0.65795,-0.45585 1.06057,-1.04882 1.38803,-1.76475 0.24536,-0.58407 0.32952,-1.21224 0.38912,-1.83762 0.005,-0.39585 0.0889,-0.80019 0.0527,-1.19682 -0.01,-0.10779 -0.0321,-0.21386 -0.0481,-0.32091 -0.16822,-0.59005 -0.44937,-0.89748 -0.97927,-1.18133 -0.13554,-0.0721 -0.27733,-0.12574 -0.42271,-0.16794 -0.0651,-0.3411 -0.45463,-0.62138 -1.17977,-0.63924 z m -0.21291,3.1657 c -1.3e-4,0.0366 -0.003,0.0731 -0.008,0.10955 -5.4e-4,-0.005 -0.002,-0.009 -0.002,-0.0139 -2e-5,-0.0282 -0.004,-0.0567 -5.2e-4,-0.0847 0.001,-0.005 0.0104,-0.0159 0.0103,-0.0109 z m 9.85211,11.99461 c -0.0325,-6.5e-4 -0.0655,-5.9e-4 -0.0992,0 -0.24057,0.004 -0.48577,-0.0142 -0.72347,0.0341 -0.10294,0.021 -0.20328,0.0534 -0.30489,0.0801 -0.40623,0.15416 -0.77834,0.40418 -1.0051,0.78445 -0.0482,0.0809 -0.0844,0.16859 -0.12661,0.25269 -0.18,0.42576 -0.19869,0.83127 -0.10749,1.28003 0.10464,0.40349 0.27199,0.71011 0.62477,0.95808 0.0688,0.0483 0.14874,0.0782 0.22324,0.11731 0.61937,0.22112 1.01632,0.13465 1.55701,-0.22014 0.23642,-0.19295 0.45008,-0.41107 0.64854,-0.64234 0.21889,-0.24401 0.37354,-0.53399 0.49093,-0.83768 0.0734,-0.22818 0.0798,-0.45656 0.0269,-0.66662 0.20319,-0.50981 -0.19785,-1.11958 -1.20458,-1.13999 z m -0.6103,2.01694 c 0.005,1.2e-4 0.004,4.1e-4 0.008,5.1e-4 -0.001,0.003 -0.003,0.004 -0.007,5.2e-4 -2.9e-4,-2.9e-4 -2.5e-4,-7.4e-4 -5.2e-4,-0.001 z m 0.0258,0.0103 c 0.0569,0.085 0.0406,0.10782 0.004,0.0202 -0.002,-0.006 -0.003,-0.0134 -0.004,-0.0202 z" /><path
       style="fill:#e6e6e6;fill-opacity:1;fill-rule:evenodd;stroke-width:0.0464264"
       d="m 102.92881,144.80357 c 1.68776,-0.44273 2.80196,-1.66628 3.10012,-3.40436 0.0986,-0.57463 0.1797,-1.63093 0.15249,-1.98562 -0.0507,-0.66062 -0.40447,-1.18443 -1.00179,-1.48326 -0.17747,-0.0888 -0.3485,-0.16142 -0.38007,-0.16142 -0.0316,0 -0.0697,-0.0491 -0.0848,-0.10907 -0.078,-0.31057 -0.6142,-0.54432 -1.23607,-0.53879 -0.42683,0.004 -0.75366,0.0944 -1.44629,0.40113 -1.14318,0.50619 -2.133645,1.24056 -2.579995,1.91294 -0.43668,0.65781 -0.65186,2.12904 -0.44622,3.05102 0.16851,0.75552 0.62411,1.35078 1.364715,1.78306 0.99159,0.57877 1.76927,0.74124 2.5579,0.53437 z m 0.38784,-4.5003 c 0,-0.0377 0.0206,-0.0685 0.0457,-0.0685 0.0251,0 0.0457,0.0308 0.0457,0.0685 0,0.0377 -0.0206,0.0685 -0.0457,0.0685 -0.0251,0 -0.0457,-0.0308 -0.0457,-0.0685 z"
       id="path16" /><path
       style="fill:#e6e6e6;fill-opacity:1;fill-rule:evenodd;stroke-width:0.0464264"
       d="m 112.78444,155.74021 c 0.37286,-0.15331 0.58581,-0.31182 0.95206,-0.70869 0.20614,-0.22337 0.38092,-0.47213 0.49837,-0.70933 0.16882,-0.34093 0.18215,-0.39709 0.19972,-0.84119 0.0129,-0.32486 9e-5,-0.52071 -0.0402,-0.61718 -0.18921,-0.45282 -0.92423,-0.6877 -1.8053,-0.57687 -1.06353,0.13377 -1.74354,0.87348 -1.74175,1.89464 0.002,0.84522 0.39097,1.42124 1.08285,1.60145 0.36229,0.0944 0.54258,0.0853 0.85426,-0.0428 z"
       id="path17" /><path
       style="fill:#000000;fill-opacity:1;fill-rule:evenodd;stroke-width:0.268999"
       d="m 199.56538,129.27896 -14.12664,-11.29324 13.46471,11.33361 z"
       id="path21"
       sodipodi:nodetypes="cccc" /><path
       style="fill:#000000;fill-opacity:1;fill-rule:evenodd;stroke-width:0.425434"
       d="m 179.09646,150.78407 -19.74334,-20.21154 18.81822,20.28379 z"
       id="path21-5"
       sodipodi:nodetypes="cccc" /><path
       style="fill:#000000;fill-opacity:1;fill-rule:evenodd;stroke-width:0.268999"
       d="m 16.143705,138.74043 14.12665,-11.29324 -13.46471,11.33361 z"
       id="path21-9"
       sodipodi:nodetypes="cccc" /></g></svg>
