<?xml version="1.0" encoding="UTF-8" standalone="no"?>
<!-- Created with Inkscape (http://www.inkscape.org/) -->

<svg
   width="210mm"
   height="297mm"
   viewBox="0 0 210 297"
   version="1.1"
   id="svg1"
   inkscape:version="1.3.2 (091e20e, 2023-11-25, custom)"
   sodipodi:docname="Pinguino ataque 1.svg"
   xmlns:inkscape="http://www.inkscape.org/namespaces/inkscape"
   xmlns:sodipodi="http://sodipodi.sourceforge.net/DTD/sodipodi-0.dtd"
   xmlns="http://www.w3.org/2000/svg"
   xmlns:svg="http://www.w3.org/2000/svg">
  <sodipodi:namedview
     id="namedview1"
     pagecolor="#ffffff"
     bordercolor="#000000"
     borderopacity="0.25"
     inkscape:showpageshadow="2"
     inkscape:pageopacity="0.0"
     inkscape:pagecheckerboard="0"
     inkscape:deskcolor="#d1d1d1"
     inkscape:document-units="mm"
     inkscape:zoom="0.72426347"
     inkscape:cx="396.26464"
     inkscape:cy="561.25984"
     inkscape:window-width="1920"
     inkscape:window-height="1009"
     inkscape:window-x="-8"
     inkscape:window-y="-8"
     inkscape:window-maximized="1"
     inkscape:current-layer="layer1" />
  <defs
     id="defs1" />
  <g
     inkscape:label="Capa 1"
     inkscape:groupmode="layer"
     id="layer1">
    <ellipse
       style="display:inline;fill:#4d4d4d;fill-opacity:1;fill-rule:evenodd;stroke-width:0.445217"
       id="path5"
       cx="31.076565"
       cy="-206.40118"
       rx="16.636435"
       ry="36.705177"
       transform="matrix(0.67296803,-0.73967157,-0.60058531,-0.79956068,0,0)" />
    <ellipse
       style="display:inline;fill:#fcfc80;fill-opacity:1;fill-rule:evenodd;stroke-width:0.500713"
       id="path6"
       cx="122.86262"
       cy="206.53084"
       rx="35.324047"
       ry="18.535316" />
    <ellipse
       style="display:inline;fill:#fcfc80;fill-opacity:1;fill-rule:evenodd;stroke-width:0.500713"
       id="path6-2"
       cx="49.56995"
       cy="206.53084"
       rx="35.324047"
       ry="18.535316" />
    <ellipse
       style="display:inline;fill:#4d4d4d;fill-opacity:1;fill-rule:evenodd;stroke-width:0.441262"
       id="path4"
       cx="90.949463"
       cy="143.90172"
       rx="49.822178"
       ry="63.011765" />
    <ellipse
       style="display:inline;fill:#4d4d4d;fill-opacity:1;fill-rule:evenodd;stroke-width:0.445217"
       id="path5-9"
       cx="92.214912"
       cy="103.30179"
       rx="16.636435"
       ry="36.705177"
       transform="matrix(0.83437603,0.55119564,-0.385221,0.92282435,0,0)" />
    <ellipse
       style="display:inline;fill:#e6e6e6;fill-opacity:1;fill-rule:evenodd;stroke-width:0.502618"
       id="path7"
       cx="89.761238"
       cy="163.17934"
       rx="33.792664"
       ry="42.338657" />
    <ellipse
       style="display:inline;fill:#ffffff;fill-opacity:1;fill-rule:evenodd;stroke-width:0.441262"
       id="path8"
       cx="103.08872"
       cy="103.33781"
       rx="3.2834971"
       ry="11.014935" />
    <ellipse
       style="display:inline;fill:#ffffff;fill-opacity:1;fill-rule:evenodd;stroke-width:0.441262"
       id="path8-4"
       cx="73.537231"
       cy="103.33781"
       rx="3.2834971"
       ry="11.014935" />
    <ellipse
       style="display:inline;fill:#000000;fill-opacity:1;fill-rule:evenodd;stroke-width:0.604609"
       id="path9"
       cx="73.624954"
       cy="103.29659"
       rx="2.3942168"
       ry="3.6142757" />
    <ellipse
       style="display:inline;fill:#000000;fill-opacity:1;fill-rule:evenodd;stroke-width:0.604609"
       id="path9-0"
       cx="103.15297"
       cy="103.29659"
       rx="2.3942168"
       ry="3.6142757" />
    <path
       sodipodi:type="star"
       style="display:inline;fill:#ffd42a;fill-opacity:1;fill-rule:evenodd;stroke-width:0.268999"
       id="path10"
       inkscape:flatsided="true"
       sodipodi:sides="3"
       sodipodi:cx="94.947495"
       sodipodi:cy="129.18472"
       sodipodi:r1="6.6416478"
       sodipodi:r2="3.3208237"
       sodipodi:arg1="1.5707963"
       sodipodi:arg2="2.6179939"
       inkscape:rounded="0"
       inkscape:randomized="0"
       d="m 94.947495,135.82637 -5.751836,-9.96247 11.503671,0 z"
       inkscape:transform-center-x="1.3657353e-06"
       inkscape:transform-center-y="3.3417652"
       transform="matrix(1.4625407,0,0,2.0126154,-49.620516,-138.91445)" />
    <path
       style="display:inline;fill:#808080;fill-rule:evenodd;stroke-width:0.192104"
       d="m 165.64817,145.84011 -2.29998,-0.56077 -1.24568,-0.28498 -0.89573,-0.0247 c 8.07853,-26.81865 17.65696,-31.16445 24.55838,-33.82033 l 1.17775,-1.10193 2.21111,-0.6159 1.88361,0.41561 2.12974,0.89054 c 1.29015,0.84555 1.44456,1.88427 1.07047,3.22343 l -0.80562,1.41382 -1.39384,0.14922 -2.55779,-0.45483 -2.40051,0.37142 -3.05886,1.07136 -3.23658,1.77401 c -6.0422,4.95755 -10.08852,11.79164 -15.13646,27.55403 z"
       id="path3"
       sodipodi:nodetypes="ccccccccccccccccc" />
    <path
       style="display:inline;fill:#000000;fill-rule:evenodd;stroke-width:0.192104"
       d="m 161.55945,174.73789 c -1.21219,0.90154 -1.6908,1.2428 -4.23883,0.78179 -1.29033,-0.22433 -1.91903,-0.46923 -2.61338,-0.93952 -0.99032,-1.03036 -1.0667,-2.07801 -1.23896,-3.12383 l 1.61788,-7.10695 2.77783,-10.13582 0.9647,-4.82936 0.062,-3.08831 c 0.19702,-0.59331 0.54817,-0.97523 1.00773,-1.20847 1.03678,-0.15746 2.06608,-0.27244 3.03848,-0.0642 1.17012,0.43402 2.71195,0.62255 3.51785,1.27321 l 3.73437,-0.86916 c 0.39366,0.25594 0.17756,0.69079 -0.21891,1.17852 -1.19286,0.9155 -2.24024,1.36959 -3.40754,1.87864 -1.4274,1.47485 -1.7117,1.50721 -0.82103,3.79592 0.73787,0.44509 0.91777,0.68431 2.27235,1.35692 0.34834,0.40989 0.3035,0.736 -0.19294,0.96587 l -2.20097,-0.58983 c -1.00464,-0.30337 -1.18699,0.46401 -1.41099,0.76339 -1.09034,2.28091 -1.72662,4.33425 -2.42084,6.7613 -1.40479,5.03196 -0.85588,4.15057 -1.27419,6.1967 0.0818,1.30127 1.04468,1.83125 2.33755,2.07231 0.29401,-0.13464 0.66031,-0.17931 1.1794,-0.034 0.4862,1.21195 -0.33469,2.49857 -0.91041,3.56541 z"
       id="path1"
       sodipodi:nodetypes="ccccccccccccccccccccccccc" />
    <ellipse
       style="display:inline;fill:#808080;fill-rule:evenodd;stroke-width:0.192116"
       id="path2"
       cx="205.62769"
       cy="106.53894"
       rx="1.4283056"
       ry="1.4744287"
       transform="matrix(0.93818115,0.34614468,-0.33106482,0.94360802,0,0)" />
    <ellipse
       style="display:inline;fill:#808080;fill-rule:evenodd;stroke-width:0.192116"
       id="path2-2"
       cx="202.54671"
       cy="83.082054"
       rx="1.4283056"
       ry="1.4744287"
       transform="matrix(0.93818115,0.34614468,-0.33106482,0.94360802,0,0)" />
    <path
       style="display:inline;fill:#333333;fill-rule:evenodd;stroke-width:0.192104"
       d="m 186.25048,110.46351 -0.83309,-3.17159 c -1.98097,-2.05222 -2.80677,-2.9332 -3.72279,-5.47239 2.84509,0.78408 4.51413,3.173 6.53355,5.22545 l 1.35519,2.37658 2.97179,1.09645 1.3387,1.03714 0.54273,1.78055 c 6.06402,10.54077 -0.91832,-0.13405 7.24729,16.50135 l -0.44488,1.26799 -1.17288,-1.37104 -1.40301,-0.71518 0.34044,-1.10899 -1.62131,-0.64758 0.52158,-1.48661 -1.39652,-0.31771 0.46022,-1.31172 -1.62425,-0.5005 0.44781,-1.41506 -1.89506,-0.69919 0.28498,-1.22822 -1.79062,-0.85818 0.34043,-1.10899 -1.47971,-0.49655 0.70329,-1.17264 -1.99301,-0.14272 0.21714,-1.45078 z"
       id="path4-1"
       sodipodi:nodetypes="cccccccccccccccccccccccccccc" />
  </g>
</svg>
