<?xml version="1.0" encoding="UTF-8" standalone="no"?>
<!-- Created with Inkscape (http://www.inkscape.org/) -->

<svg
   width="210mm"
   height="297mm"
   viewBox="0 0 210 297"
   version="1.1"
   id="svg1"
   inkscape:version="1.3.2 (091e20e, 2023-11-25, custom)"
   sodipodi:docname="Pinguino ataque 4.svg"
   xmlns:inkscape="http://www.inkscape.org/namespaces/inkscape"
   xmlns:sodipodi="http://sodipodi.sourceforge.net/DTD/sodipodi-0.dtd"
   xmlns="http://www.w3.org/2000/svg"
   xmlns:svg="http://www.w3.org/2000/svg">
  <sodipodi:namedview
     id="namedview1"
     pagecolor="#ffffff"
     bordercolor="#000000"
     borderopacity="0.25"
     inkscape:showpageshadow="2"
     inkscape:pageopacity="0.0"
     inkscape:pagecheckerboard="0"
     inkscape:deskcolor="#d1d1d1"
     inkscape:document-units="mm"
     inkscape:zoom="0.72426347"
     inkscape:cx="396.26464"
     inkscape:cy="561.25984"
     inkscape:window-width="1920"
     inkscape:window-height="1009"
     inkscape:window-x="-8"
     inkscape:window-y="-8"
     inkscape:window-maximized="1"
     inkscape:current-layer="layer1" />
  <defs
     id="defs1" />
  <g
     inkscape:label="Capa 1"
     inkscape:groupmode="layer"
     id="layer1">
    <ellipse
       style="display:inline;fill:#4d4d4d;fill-opacity:1;fill-rule:evenodd;stroke-width:0.445217"
       id="path5"
       cx="-163.38339"
       cy="-54.014561"
       rx="16.636435"
       ry="36.705177"
       transform="matrix(-0.64357515,-0.76538292,-0.87234833,0.48888485,0,0)" />
    <ellipse
       style="display:inline;fill:#fcfc80;fill-opacity:1;fill-rule:evenodd;stroke-width:0.500713"
       id="path6"
       cx="124.48228"
       cy="192.80333"
       rx="35.324047"
       ry="18.535316" />
    <ellipse
       style="display:inline;fill:#fcfc80;fill-opacity:1;fill-rule:evenodd;stroke-width:0.500713"
       id="path6-2"
       cx="51.189617"
       cy="192.80333"
       rx="35.324047"
       ry="18.535316" />
    <ellipse
       style="display:inline;fill:#4d4d4d;fill-opacity:1;fill-rule:evenodd;stroke-width:0.441262"
       id="path4"
       cx="92.569122"
       cy="130.17422"
       rx="49.822178"
       ry="63.011765" />
    <ellipse
       style="display:inline;fill:#4d4d4d;fill-opacity:1;fill-rule:evenodd;stroke-width:0.445217"
       id="path5-9"
       cx="88.353149"
       cy="90.732849"
       rx="16.636435"
       ry="36.705177"
       transform="matrix(0.83437603,0.55119564,-0.385221,0.92282435,0,0)" />
    <ellipse
       style="display:inline;fill:#e6e6e6;fill-opacity:1;fill-rule:evenodd;stroke-width:0.502618"
       id="path7"
       cx="91.380898"
       cy="149.45184"
       rx="33.792664"
       ry="42.338657" />
    <ellipse
       style="display:inline;fill:#ffffff;fill-opacity:1;fill-rule:evenodd;stroke-width:0.441262"
       id="path8"
       cx="104.70837"
       cy="89.610306"
       rx="3.2834971"
       ry="11.014935" />
    <ellipse
       style="display:inline;fill:#ffffff;fill-opacity:1;fill-rule:evenodd;stroke-width:0.441262"
       id="path8-4"
       cx="75.156891"
       cy="89.610306"
       rx="3.2834971"
       ry="11.014935" />
    <ellipse
       style="display:inline;fill:#000000;fill-opacity:1;fill-rule:evenodd;stroke-width:0.604609"
       id="path9"
       cx="75.244614"
       cy="89.569092"
       rx="2.3942168"
       ry="3.6142757" />
    <ellipse
       style="display:inline;fill:#000000;fill-opacity:1;fill-rule:evenodd;stroke-width:0.604609"
       id="path9-0"
       cx="104.77262"
       cy="89.569092"
       rx="2.3942168"
       ry="3.6142757" />
    <path
       sodipodi:type="star"
       style="display:inline;fill:#ffd42a;fill-opacity:1;fill-rule:evenodd;stroke-width:0.268999"
       id="path10"
       inkscape:flatsided="true"
       sodipodi:sides="3"
       sodipodi:cx="94.947495"
       sodipodi:cy="129.18472"
       sodipodi:r1="6.6416478"
       sodipodi:r2="3.3208237"
       sodipodi:arg1="1.5707963"
       sodipodi:arg2="2.6179939"
       inkscape:rounded="0"
       inkscape:randomized="0"
       d="m 94.947495,135.82637 -5.751836,-9.96247 11.503671,0 z"
       inkscape:transform-center-x="1.3657353e-06"
       inkscape:transform-center-y="3.3417652"
       transform="matrix(1.4625407,0,0,2.0126154,-48.000851,-152.64195)" />
    <path
       style="display:inline;fill:#808080;fill-rule:evenodd;stroke-width:0.192104"
       d="m 158.79494,78.560481 -0.86174,2.204942 -0.44816,1.196702 -0.14363,0.884489 C 131.83576,71.272279 128.80277,61.200876 127.08857,54.007482 l -0.93547,-1.313862 -0.31629,-2.273395 0.66248,-1.811576 1.16594,-1.992349 c 1.00966,-1.166206 2.05969,-1.181067 3.33718,-0.632156 l 1.29409,0.98654 -0.0375,1.401294 -0.79105,2.474555 0.0488,2.428586 0.65493,3.174192 1.3277,3.443804 c 4.10972,6.647991 10.3448,11.567465 25.29559,18.667361 z"
       id="path3"
       sodipodi:nodetypes="ccccccccccccccccc" />
    <path
       style="display:inline;fill:#000000;fill-rule:evenodd;stroke-width:0.192104"
       d="m 186.89198,86.457036 c 0.73226,1.321346 1.00679,1.841126 0.21097,4.305156 -0.39399,1.24902 -0.72034,1.83955 -1.27882,2.46517 -1.15294,0.84445 -2.20144,0.78078 -3.26088,0.81239 l -6.82857,-2.5489 -9.67621,-4.10148 -4.65811,-1.598565 -3.05262,-0.472274 c -0.56182,-0.2742 -0.89363,-0.673044 -1.06366,-1.159537 -0.0182,-1.048505 0.005,-2.083949 0.34056,-3.020003 0.58582,-1.101992 0.97779,-2.605036 1.72987,-3.317218 l -0.36467,-3.816806 c 0.30607,-0.356094 0.70826,-0.08409 1.13891,0.373736 0.74873,1.304039 1.05942,2.402524 1.40866,3.627168 1.27186,1.610908 1.26612,1.896993 3.65297,1.31869 0.53928,-0.672108 0.80031,-0.818582 1.64714,-2.071647 0.45259,-0.290709 0.76983,-0.202889 0.93162,0.319718 l -0.87738,2.102944 c -0.43431,0.95535 0.30199,1.238165 0.56891,1.5 2.1156,1.384069 4.06604,2.287847 6.37917,3.298753 4.80037,2.061684 3.99983,1.40041 5.97213,2.08719 1.30058,0.09203 1.95394,-0.791792 2.36484,-2.041096 -0.0943,-0.309304 -0.0899,-0.678303 0.1232,-1.173444 1.26586,-0.320653 2.43185,0.664096 3.41261,1.376611 z"
       id="path1"
       sodipodi:nodetypes="ccccccccccccccccccccccccc" />
    <ellipse
       style="display:inline;fill:#808080;fill-rule:evenodd;stroke-width:0.192116"
       id="path2"
       cx="3.0374737"
       cy="204.16389"
       rx="1.4283056"
       ry="1.4744287"
       transform="matrix(0.46787126,-0.88379663,0.89118129,0.45364733,0,0)" />
    <ellipse
       style="display:inline;fill:#808080;fill-rule:evenodd;stroke-width:0.192116"
       id="path2-2"
       cx="-0.043504652"
       cy="180.70702"
       rx="1.4283056"
       ry="1.4744287"
       transform="matrix(0.46787126,-0.88379663,0.89118129,0.45364733,0,0)" />
    <path
       style="display:inline;fill:#333333;fill-rule:evenodd;stroke-width:0.192104"
       d="m 126.4734,53.43525 -3.25422,0.403774 c -2.29751,1.690369 -3.28051,2.391634 -5.91899,2.961734 1.15558,-2.715505 3.7453,-4.051921 6.04815,-5.78036 l 2.53573,-1.026997 1.48203,-2.799519 1.20601,-1.188841 1.83692,-0.301041 c 11.25377,-4.60793 -0.25502,0.892326 17.31878,-4.987768 l 1.19754,0.609612 -1.51488,0.980064 -0.89545,1.295411 -1.05385,-0.484936 -0.85751,1.520755 -1.40401,-0.7147 -0.50065,1.341835 -1.23885,-0.630622 -0.71212,1.543235 -1.34291,-0.632068 -0.94507,1.785206 -1.17939,-0.445837 -1.08877,1.660543 -1.05384,-0.484935 -0.68898,1.400513 -1.06866,-0.853035 -0.40657,1.956309 -1.40901,-0.408202 z"
       id="path4-1"
       sodipodi:nodetypes="cccccccccccccccccccccccccccc" />
  </g>
</svg>
