<?xml version="1.0" encoding="UTF-8" standalone="no"?>
<!-- Created with Inkscape (http://www.inkscape.org/) -->

<svg
   width="210mm"
   height="297mm"
   viewBox="0 0 210 297"
   version="1.1"
   id="svg1"
   inkscape:version="1.3.2 (091e20e, 2023-11-25, custom)"
   sodipodi:docname="Pinguino arma caminando 2.svg"
   xmlns:inkscape="http://www.inkscape.org/namespaces/inkscape"
   xmlns:sodipodi="http://sodipodi.sourceforge.net/DTD/sodipodi-0.dtd"
   xmlns="http://www.w3.org/2000/svg"
   xmlns:svg="http://www.w3.org/2000/svg">
  <sodipodi:namedview
     id="namedview1"
     pagecolor="#ffffff"
     bordercolor="#000000"
     borderopacity="0.25"
     inkscape:showpageshadow="2"
     inkscape:pageopacity="0.0"
     inkscape:pagecheckerboard="0"
     inkscape:deskcolor="#d1d1d1"
     inkscape:document-units="mm"
     inkscape:zoom="0.72426347"
     inkscape:cx="396.95499"
     inkscape:cy="561.25984"
     inkscape:window-width="1920"
     inkscape:window-height="1009"
     inkscape:window-x="-8"
     inkscape:window-y="-8"
     inkscape:window-maximized="1"
     inkscape:current-layer="layer1" />
  <defs
     id="defs1" />
  <g
     inkscape:label="Capa 1"
     inkscape:groupmode="layer"
     id="layer1">
    <ellipse
       style="display:inline;fill:#4d4d4d;fill-opacity:1;fill-rule:evenodd;stroke-width:0.445217"
       id="path5"
       cx="-95.515656"
       cy="-83.677765"
       rx="16.636435"
       ry="36.705177"
       transform="matrix(-0.78690313,-0.61707655,0.4588255,-0.8885264,0,0)" />
    <ellipse
       style="display:inline;fill:#fcfc80;fill-opacity:1;fill-rule:evenodd;stroke-width:0.500713"
       id="path6"
       cx="-69.030342"
       cy="188.8533"
       rx="35.324047"
       ry="18.535316"
       transform="matrix(-0.99670301,-0.08113631,-0.08113631,0.99670301,0,0)" />
    <ellipse
       style="display:inline;fill:#fcfc80;fill-opacity:1;fill-rule:evenodd;stroke-width:0.500713"
       id="path6-2"
       cx="-142.32306"
       cy="188.8533"
       rx="35.324047"
       ry="18.535316"
       transform="matrix(-0.99670301,-0.08113631,-0.08113631,0.99670301,0,0)" />
    <ellipse
       style="display:inline;fill:#4d4d4d;fill-opacity:1;fill-rule:evenodd;stroke-width:0.441262"
       id="path4"
       cx="-100.94354"
       cy="126.22416"
       rx="49.822178"
       ry="63.011765"
       transform="matrix(-0.99670301,-0.08113631,-0.08113631,0.99670301,0,0)" />
    <ellipse
       style="display:inline;fill:#4d4d4d;fill-opacity:1;fill-rule:evenodd;stroke-width:0.445217"
       id="path5-9"
       cx="-94.989151"
       cy="195.9614"
       rx="16.636435"
       ry="36.705177"
       transform="matrix(-0.87634709,0.48168016,0.30907637,0.95103722,0,0)" />
    <ellipse
       style="display:inline;fill:#e6e6e6;fill-opacity:1;fill-rule:evenodd;stroke-width:0.502618"
       id="path7"
       cx="-102.13177"
       cy="145.50177"
       rx="33.792664"
       ry="42.338657"
       transform="matrix(-0.99670301,-0.08113631,-0.08113631,0.99670301,0,0)" />
    <ellipse
       style="display:inline;fill:#ffffff;fill-opacity:1;fill-rule:evenodd;stroke-width:0.441262"
       id="path8"
       cx="-88.804291"
       cy="85.660294"
       rx="3.2834971"
       ry="11.014935"
       transform="matrix(-0.99670301,-0.08113631,-0.08113631,0.99670301,0,0)" />
    <ellipse
       style="display:inline;fill:#ffffff;fill-opacity:1;fill-rule:evenodd;stroke-width:0.441262"
       id="path8-4"
       cx="-118.35577"
       cy="85.660294"
       rx="3.2834971"
       ry="11.014935"
       transform="matrix(-0.99670301,-0.08113631,-0.08113631,0.99670301,0,0)" />
    <ellipse
       style="display:inline;fill:#000000;fill-opacity:1;fill-rule:evenodd;stroke-width:0.604609"
       id="path9"
       cx="-118.26805"
       cy="85.619072"
       rx="2.3942168"
       ry="3.6142757"
       transform="matrix(-0.99670301,-0.08113631,-0.08113631,0.99670301,0,0)" />
    <ellipse
       style="display:inline;fill:#000000;fill-opacity:1;fill-rule:evenodd;stroke-width:0.604609"
       id="path9-0"
       cx="-88.740074"
       cy="85.619072"
       rx="2.3942168"
       ry="3.6142757"
       transform="matrix(-0.99670301,-0.08113631,-0.08113631,0.99670301,0,0)" />
    <path
       sodipodi:type="star"
       style="display:inline;fill:#ffd42a;fill-opacity:1;fill-rule:evenodd;stroke-width:0.268999"
       id="path10"
       inkscape:flatsided="true"
       sodipodi:sides="3"
       sodipodi:cx="94.947495"
       sodipodi:cy="129.18472"
       sodipodi:r1="6.6416478"
       sodipodi:r2="3.3208237"
       sodipodi:arg1="1.5707963"
       sodipodi:arg2="2.6179939"
       inkscape:rounded="0"
       inkscape:randomized="0"
       d="m 94.947495,135.82637 -5.751836,-9.96247 11.503671,0 z"
       inkscape:transform-center-x="-0.54229862"
       inkscape:transform-center-y="2.9894784"
       transform="matrix(-1.4577187,-0.11866516,-0.16329619,2.0059798,253.42257,-136.48016)" />
  </g>
  <path
     style="display:inline;fill:#808080;fill-rule:evenodd;stroke-width:0.192104"
     d="m 160.81622,146.48575 -2.0911,-1.10982 -1.13715,-0.58293 -0.86208,-0.24448 c 14.43329,-24.00381 24.78688,-25.85734 32.12976,-26.73214 l 1.41281,-0.77801 2.29469,-0.0525 1.72328,0.86661 1.84491,1.38752 c 1.04223,1.13719 0.93611,2.18195 0.24381,3.38777 l -1.12894,1.17193 -1.38766,-0.19858 -2.36705,-1.07062 -2.41806,-0.23109 -3.22848,0.2852 -3.57375,0.92246 c -7.07685,3.31716 -12.68133,8.94453 -21.45499,22.97869 z"
     id="path3"
     sodipodi:nodetypes="ccccccccccccccccc" />
  <path
     style="display:inline;fill:#000000;fill-rule:evenodd;stroke-width:0.192104"
     d="m 149.73796,173.48708 c -1.39685,0.57532 -1.94476,0.78822 -4.30083,-0.28599 -1.19537,-0.53514 -1.74441,-0.9273 -2.30159,-1.55408 -0.70613,-1.24248 -0.52219,-2.27668 -0.43163,-3.33272 l 3.31798,-6.48978 5.18803,-9.13978 2.12412,-4.44315 0.82051,-2.97796 c 0.33704,-0.52653 0.77142,-0.81023 1.27426,-0.92313 1.04363,0.10267 2.06956,0.24467 2.96074,0.68598 1.02723,0.70877 2.47516,1.27114 3.09603,2.1002 l 3.83342,0.0771 c 0.31852,0.34499 0.002,0.71325 -0.50235,1.08834 -1.38156,0.5936 -2.5085,0.77581 -3.76521,0.98177 -1.7466,1.07798 -2.03011,1.03934 -1.73041,3.4769 0.60556,0.61307 0.72102,0.88922 1.86828,1.87466 0.23669,0.48304 0.11294,0.78807 -0.42482,0.88863 l -1.98798,-1.11361 c -0.89901,-0.5414 -1.26469,0.15745 -1.55551,0.39246 -1.61839,1.94221 -2.74067,3.77567 -4.01113,5.95706 -2.60054,4.53114 -1.85151,3.81204 -2.76075,5.69217 -0.24109,1.28136 0.56161,2.0321 1.75532,2.58408 0.31811,-0.0581 0.68413,-0.0112 1.15146,0.25745 0.17282,1.29435 -0.9396,2.33923 -1.76028,3.23147 z"
     id="path1"
     sodipodi:nodetypes="ccccccccccccccccccccccccc" />
  <ellipse
     style="display:inline;fill:#808080;fill-rule:evenodd;stroke-width:0.192116"
     id="path2"
     cx="216.04373"
     cy="56.658993"
     rx="1.4283056"
     ry="1.4744287"
     transform="matrix(0.82406633,0.56649332,-0.55321398,0.83303919,0,0)" />
  <ellipse
     style="display:inline;fill:#808080;fill-rule:evenodd;stroke-width:0.192116"
     id="path2-2"
     cx="212.96275"
     cy="33.202095"
     rx="1.4283056"
     ry="1.4744287"
     transform="matrix(0.82406633,0.56649332,-0.55321398,0.83303919,0,0)" />
  <path
     style="display:inline;fill:#333333;fill-rule:evenodd;stroke-width:0.192104"
     d="m 189.4949,117.27117 -0.0265,-3.27907 c -1.41467,-2.47681 -1.99813,-3.534 -2.26073,-6.22056 2.56444,1.46048 3.59387,4.18681 5.04575,6.6733 l 0.72829,2.6371 2.61032,1.79443 1.04211,1.33483 0.0876,1.85936 c 3.2819,11.70937 -0.85705,-0.35603 2.96108,17.77779 l -0.74339,1.11941 -0.79919,-1.61762 -1.18371,-1.03862 0.60301,-0.99102 -1.41193,-1.02685 0.87156,-1.31242 -1.27529,-0.65179 0.76903,-1.15801 -1.45101,-0.88503 0.78245,-1.26123 -1.66455,-1.14428 0.57862,-1.12023 -1.52418,-1.27266 0.60301,-0.99103 -1.31189,-0.8456 0.97038,-0.96337 -1.89651,-0.62906 0.56768,-1.35265 z"
     id="path4-1"
     sodipodi:nodetypes="cccccccccccccccccccccccccccc" />
</svg>
