<?xml version="1.0" encoding="UTF-8" standalone="no"?>
<!-- Created with Inkscape (http://www.inkscape.org/) -->

<svg
   width="210mm"
   height="297mm"
   viewBox="0 0 210 297"
   version="1.1"
   id="svg1"
   xml:space="preserve"
   inkscape:version="1.3.2 (091e20e, 2023-11-25, custom)"
   sodipodi:docname="Sombrero SR FLINT.svg"
   xmlns:inkscape="http://www.inkscape.org/namespaces/inkscape"
   xmlns:sodipodi="http://sodipodi.sourceforge.net/DTD/sodipodi-0.dtd"
   xmlns="http://www.w3.org/2000/svg"
   xmlns:svg="http://www.w3.org/2000/svg"><sodipodi:namedview
     id="namedview1"
     pagecolor="#ffffff"
     bordercolor="#000000"
     borderopacity="0.25"
     inkscape:showpageshadow="2"
     inkscape:pageopacity="0.0"
     inkscape:pagecheckerboard="0"
     inkscape:deskcolor="#d1d1d1"
     inkscape:document-units="mm"
     inkscape:zoom="1.0242632"
     inkscape:cx="347.07875"
     inkscape:cy="438.85204"
     inkscape:window-width="1920"
     inkscape:window-height="1009"
     inkscape:window-x="-8"
     inkscape:window-y="-8"
     inkscape:window-maximized="1"
     inkscape:current-layer="layer1" /><defs
     id="defs1" /><g
     inkscape:label="Capa 1"
     inkscape:groupmode="layer"
     id="layer1"><path
       style="display:inline;fill:#000000;fill-rule:evenodd;stroke-width:0.2765"
       d="m 31.805081,150.15462 c 6.283945,-10.86981 15.492401,-15.29715 26.012686,-21.31248 22.483265,-17.87629 43.037803,-15.51481 69.278673,-9.29601 l 14.33352,8.76481 c 58.67239,77.70281 -100.536732,74.13304 -109.624879,21.84368 z"
       id="path3-9"
       sodipodi:nodetypes="ccccc" /><path
       style="display:inline;fill:#008080;fill-rule:evenodd;stroke-width:0.268999"
       d="m 33.064418,150.14413 c 6.11539,-10.57169 15.076846,-14.8776 25.314944,-20.72794 21.880193,-17.386 41.883398,-15.08929 67.420408,-9.04105 l 13.94905,8.52442 c 57.09861,75.57166 -97.840028,72.09979 -106.684402,21.24457 z"
       id="path3"
       sodipodi:nodetypes="ccccc" /><path
       style="display:inline;fill:#000000;fill-rule:evenodd;stroke-width:0.276337"
       d="m 57.422074,130.80018 8.738743,12.96152 21.23238,9.45551 12.453076,0.63197 20.254277,-6.29566 2.05413,-8.37667 2.51897,-20.15638 4.57311,-52.354179 c 0.35124,-6.489821 -1.95164,-9.105515 -5.64914,-9.685525 -23.704195,4.593114 -49.007506,3.405781 -72.283902,10.023966 -0.965906,25.792809 2.408974,3.317477 6.108356,63.795448 z"
       id="path4-2"
       sodipodi:nodetypes="ccccccccccc" /><path
       style="display:inline;fill:#008080;fill-rule:evenodd;stroke-width:0.268999"
       d="m 58.121047,130.70777 8.391458,12.79044 c 2.05212,1.92421 6.729608,4.50477 20.388589,9.3307 l 11.958183,0.62363 19.449343,-6.21256 1.97251,-8.2661 2.41885,-19.89032 4.39137,-51.663148 c 0.3373,-6.40416 -1.87406,-8.985329 -5.42463,-9.557683 -22.762169,4.532488 -47.059905,3.360827 -69.411279,9.891657 -0.927519,25.452361 2.313239,3.273687 5.865606,62.953384 z"
       id="path4"
       sodipodi:nodetypes="ccccccccccc" /><path
       style="display:inline;fill:#000000;fill-rule:evenodd;stroke-width:0.289617"
       d="m 56.534887,116.87599 c 20.576882,22.21151 53.008953,10.96627 66.785543,4.79782 l -1.30894,20.34524 -1.96603,5.38304 c -22.536,12.97237 -46.912338,12.41005 -62.74223,-12.00875 z"
       id="path5-7"
       sodipodi:nodetypes="cccccc" /><path
       style="display:inline;fill:#d0fc34;fill-rule:evenodd;stroke-width:0.268999"
       d="m 57.283421,119.56886 c 19.796472,19.91703 51.613549,9.79249 64.867639,4.26126 l -1.25929,18.24355 -1.89147,4.82696 C 97.31902,158.53294 73.867195,158.02871 58.637677,136.1324 Z"
       id="path5"
       sodipodi:nodetypes="cccccc" /></g></svg>
