<?xml version="1.0" encoding="UTF-8" standalone="no"?>
<!-- Created with Inkscape (http://www.inkscape.org/) -->

<svg
   width="210mm"
   height="297mm"
   viewBox="0 0 210 297"
   version="1.1"
   id="svg1"
   inkscape:version="1.3.2 (091e20e, 2023-11-25, custom)"
   sodipodi:docname="Sr Flint.svg"
   xmlns:inkscape="http://www.inkscape.org/namespaces/inkscape"
   xmlns:sodipodi="http://sodipodi.sourceforge.net/DTD/sodipodi-0.dtd"
   xmlns="http://www.w3.org/2000/svg"
   xmlns:svg="http://www.w3.org/2000/svg">
  <sodipodi:namedview
     id="namedview1"
     pagecolor="#ffffff"
     bordercolor="#000000"
     borderopacity="0.25"
     inkscape:showpageshadow="2"
     inkscape:pageopacity="0.0"
     inkscape:pagecheckerboard="0"
     inkscape:deskcolor="#d1d1d1"
     inkscape:document-units="mm"
     inkscape:zoom="0.72426347"
     inkscape:cx="311.35079"
     inkscape:cy="492.22419"
     inkscape:window-width="1920"
     inkscape:window-height="1009"
     inkscape:window-x="-8"
     inkscape:window-y="-8"
     inkscape:window-maximized="1"
     inkscape:current-layer="layer1" />
  <defs
     id="defs1" />
  <g
     inkscape:label="Capa 1"
     inkscape:groupmode="layer"
     id="layer1">
    <ellipse
       style="display:inline;fill:#4d4d4d;fill-opacity:1;fill-rule:evenodd;stroke-width:0.445217"
       id="path5"
       cx="96.93084"
       cy="-202.33302"
       rx="16.636435"
       ry="36.705177"
       transform="matrix(0.83437603,-0.55119564,-0.385221,-0.92282435,0,0)" />
    <ellipse
       style="display:inline;fill:#fcfc80;fill-opacity:1;fill-rule:evenodd;stroke-width:0.500713"
       id="path6"
       cx="137.25084"
       cy="192.27562"
       rx="35.324047"
       ry="18.535316" />
    <ellipse
       style="display:inline;fill:#fcfc80;fill-opacity:1;fill-rule:evenodd;stroke-width:0.500713"
       id="path6-2"
       cx="63.958179"
       cy="192.27562"
       rx="35.324047"
       ry="18.535316" />
    <ellipse
       style="display:inline;fill:#fcfc80;fill-opacity:1;fill-rule:evenodd;stroke-width:0.500713"
       id="path6-2-6"
       cx="67.338631"
       cy="194.74782"
       rx="35.324047"
       ry="18.535316" />
    <ellipse
       style="display:inline;fill:#4d4d4d;fill-opacity:1;fill-rule:evenodd;stroke-width:0.441262"
       id="path4"
       cx="105.3377"
       cy="129.6465"
       rx="49.822178"
       ry="63.011765" />
    <ellipse
       style="display:inline;fill:#4d4d4d;fill-opacity:1;fill-rule:evenodd;stroke-width:0.445217"
       id="path5-9"
       cx="100.14149"
       cy="83.119926"
       rx="16.636435"
       ry="36.705177"
       transform="matrix(0.83437603,0.55119564,-0.385221,0.92282435,0,0)" />
    <ellipse
       style="display:inline;fill:#e6e6e6;fill-opacity:1;fill-rule:evenodd;stroke-width:0.502618"
       id="path7"
       cx="104.14948"
       cy="148.92412"
       rx="33.792664"
       ry="42.338657" />
    <ellipse
       style="display:inline;fill:#ffffff;fill-opacity:1;fill-rule:evenodd;stroke-width:0.441262"
       id="path8"
       cx="117.47695"
       cy="89.082588"
       rx="3.2834971"
       ry="11.014935" />
    <ellipse
       style="display:inline;fill:#ffffff;fill-opacity:1;fill-rule:evenodd;stroke-width:0.441262"
       id="path8-4"
       cx="87.925468"
       cy="89.082588"
       rx="3.2834971"
       ry="11.014935" />
    <ellipse
       style="display:inline;fill:#000000;fill-opacity:1;fill-rule:evenodd;stroke-width:0.604609"
       id="path9"
       cx="88.013191"
       cy="89.041367"
       rx="2.3942168"
       ry="3.6142757" />
    <ellipse
       style="display:inline;fill:#000000;fill-opacity:1;fill-rule:evenodd;stroke-width:0.604609"
       id="path9-0"
       cx="117.5412"
       cy="89.041367"
       rx="2.3942168"
       ry="3.6142757" />
    <path
       sodipodi:type="star"
       style="display:inline;fill:#ffd42a;fill-opacity:1;fill-rule:evenodd;stroke-width:0.268999"
       id="path10"
       inkscape:flatsided="true"
       sodipodi:sides="3"
       sodipodi:cx="94.947495"
       sodipodi:cy="129.18472"
       sodipodi:r1="6.6416478"
       sodipodi:r2="3.3208237"
       sodipodi:arg1="1.5707963"
       sodipodi:arg2="2.6179939"
       inkscape:rounded="0"
       inkscape:randomized="0"
       d="m 94.947495,135.82637 -5.751836,-9.96247 11.503671,0 z"
       inkscape:transform-center-x="1.3657353e-06"
       inkscape:transform-center-y="3.3417652"
       transform="matrix(1.4625407,0,0,2.0126154,-35.232286,-153.16967)" />
    <path
       style="display:inline;fill:#000000;fill-rule:evenodd;stroke-width:0.141673"
       d="m 69.84202,65.349738 c 3.32486,-5.393402 8.1971,-7.590168 13.76344,-10.574865 11.896,-8.869891 22.77151,-7.698167 36.65569,-4.612511 l 7.58393,4.348939 C 158.88893,93.066024 74.6506,91.294764 69.84202,65.349738 Z"
       id="path3-9"
       sodipodi:nodetypes="ccccc" />
    <path
       style="display:inline;fill:#008080;fill-rule:evenodd;stroke-width:0.137829"
       d="m 70.50834,65.344533 c 3.23568,-5.24548 7.97723,-7.381994 13.39426,-10.284827 11.57692,-8.626617 22.16071,-7.487032 35.67247,-4.486005 l 7.38051,4.229663 c 30.21116,37.49728 -51.76764,35.7746 -56.44724,10.541169 z"
       id="path3"
       sodipodi:nodetypes="ccccc" />
    <path
       style="display:inline;fill:#000000;fill-rule:evenodd;stroke-width:0.141589"
       d="m 83.39609,55.746417 4.62372,6.431271 11.23415,4.691652 6.58899,0.313572 10.71664,-3.123792 1.08685,-4.156352 1.3328,-10.001229 2.41965,-25.977193 c 0.18584,-3.220131 -1.03262,-4.517991 -2.98899,-4.805782 -12.542,2.27902 -25.93011,1.689887 -38.24577,4.97371 -0.51106,12.797923 1.2746,1.646072 3.23196,31.654143 z"
       id="path4-2"
       sodipodi:nodetypes="ccccccccccc" />
    <path
       style="display:inline;fill:#008080;fill-rule:evenodd;stroke-width:0.137829"
       d="m 83.76592,55.700565 4.43997,6.346384 c 1.08578,0.954758 3.56066,2.235185 10.7877,4.629724 l 6.32713,0.309433 10.29075,-3.082559 1.04366,-4.101489 1.27983,-9.869215 2.32349,-25.634316 c 0.17847,-3.177628 -0.99157,-4.458357 -2.8702,-4.742349 -12.04357,2.248938 -24.89963,1.667582 -36.72585,4.908061 -0.49075,12.628999 1.22395,1.624344 3.10352,31.236326 z"
       id="path4-1"
       sodipodi:nodetypes="ccccccccccc" />
    <path
       style="display:inline;fill:#000000;fill-rule:evenodd;stroke-width:0.148394"
       d="m 82.92668,48.837487 c 10.88733,11.020947 28.0473,5.441264 35.33656,2.380591 l -0.69257,10.094938 -1.04023,2.670967 c -11.92391,6.436654 -24.82155,6.157641 -33.19723,-5.958524 z"
       id="path5-7"
       sodipodi:nodetypes="cccccc" />
    <path
       style="display:inline;fill:#d0fc34;fill-rule:evenodd;stroke-width:0.137829"
       d="m 83.32273,50.17364 c 10.47441,9.882468 27.30899,4.858855 34.32179,2.11436 l -0.6663,9.052118 -1.00078,2.39505 c -11.47167,5.771741 -23.88015,5.521551 -31.93816,-5.343001 z"
       id="path5-1"
       sodipodi:nodetypes="cccccc" />
  </g>
</svg>
